{
copyright = "Copyright (c) 2015, Cadson Demak (info@cadsondemak.com)";
customParameters = (
{
name = vendorID;
value = CDK;
},
{
name = description;
value = "Copyright (c) 2015, Cadson Demak (info@cadsondemak.com)";
},
{
name = license;

glyphs = (
{
glyphname = A;
lastChange = "2015-11-26 04:54:46 +0000";
layers = (
{
layerId = "9422835F-145C-491A-96D7-00A9C7F45A34";
name = Bold;
paths = (
{
closed = 1;
nodes = (
"244 0 LINE",
"293 128 LINE",
"466 128 LINE",
"516 0 LINE",
"740 0 LINE",
"492 644 LINE",
"267 644 LINE",
"20 0 LINE"
);
},
{
closed = 1;
nodes = (
"379 434 LINE",
"440 278 LINE",
"319 278 LINE"
);
}
);
width = 760;
}
);
leftKerningGroup = A;
note = A;
rightKerningGroup = A;
unicode = 0041;
},
{
glyphname = Aacute;
lastChange = "2015-11-26 04:54:45 +0000";
layers = (
{
layerId = "9422835F-145C-491A-96D7-00A9C7F45A34";
name = Bold;
paths = (
{
closed = 1;
nodes = (
"244 0 LINE",
"293 128 LINE",
"466 128 LINE",
"516 0 LINE",
"740 0 LINE",
"492 644 LINE",
"267 644 LINE",
"20 0 LINE"
);
},
{
closed = 1;
nodes = (
"379 434 LINE",
"440 278 LINE",
"319 278 LINE"
);
},
{
closed = 1;
nodes = (
"454 688 LINE",
"555 904 LINE",
"389 904 LINE",
"297 688 LINE"
);
}
);
width = 760;
}
);
leftKerningGroup = A;
note = Aacute;
rightKerningGroup = A;
unicode = 00C1;
},
{
glyphname = Abreve;
lastChange = "2015-11-26 04:54:46 +0000";
layers = (
{
layerId = "9422835F-145C-491A-96D7-00A9C7F45A34";
name = Bold;
paths = (
{
closed = 1;
nodes = (
"244 0 LINE",
"293 128 LINE",
"466 128 LINE",
"516 0 LINE",
"740 0 LINE",
"492 644 LINE",
"267 644 LINE",
"20 0 LINE"
);
},
{
closed = 1;
nodes = (
"379 434 LINE",
"440 278 LINE",
"319 278 LINE"
);
},
{
closed = 1;
nodes = (
"502 688 OFFCURVE",
"584 760 OFFCURVE",
"584 892 CURVE",
"445 892 LINE",
"445 845 OFFCURVE",
"429 806 OFFCURVE",
"378 806 CURVE SMOOTH",
"328 806 OFFCURVE",
"312 845 OFFCURVE",
"312 892 CURVE",
"174 892 LINE",
"174 760 OFFCURVE",
"255 688 OFFCURVE",
"378 688 CURVE SMOOTH"
);
}
);
width = 760;
}
);
leftKerningGroup = A;
note = Abreve;
rightKerningGroup = A;
unicode = 0102;
},
{
glyphname = Abreveacute;
lastChange = "2015-11-26 04:54:46 +0000";
layers = (
{
layerId = "9422835F-145C-491A-96D7-00A9C7F45A34";
name = Bold;
paths = (
{
closed = 1;
nodes = (
"244 0 LINE",
"293 128 LINE",
"466 128 LINE",
"516 0 LINE",
"740 0 LINE",
"492 644 LINE",
"267 644 LINE",
"20 0 LINE"
);
},
{
closed = 1;
nodes = (
"379 434 LINE",
"440 278 LINE",
"319 278 LINE"
);
},
{
closed = 1;
nodes = (
"494 688 OFFCURVE",
"570 743 OFFCURVE",
"570 868 CURVE",
"451 868 LINE",
"451 824 OFFCURVE",
"429 792 OFFCURVE",
"380 792 CURVE SMOOTH",
"332 792 OFFCURVE",
"310 824 OFFCURVE",
"310 868 CURVE",
"190 868 LINE",
"190 743 OFFCURVE",
"267 688 OFFCURVE",
"380 688 CURVE SMOOTH"
);
},
{
closed = 1;
nodes = (
"443 892 LINE",
"523 1040 LINE",
"382 1040 LINE",
"315 892 LINE"
);
}
);
width = 760;
}
);
leftKerningGroup = A;
note = Abreveacute;
rightKerningGroup = A;
unicode = 1EAE;
},
{
glyphname = Abrevedotbelow;
lastChange = "2015-11-26 04:54:46 +0000";
layers = (
{
layerId = "9422835F-145C-491A-96D7-00A9C7F45A34";
name = Bold;
paths = (
{
closed = 1;
nodes = (
"244 0 LINE",
"293 128 LINE",
"466 128 LINE",
"516 0 LINE",
"740 0 LINE",
"492 644 LINE",
"267 644 LINE",
"20 0 LINE"
);
},
{
closed = 1;
nodes = (
"451 -176 LINE",
"451 -46 LINE",
"308 -46 LINE",
"308 -176 LINE"
);
},
{
closed = 1;
nodes = (
"379 434 LINE",
"440 278 LINE",
"319 278 LINE"
);
},
{
closed = 1;
nodes = (
"503 688 OFFCURVE",
"585 760 OFFCURVE",
"585 892 CURVE",
"446 892 LINE",
"446 845 OFFCURVE",
"430 806 OFFCURVE",
"379 806 CURVE SMOOTH",
"329 806 OFFCURVE",
"313 845 OFFCURVE",
"313 892 CURVE",
"175 892 LINE",
"175 760 OFFCURVE",
"256 688 OFFCURVE",
"379 688 CURVE SMOOTH"
);
}
);
width = 760;
}
);
leftKerningGroup = A;
note = Abrevedotbelow;
rightKerningGroup = A;
unicode = 1EB6;
},
{
glyphname = Abrevegrave;
lastChange = "2015-11-26 04:54:46 +0000";
layers = (
{
layerId = "9422835F-145C-491A-96D7-00A9C7F45A34";
name = Bold;
paths = (
{
closed = 1;
nodes = (
"244 0 LINE",
"293 128 LINE",
"466 128 LINE",
"516 0 LINE",
"740 0 LINE",
"492 644 LINE",
"267 644 LINE",
"20 0 LINE"
);
},
{
closed = 1;
nodes = (
"379 434 LINE",
"440 278 LINE",
"319 278 LINE"
);
},
{
closed = 1;
nodes = (
"492 688 OFFCURVE",
"569 743 OFFCURVE",
"569 868 CURVE",
"449 868 LINE",
"449 824 OFFCURVE",
"427 792 OFFCURVE",
"379 792 CURVE SMOOTH",
"330 792 OFFCURVE",
"308 824 OFFCURVE",
"308 868 CURVE",
"189 868 LINE",
"189 743 OFFCURVE",
"265 688 OFFCURVE",
"379 688 CURVE SMOOTH"
);
},
{
closed = 1;
nodes = (
"444 892 LINE",
"377 1040 LINE",
"236 1040 LINE",
"316 892 LINE"
);
}
);
width = 760;
}
);
leftKerningGroup = A;
note = Abrevegrave;
rightKerningGroup = A;
unicode = 1EB0;
},
{
glyphname = Abrevehookabove;
lastChange = "2015-11-26 04:54:46 +0000";
layers = (
{
layerId = "9422835F-145C-491A-96D7-00A9C7F45A34";
name = Bold;
paths = (
{
closed = 1;
nodes = (
"244 0 LINE",
"293 128 LINE",
"466 128 LINE",
"516 0 LINE",
"740 0 LINE",
"492 644 LINE",
"267 644 LINE",
"20 0 LINE"
);
},
{
closed = 1;
nodes = (
"379 434 LINE",
"440 278 LINE",
"319 278 LINE"
);
},
{
closed = 1;
nodes = (
"492 688 OFFCURVE",
"569 743 OFFCURVE",
"569 868 CURVE",
"449 868 LINE",
"449 824 OFFCURVE",
"427 792 OFFCURVE",
"379 792 CURVE SMOOTH",
"330 792 OFFCURVE",
"308 824 OFFCURVE",
"308 868 CURVE",
"189 868 LINE",
"189 743 OFFCURVE",
"265 688 OFFCURVE",
"379 688 CURVE SMOOTH"
);
},
{
closed = 1;
nodes = (
"445 882 LINE",
"445 910 LINE",
"495 923 OFFCURVE",
"515 946 OFFCURVE",
"515 990 CURVE SMOOTH",
"515 1038 OFFCURVE",
"473 1076 OFFCURVE",
"397 1076 CURVE SMOOTH",
"358 1076 OFFCURVE",
"317 1070 OFFCURVE",
"293 1063 CURVE",
"293 991 LINE",
"305 996 OFFCURVE",
"323 1001 OFFCURVE",
"340 1001 CURVE SMOOTH",
"369 1001 OFFCURVE",
"384 996 OFFCURVE",
"384 976 CURVE SMOOTH",
"384 957 OFFCURVE",
"364 945 OFFCURVE",
"312 943 CURVE",
"312 882 LINE"
);
}
);
width = 760;
}
);
leftKerningGroup = A;
note = Abrevehookabove;
rightKerningGroup = A;
unicode = 1EB2;
},
{
glyphname = Abrevetilde;
lastChange = "2015-11-26 04:54:45 +0000";
layers = (
{
layerId = "9422835F-145C-491A-96D7-00A9C7F45A34";
name = Bold;
paths = (
{
closed = 1;
nodes = (
"244 0 LINE",
"293 128 LINE",
"466 128 LINE",
"516 0 LINE",
"740 0 LINE",
"492 644 LINE",
"267 644 LINE",
"20 0 LINE"
);
},
{
closed = 1;
nodes = (
"379 434 LINE",
"440 278 LINE",
"319 278 LINE"
);
},
{
closed = 1;
nodes = (
"492 688 OFFCURVE",
"569 743 OFFCURVE",
"569 868 CURVE",
"449 868 LINE",
"449 824 OFFCURVE",
"427 792 OFFCURVE",
"379 792 CURVE SMOOTH",
"330 792 OFFCURVE",
"308 824 OFFCURVE",
"308 868 CURVE",
"189 868 LINE",
"189 743 OFFCURVE",
"265 688 OFFCURVE",
"379 688 CURVE SMOOTH"
);
},
{
closed = 1;
nodes = (
"512 889 OFFCURVE",
"546 904 OFFCURVE",
"559 921 CURVE",
"559 1027 LINE",
"543 1004 OFFCURVE",
"511 988 OFFCURVE",
"470 988 CURVE SMOOTH",
"410 988 OFFCURVE",
"359 1029 OFFCURVE",
"294 1029 CURVE SMOOTH",
"256 1029 OFFCURVE",
"220 1015 OFFCURVE",
"202 997 CURVE",
"202 892 LINE",
"225 916 OFFCURVE",
"256 930 OFFCURVE",
"297 930 CURVE SMOOTH",
"351 930 OFFCURVE",
"410 889 OFFCURVE",
"473 889 CURVE SMOOTH"
);
}
);
width = 760;
}
);
leftKerningGroup = A;
note = Abrevetilde;
rightKerningGroup = A;
unicode = 1EB4;
},
{
glyphname = Acaron;
lastChange = "2015-11-26 04:54:45 +0000";
layers = (
{
layerId = "9422835F-145C-491A-96D7-00A9C7F45A34";
name = Bold;
paths = (
{
closed = 1;
nodes = (
"244 0 LINE",
"293 128 LINE",
"466 128 LINE",
"516 0 LINE",
"740 0 LINE",
"492 644 LINE",
"267 644 LINE",
"20 0 LINE"
);
},
{
closed = 1;
nodes = (
"379 434 LINE",
"440 278 LINE",
"319 278 LINE"
);
},
{
closed = 1;
nodes = (
"443 688 LINE",
"608 896 LINE",
"456 896 LINE",
"380 788 LINE",
"307 896 LINE",
"151 896 LINE",
"316 688 LINE"
);
}
);
width = 760;
}
);
leftKerningGroup = A;
note = Acaron;
rightKerningGroup = A;
unicode = 01CD;
},
{
glyphname = Acircumflex;
lastChange = "2015-11-26 04:54:46 +0000";
layers = (
{
layerId = "9422835F-145C-491A-96D7-00A9C7F45A34";
name = Bold;
paths = (
{
closed = 1;
nodes = (
"244 0 LINE",
"293 128 LINE",
"466 128 LINE",
"516 0 LINE",
"740 0 LINE",
"492 644 LINE",
"267 644 LINE",
"20 0 LINE"
);
},
{
closed = 1;
nodes = (
"379 434 LINE",
"440 278 LINE",
"319 278 LINE"
);
},
{
closed = 1;
nodes = (
"307 688 LINE",
"380 796 LINE",
"456 688 LINE",
"608 688 LINE",
"443 896 LINE",
"316 896 LINE",
"151 688 LINE"
);
}
);
width = 760;
}
);
leftKerningGroup = A;
note = Acircumflex;
rightKerningGroup = A;
unicode = 00C2;
},
{
glyphname = Acircumflexacute;
lastChange = "2015-11-26 04:54:45 +0000";
layers = (
{
layerId = "9422835F-145C-491A-96D7-00A9C7F45A34";
name = Bold;
paths = (
{
closed = 1;
nodes = (
"244 0 LINE",
"293 128 LINE",
"466 128 LINE",
"516 0 LINE",
"740 0 LINE",
"492 644 LINE",
"267 644 LINE",
"20 0 LINE"
);
},
{
closed = 1;
nodes = (
"379 434 LINE",
"440 278 LINE",
"319 278 LINE"
);
},
{
closed = 1;
nodes = (
"318 688 LINE",
"375 765 LINE",
"434 688 LINE",
"603 688 LINE",
"453 848 LINE",
"297 848 LINE",
"147 688 LINE"
);
},
{
closed = 1;
nodes = (
"658 816 LINE",
"738 980 LINE",
"581 980 LINE",
"508 816 LINE"
);
}
);
width = 760;
}
);
leftKerningGroup = A;
note = Acircumflexacute;
rightKerningGroup = A;
unicode = 1EA4;
},
{
glyphname = Acircumflexdotbelow;
lastChange = "2015-11-26 04:55:36 +0000";
layers = (
{
layerId = "9422835F-145C-491A-96D7-00A9C7F45A34";
name = Bold;
paths = (
{
closed = 1;
nodes = (
"244 0 LINE",
"293 128 LINE",
"466 128 LINE",
"516 0 LINE",
"740 0 LINE",
"492 644 LINE",
"267 644 LINE",
"20 0 LINE"
);
},
{
closed = 1;
nodes = (
"379 434 LINE",
"440 278 LINE",
"319 278 LINE"
);
},
{
closed = 1;
nodes = (
"451 -176 LINE",
"451 -46 LINE",
"308 -46 LINE",
"308 -176 LINE"
);
},
{
closed = 1;
nodes = (
"308 688 LINE",
"381 796 LINE",
"457 688 LINE",
"609 688 LINE",
"444 896 LINE",
"317 896 LINE",
"152 688 LINE"
);
}
);
width = 760;
}
);
leftKerningGroup = A;
note = Acircumflexdotbelow;
rightKerningGroup = A;
unicode = 1EAC;
},
{
glyphname = Acircumflexgrave;
lastChange = "2015-11-26 04:54:47 +0000";
layers = (
{
layerId = "9422835F-145C-491A-96D7-00A9C7F45A34";
name = Bold;
paths = (
{
closed = 1;
nodes = (
"244 0 LINE",
"293 128 LINE",
"466 128 LINE",
"516 0 LINE",
"740 0 LINE",
"492 644 LINE",
"267 644 LINE",
"20 0 LINE"
);
},
{
closed = 1;
nodes = (
"379 434 LINE",
"440 278 LINE",
"319 278 LINE"
);
},
{
closed = 1;
nodes = (
"249 816 LINE",
"176 980 LINE",
"18 980 LINE",
"99 816 LINE"
);
},
{
closed = 1;
nodes = (
"322 688 LINE",
"381 765 LINE",
"439 688 LINE",
"610 688 LINE",
"460 848 LINE",
"303 848 LINE",
"153 688 LINE"
);
}
);
width = 760;
}
);
leftKerningGroup = A;
note = Acircumflexgrave;
rightKerningGroup = A;
unicode = 1EA6;
},
{
glyphname = Acircumflexhookabove;
lastChange = "2015-11-26 04:54:47 +0000";
layers = (
{
layerId = "9422835F-145C-491A-96D7-00A9C7F45A34";
name = Bold;
paths = (
{
closed = 1;
nodes = (
"244 0 LINE",
"293 128 LINE",
"466 128 LINE",
"516 0 LINE",
"740 0 LINE",
"492 644 LINE",
"267 644 LINE",
"20 0 LINE"
);
},
{
closed = 1;
nodes = (
"379 434 LINE",
"440 278 LINE",
"319 278 LINE"
);
},
{
closed = 1;
nodes = (
"320 688 LINE",
"378 765 LINE",
"437 688 LINE",
"606 688 LINE",
"456 848 LINE",
"299 848 LINE",
"149 688 LINE"
);
},
{
closed = 1;
nodes = (
"662 793 LINE",
"662 825 LINE",
"711 834 OFFCURVE",
"733 866 OFFCURVE",
"733 912 CURVE SMOOTH",
"733 964 OFFCURVE",
"691 1001 OFFCURVE",
"609 1001 CURVE SMOOTH",
"564 1001 OFFCURVE",
"527 996 OFFCURVE",
"501 989 CURVE",
"501 907 LINE",
"515 911 OFFCURVE",
"533 915 OFFCURVE",
"551 915 CURVE SMOOTH",
"575 915 OFFCURVE",
"589 911 OFFCURVE",
"589 897 CURVE SMOOTH",
"589 882 OFFCURVE",
"576 871 OFFCURVE",
"521 870 CURVE",
"521 793 LINE"
);
}
);
width = 760;
}
);
leftKerningGroup = A;
note = Acircumflexhookabove;
rightKerningGroup = A;
unicode = 1EA8;
},
{
glyphname = Acircumflextilde;
lastChange = "2015-11-26 04:54:46 +0000";
layers = (
{
layerId = "9422835F-145C-491A-96D7-00A9C7F45A34";
name = Bold;
paths = (
{
closed = 1;
nodes = (
"244 0 LINE",
"293 128 LINE",
"466 128 LINE",
"516 0 LINE",
"740 0 LINE",
"492 644 LINE",
"267 644 LINE",
"20 0 LINE"
);
},
{
closed = 1;
nodes = (
"379 434 LINE",
"440 278 LINE",
"319 278 LINE"
);
},
{
closed = 1;
nodes = (
"322 688 LINE",
"380 765 LINE",
"439 688 LINE",
"608 688 LINE",
"458 848 LINE",
"301 848 LINE",
"151 688 LINE"
);
},
{
closed = 1;
nodes = (
"511 858 OFFCURVE",
"545 873 OFFCURVE",
"558 890 CURVE",
"558 996 LINE",
"542 973 OFFCURVE",
"510 957 OFFCURVE",
"469 957 CURVE SMOOTH",
"409 957 OFFCURVE",
"358 998 OFFCURVE",
"293 998 CURVE SMOOTH",
"255 998 OFFCURVE",
"219 984 OFFCURVE",
"201 966 CURVE",
"201 861 LINE",
"224 885 OFFCURVE",
"255 899 OFFCURVE",
"296 899 CURVE SMOOTH",
"350 899 OFFCURVE",
"409 858 OFFCURVE",
"472 858 CURVE SMOOTH"
);
}
);
width = 760;
}
);
leftKerningGroup = A;
note = Acircumflextilde;
rightKerningGroup = A;
unicode = 1EAA;
},
{
glyphname = Adieresis;
lastChange = "2015-11-26 04:54:46 +0000";
layers = (
{
layerId = "9422835F-145C-491A-96D7-00A9C7F45A34";
name = Bold;
paths = (
{
closed = 1;
nodes = (
"244 0 LINE",
"293 128 LINE",
"466 128 LINE",
"516 0 LINE",
"740 0 LINE",
"492 644 LINE",
"267 644 LINE",
"20 0 LINE"
);
},
{
closed = 1;
nodes = (
"379 434 LINE",
"440 278 LINE",
"319 278 LINE"
);
},
{
closed = 1;
nodes = (
"339 715 LINE",
"339 846 LINE",
"195 846 LINE",
"195 715 LINE"
);
},
{
closed = 1;
nodes = (
"564 715 LINE",
"564 846 LINE",
"421 846 LINE",
"421 715 LINE"
);
}
);
width = 760;
}
);
leftKerningGroup = A;
note = Adieresis;
rightKerningGroup = A;
unicode = 00C4;
},
{
glyphname = Adotbelow;
lastChange = "2015-11-26 04:55:45 +0000";
layers = (
{
layerId = "9422835F-145C-491A-96D7-00A9C7F45A34";
name = Bold;
paths = (
{
closed = 1;
nodes = (
"244 0 LINE",
"293 128 LINE",
"466 128 LINE",
"516 0 LINE",
"740 0 LINE",
"492 644 LINE",
"267 644 LINE",
"20 0 LINE"
);
},
{
closed = 1;
nodes = (
"379 434 LINE",
"440 278 LINE",
"319 278 LINE"
);
},
{
closed = 1;
nodes = (
"451 -176 LINE",
"451 -46 LINE",
"308 -46 LINE",
"308 -176 LINE"
);
}
);
width = 760;
}
);
note = Adotbelow;
unicode = 1EA0;
},
{
glyphname = Agrave;
lastChange = "2015-11-26 04:54:45 +0000";
layers = (
{
layerId = "9422835F-145C-491A-96D7-00A9C7F45A34";
name = Bold;
paths = (
{
closed = 1;
nodes = (
"244 0 LINE",
"293 128 LINE",
"466 128 LINE",
"516 0 LINE",
"740 0 LINE",
"492 644 LINE",
"267 644 LINE",
"20 0 LINE"
);
},
{
closed = 1;
nodes = (
"379 434 LINE",
"440 278 LINE",
"319 278 LINE"
);
},
{
closed = 1;
nodes = (
"456 688 LINE",
"364 904 LINE",
"197 904 LINE",
"298 688 LINE"
);
}
);
width = 760;
}
);
leftKerningGroup = A;
note = Agrave;
rightKerningGroup = A;
unicode = 00C0;
},
{
glyphname = Ahookabove;
lastChange = "2015-11-26 04:54:46 +0000";
layers = (
{
layerId = "9422835F-145C-491A-96D7-00A9C7F45A34";
name = Bold;
paths = (
{
closed = 1;
nodes = (
"244 0 LINE",
"293 128 LINE",
"466 128 LINE",
"516 0 LINE",
"740 0 LINE",
"492 644 LINE",
"267 644 LINE",
"20 0 LINE"
);
},
{
closed = 1;
nodes = (
"379 434 LINE",
"440 278 LINE",
"319 278 LINE"
);
},
{
closed = 1;
nodes = (
"461 688 LINE",
"461 726 LINE",
"517 743 OFFCURVE",
"544 769 OFFCURVE",
"544 828 CURVE SMOOTH",
"544 888 OFFCURVE",
"492 932 OFFCURVE",
"398 932 CURVE SMOOTH",
"345 932 OFFCURVE",
"305 927 OFFCURVE",
"275 918 CURVE",
"275 832 LINE",
"291 837 OFFCURVE",
"313 841 OFFCURVE",
"333 841 CURVE SMOOTH",
"369 841 OFFCURVE",
"388 832 OFFCURVE",
"388 810 CURVE SMOOTH",
"388 788 OFFCURVE",
"368 773 OFFCURVE",
"301 769 CURVE",
"301 688 LINE"
);
}
);
width = 760;
}
);
leftKerningGroup = A;
note = Ahookabove;
rightKerningGroup = A;
unicode = 1EA2;
},
{
glyphname = Amacron;
lastChange = "2015-11-26 04:54:46 +0000";
layers = (
{
layerId = "9422835F-145C-491A-96D7-00A9C7F45A34";
name = Bold;
paths = (
{
closed = 1;
nodes = (
"244 0 LINE",
"293 128 LINE",
"466 128 LINE",
"516 0 LINE",
"740 0 LINE",
"492 644 LINE",
"267 644 LINE",
"20 0 LINE"
);
},
{
closed = 1;
nodes = (
"379 434 LINE",
"440 278 LINE",
"319 278 LINE"
);
},
{
closed = 1;
nodes = (
"549 699 LINE",
"549 825 LINE",
"210 825 LINE",
"210 699 LINE"
);
}
);
width = 760;
}
);
leftKerningGroup = A;
note = Amacron;
rightKerningGroup = A;
unicode = 0100;
},
{
glyphname = Aogonek;
lastChange = "2015-11-26 04:55:59 +0000";
layers = (
{
layerId = "9422835F-145C-491A-96D7-00A9C7F45A34";
name = Bold;
paths = (
{
closed = 1;
nodes = (
"244 0 LINE",
"293 128 LINE",
"466 128 LINE",
"516 0 LINE",
"740 0 LINE",
"492 644 LINE",
"267 644 LINE",
"20 0 LINE"
);
},
{
closed = 1;
nodes = (
"379 434 LINE",
"440 278 LINE",
"319 278 LINE"
);
},
{
closed = 1;
nodes = (
"651 -220 OFFCURVE",
"695 -211 OFFCURVE",
"716 -203 CURVE",
"716 -107 LINE",
"704 -114 OFFCURVE",
"683 -118 OFFCURVE",
"666 -118 CURVE SMOOTH",
"637 -118 OFFCURVE",
"621 -108 OFFCURVE",
"621 -83 CURVE SMOOTH",
"621 -51 OFFCURVE",
"643 -24 OFFCURVE",
"674 0 CURVE",
"540 0 LINE",
"497 -26 OFFCURVE",
"465 -68 OFFCURVE",
"465 -120 CURVE SMOOTH",
"465 -189 OFFCURVE",
"522 -220 OFFCURVE",
"605 -220 CURVE SMOOTH"
);
}
);
width = 760;
}
);
leftKerningGroup = A;
note = Aogonek;
rightKerningGroup = A;
unicode = 0104;
},
{
glyphname = Aring;
lastChange = "2015-11-26 04:54:46 +0000";
layers = (
{
layerId = "9422835F-145C-491A-96D7-00A9C7F45A34";
name = Bold;
paths = (
{
closed = 1;
nodes = (
"244 0 LINE",
"293 128 LINE",
"466 128 LINE",
"516 0 LINE",
"740 0 LINE",
"492 644 LINE",
"267 644 LINE",
"20 0 LINE"
);
},
{
closed = 1;
nodes = (
"379 434 LINE",
"440 278 LINE",
"319 278 LINE"
);
},
{
closed = 1;
nodes = (
"474 589 OFFCURVE",
"526 649 OFFCURVE",
"526 726 CURVE SMOOTH",
"526 804 OFFCURVE",
"474 864 OFFCURVE",
"379 864 CURVE SMOOTH",
"285 864 OFFCURVE",
"233 804 OFFCURVE",
"233 726 CURVE SMOOTH",
"233 649 OFFCURVE",
"285 589 OFFCURVE",
"379 589 CURVE SMOOTH"
);
},
{
closed = 1;
nodes = (
"343 674 OFFCURVE",
"324 698 OFFCURVE",
"324 726 CURVE SMOOTH",
"324 754 OFFCURVE",
"343 779 OFFCURVE",
"379 779 CURVE SMOOTH",
"416 779 OFFCURVE",
"434 754 OFFCURVE",
"434 726 CURVE SMOOTH",
"434 698 OFFCURVE",
"416 674 OFFCURVE",
"379 674 CURVE SMOOTH"
);
}
);
width = 760;
}
);
leftKerningGroup = A;
note = Aring;
rightKerningGroup = A;
unicode = 00C5;
},
{
glyphname = Aringacute;
lastChange = "2015-11-26 04:54:46 +0000";
layers = (
{
layerId = "9422835F-145C-491A-96D7-00A9C7F45A34";
name = Bold;
paths = (
{
closed = 1;
nodes = (
"244 0 LINE",
"293 128 LINE",
"466 128 LINE",
"516 0 LINE",
"740 0 LINE",
"492 644 LINE",
"267 644 LINE",
"20 0 LINE"
);
},
{
closed = 1;
nodes = (
"379 434 LINE",
"440 278 LINE",
"319 278 LINE"
);
},
{
closed = 1;
nodes = (
"474 589 OFFCURVE",
"526 649 OFFCURVE",
"526 726 CURVE SMOOTH",
"526 804 OFFCURVE",
"474 864 OFFCURVE",
"379 864 CURVE SMOOTH",
"285 864 OFFCURVE",
"233 804 OFFCURVE",
"233 726 CURVE SMOOTH",
"233 649 OFFCURVE",
"285 589 OFFCURVE",
"379 589 CURVE SMOOTH"
);
},
{
closed = 1;
nodes = (
"343 674 OFFCURVE",
"324 698 OFFCURVE",
"324 726 CURVE SMOOTH",
"324 754 OFFCURVE",
"343 779 OFFCURVE",
"379 779 CURVE SMOOTH",
"416 779 OFFCURVE",
"434 754 OFFCURVE",
"434 726 CURVE SMOOTH",
"434 698 OFFCURVE",
"416 674 OFFCURVE",
"379 674 CURVE SMOOTH"
);
},
{
closed = 1;
nodes = (
"449 893 LINE",
"550 1076 LINE",
"384 1076 LINE",
"292 893 LINE"
);
}
);
width = 760;
}
);
leftKerningGroup = A;
note = Aringacute;
rightKerningGroup = A;
unicode = 01FA;
},
{
glyphname = Atilde;
lastChange = "2015-11-26 04:54:46 +0000";
layers = (
{
layerId = "9422835F-145C-491A-96D7-00A9C7F45A34";
name = Bold;
paths = (
{
closed = 1;
nodes = (
"244 0 LINE",
"293 128 LINE",
"466 128 LINE",
"516 0 LINE",
"740 0 LINE",
"492 644 LINE",
"267 644 LINE",
"20 0 LINE"
);
},
{
closed = 1;
nodes = (
"379 434 LINE",
"440 278 LINE",
"319 278 LINE"
);
},
{
closed = 1;
nodes = (
"521 692 OFFCURVE",
"558 708 OFFCURVE",
"571 726 CURVE",
"571 856 LINE",
"555 833 OFFCURVE",
"521 815 OFFCURVE",
"477 815 CURVE SMOOTH",
"411 815 OFFCURVE",
"356 858 OFFCURVE",
"286 858 CURVE SMOOTH",
"246 858 OFFCURVE",
"207 842 OFFCURVE",
"188 824 CURVE",
"188 695 LINE",
"212 719 OFFCURVE",
"245 735 OFFCURVE",
"289 735 CURVE SMOOTH",
"347 735 OFFCURVE",
"411 692 OFFCURVE",
"480 692 CURVE SMOOTH"
);
}
);
width = 760;
}
);
leftKerningGroup = A;
note = Atilde;
rightKerningGroup = A;
unicode = 00C3;
},
{
glyphname = AE;
lastChange = "2015-11-26 04:54:46 +0000";
layers = (
{
layerId = "9422835F-145C-491A-96D7-00A9C7F45A34";
name = Bold;
paths = (
{
closed = 1;
nodes = (
"245 0 LINE",
"295 129 LINE",
"403 129 LINE",
"403 0 LINE",
"846 0 LINE",
"846 159 LINE",
"611 159 LINE",
"611 240 LINE",
"809 240 LINE",
"809 403 LINE",
"611 403 LINE",
"611 485 LINE",
"846 485 LINE",
"846 644 LINE",
"267 644 LINE",
"20 0 LINE"
);
},
{
closed = 1;
nodes = (
"397 485 LINE",
"403 485 LINE",
"403 284 LINE",
"326 284 LINE"
);
}
);
width = 866;
}
);
leftKerningGroup = A;
note = AE;
rightKerningGroup = E;
unicode = 00C6;
},
{
glyphname = AEacute;
lastChange = "2015-11-26 04:54:46 +0000";
layers = (
{
layerId = "9422835F-145C-491A-96D7-00A9C7F45A34";
name = Bold;
paths = (
{
closed = 1;
nodes = (
"245 0 LINE",
"295 129 LINE",
"403 129 LINE",
"403 0 LINE",
"846 0 LINE",
"846 159 LINE",
"611 159 LINE",
"611 240 LINE",
"809 240 LINE",
"809 403 LINE",
"611 403 LINE",
"611 485 LINE",
"846 485 LINE",
"846 644 LINE",
"267 644 LINE",
"20 0 LINE"
);
},
{
closed = 1;
nodes = (
"397 485 LINE",
"403 485 LINE",
"403 284 LINE",
"326 284 LINE"
);
},
{
closed = 1;
nodes = (
"569 688 LINE",
"670 904 LINE",
"504 904 LINE",
"412 688 LINE"
);
}
);
width = 866;
}
);
leftKerningGroup = A;
note = AEacute;
rightKerningGroup = E;
unicode = 01FC;
},
{
glyphname = B;
lastChange = "2015-11-26 04:54:45 +0000";
layers = (
{
layerId = "9422835F-145C-491A-96D7-00A9C7F45A34";
name = Bold;
paths = (
{
closed = 1;
nodes = (
"414 0 LINE SMOOTH",
"553 0 OFFCURVE",
"634 71 OFFCURVE",
"634 193 CURVE SMOOTH",
"634 270 OFFCURVE",
"601 304 OFFCURVE",
"548 327 CURVE",
"586 353 OFFCURVE",
"612 398 OFFCURVE",
"612 464 CURVE SMOOTH",
"612 579 OFFCURVE",
"539 644 OFFCURVE",
"408 644 CURVE SMOOTH",
"40 644 LINE",
"40 0 LINE"
);
},
{
closed = 1;
nodes = (
"244 255 LINE",
"352 255 LINE SMOOTH",
"396 255 OFFCURVE",
"415 236 OFFCURVE",
"415 203 CURVE SMOOTH",
"415 164 OFFCURVE",
"395 147 OFFCURVE",
"354 147 CURVE SMOOTH",
"244 147 LINE"
);
},
{
closed = 1;
nodes = (
"244 496 LINE",
"347 496 LINE SMOOTH",
"390 496 OFFCURVE",
"408 477 OFFCURVE",
"408 444 CURVE SMOOTH",
"408 410 OFFCURVE",
"390 392 OFFCURVE",
"350 392 CURVE SMOOTH",
"244 392 LINE"
);
}
);
width = 654;
}
);
note = B;
unicode = 0042;
},
{
glyphname = C;
lastChange = "2015-11-26 04:54:42 +0000";
layers = (
{
layerId = "9422835F-145C-491A-96D7-00A9C7F45A34";
name = Bold;
paths = (
{
closed = 1;
nodes = (
"473 -10 OFFCURVE",
"533 2 OFFCURVE",
"592 23 CURVE",
"592 211 LINE",
"531 184 OFFCURVE",
"472 172 OFFCURVE",
"407 172 CURVE SMOOTH",
"301 172 OFFCURVE",
"239 212 OFFCURVE",
"239 320 CURVE SMOOTH",
"239 430 OFFCURVE",
"297 472 OFFCURVE",
"405 472 CURVE SMOOTH",
"471 472 OFFCURVE",
"529 459 OFFCURVE",
"590 432 CURVE",
"590 619 LINE",
"531 641 OFFCURVE",
"472 654 OFFCURVE",
"390 654 CURVE SMOOTH",
"145 654 OFFCURVE",
"20 538 OFFCURVE",
"20 320 CURVE SMOOTH",
"20 106 OFFCURVE",
"148 -10 OFFCURVE",
"392 -10 CURVE SMOOTH"
);
}
);
width = 612;
}
);
leftKerningGroup = C;
note = C;
unicode = 0043;
},
{
glyphname = Cacute;
lastChange = "2015-11-26 04:54:45 +0000";
layers = (
{
layerId = "9422835F-145C-491A-96D7-00A9C7F45A34";
name = Bold;
paths = (
{
closed = 1;
nodes = (
"473 -10 OFFCURVE",
"533 2 OFFCURVE",
"592 23 CURVE",
"592 211 LINE",
"531 184 OFFCURVE",
"472 172 OFFCURVE",
"407 172 CURVE SMOOTH",
"301 172 OFFCURVE",
"239 212 OFFCURVE",
"239 320 CURVE SMOOTH",
"239 430 OFFCURVE",
"297 472 OFFCURVE",
"405 472 CURVE SMOOTH",
"471 472 OFFCURVE",
"529 459 OFFCURVE",
"590 432 CURVE",
"590 619 LINE",
"531 641 OFFCURVE",
"472 654 OFFCURVE",
"390 654 CURVE SMOOTH",
"145 654 OFFCURVE",
"20 538 OFFCURVE",
"20 320 CURVE SMOOTH",
"20 106 OFFCURVE",
"148 -10 OFFCURVE",
"392 -10 CURVE SMOOTH"
);
},
{
closed = 1;
nodes = (
"450 688 LINE",
"551 904 LINE",
"385 904 LINE",
"293 688 LINE"
);
}
);
width = 612;
}
);
leftKerningGroup = C;
note = Cacute;
unicode = 0106;
},
{
glyphname = Ccaron;
lastChange = "2015-11-26 04:54:46 +0000";
layers = (
{
layerId = "9422835F-145C-491A-96D7-00A9C7F45A34";
name = Bold;
paths = (
{
closed = 1;
nodes = (
"473 -10 OFFCURVE",
"533 2 OFFCURVE",
"592 23 CURVE",
"592 211 LINE",
"531 184 OFFCURVE",
"472 172 OFFCURVE",
"407 172 CURVE SMOOTH",
"301 172 OFFCURVE",
"239 212 OFFCURVE",
"239 320 CURVE SMOOTH",
"239 430 OFFCURVE",
"297 472 OFFCURVE",
"405 472 CURVE SMOOTH",
"471 472 OFFCURVE",
"529 459 OFFCURVE",
"590 432 CURVE",
"590 619 LINE",
"531 641 OFFCURVE",
"472 654 OFFCURVE",
"390 654 CURVE SMOOTH",
"145 654 OFFCURVE",
"20 538 OFFCURVE",
"20 320 CURVE SMOOTH",
"20 106 OFFCURVE",
"148 -10 OFFCURVE",
"392 -10 CURVE SMOOTH"
);
},
{
closed = 1;
nodes = (
"437 687 LINE",
"602 895 LINE",
"450 895 LINE",
"374 787 LINE",
"301 895 LINE",
"145 895 LINE",
"310 687 LINE"
);
}
);
width = 612;
}
);
leftKerningGroup = C;
note = Ccaron;
unicode = 010C;
},
{
glyphname = Ccedilla;
lastChange = "2015-11-26 04:54:46 +0000";
layers = (
{
layerId = "9422835F-145C-491A-96D7-00A9C7F45A34";
name = Bold;
paths = (
{
closed = 1;
nodes = (
"473 -10 OFFCURVE",
"533 2 OFFCURVE",
"592 23 CURVE",
"592 211 LINE",
"531 184 OFFCURVE",
"472 172 OFFCURVE",
"407 172 CURVE SMOOTH",
"301 172 OFFCURVE",
"239 212 OFFCURVE",
"239 320 CURVE SMOOTH",
"239 430 OFFCURVE",
"297 472 OFFCURVE",
"405 472 CURVE SMOOTH",
"471 472 OFFCURVE",
"529 459 OFFCURVE",
"590 432 CURVE",
"590 619 LINE",
"531 641 OFFCURVE",
"472 654 OFFCURVE",
"390 654 CURVE SMOOTH",
"145 654 OFFCURVE",
"20 538 OFFCURVE",
"20 320 CURVE SMOOTH",
"20 106 OFFCURVE",
"148 -10 OFFCURVE",
"392 -10 CURVE SMOOTH"
);
},
{
closed = 1;
nodes = (
"480 -240 OFFCURVE",
"535 -200 OFFCURVE",
"535 -134 CURVE SMOOTH",
"535 -80 OFFCURVE",
"498 -39 OFFCURVE",
"425 -39 CURVE",
"439 0 LINE",
"327 0 LINE",
"298 -101 LINE",
"367 -101 LINE SMOOTH",
"394 -101 OFFCURVE",
"412 -106 OFFCURVE",
"412 -130 CURVE SMOOTH",
"412 -154 OFFCURVE",
"390 -165 OFFCURVE",
"343 -165 CURVE SMOOTH",
"323 -165 OFFCURVE",
"302 -162 OFFCURVE",
"284 -157 CURVE",
"284 -232 LINE",
"299 -236 OFFCURVE",
"345 -240 OFFCURVE",
"369 -240 CURVE SMOOTH"
);
}
);
width = 612;
}
);
leftKerningGroup = C;
note = Ccedilla;
unicode = 00C7;
},
{
glyphname = Ccircumflex;
lastChange = "2015-11-26 04:54:46 +0000";
layers = (
{
layerId = "9422835F-145C-491A-96D7-00A9C7F45A34";
name = Bold;
paths = (
{
closed = 1;
nodes = (
"473 -10 OFFCURVE",
"533 2 OFFCURVE",
"592 23 CURVE",
"592 211 LINE",
"531 184 OFFCURVE",
"472 172 OFFCURVE",
"407 172 CURVE SMOOTH",
"301 172 OFFCURVE",
"239 212 OFFCURVE",
"239 320 CURVE SMOOTH",
"239 430 OFFCURVE",
"297 472 OFFCURVE",
"405 472 CURVE SMOOTH",
"471 472 OFFCURVE",
"529 459 OFFCURVE",
"590 432 CURVE",
"590 619 LINE",
"531 641 OFFCURVE",
"472 654 OFFCURVE",
"390 654 CURVE SMOOTH",
"145 654 OFFCURVE",
"20 538 OFFCURVE",
"20 320 CURVE SMOOTH",
"20 106 OFFCURVE",
"148 -10 OFFCURVE",
"392 -10 CURVE SMOOTH"
);
},
{
closed = 1;
nodes = (
"274 687 LINE",
"347 795 LINE",
"423 687 LINE",
"575 687 LINE",
"410 895 LINE",
"283 895 LINE",
"118 687 LINE"
);
}
);
width = 612;
}
);
leftKerningGroup = C;
note = Ccircumflex;
unicode = 0108;
},
{
glyphname = Cdotaccent;
lastChange = "2015-11-26 04:54:46 +0000";
layers = (
{
layerId = "9422835F-145C-491A-96D7-00A9C7F45A34";
name = Bold;
paths = (
{
closed = 1;
nodes = (
"473 -10 OFFCURVE",
"533 2 OFFCURVE",
"592 23 CURVE",
"592 211 LINE",
"531 184 OFFCURVE",
"472 172 OFFCURVE",
"407 172 CURVE SMOOTH",
"301 172 OFFCURVE",
"239 212 OFFCURVE",
"239 320 CURVE SMOOTH",
"239 430 OFFCURVE",
"297 472 OFFCURVE",
"405 472 CURVE SMOOTH",
"471 472 OFFCURVE",
"529 459 OFFCURVE",
"590 432 CURVE",
"590 619 LINE",
"531 641 OFFCURVE",
"472 654 OFFCURVE",
"390 654 CURVE SMOOTH",
"145 654 OFFCURVE",
"20 538 OFFCURVE",
"20 320 CURVE SMOOTH",
"20 106 OFFCURVE",
"148 -10 OFFCURVE",
"392 -10 CURVE SMOOTH"
);
},
{
closed = 1;
nodes = (
"435 716 LINE",
"435 847 LINE",
"292 847 LINE",
"292 716 LINE"
);
}
);
width = 612;
}
);
leftKerningGroup = C;
note = Cdotaccent;
unicode = 010A;
},
{
glyphname = D;
lastChange = "2015-11-26 04:54:46 +0000";
layers = (
{
layerId = "9422835F-145C-491A-96D7-00A9C7F45A34";
name = Bold;
paths = (
{
closed = 1;
nodes = (
"337 0 LINE SMOOTH",
"541 0 OFFCURVE",
"660 95 OFFCURVE",
"660 318 CURVE SMOOTH",
"660 553 OFFCURVE",
"538 644 OFFCURVE",
"337 644 CURVE SMOOTH",
"40 644 LINE",
"40 0 LINE"
);
},
{
closed = 1;
nodes = (
"255 473 LINE",
"311 473 LINE SMOOTH",
"399 473 OFFCURVE",
"441 445 OFFCURVE",
"441 318 CURVE SMOOTH",
"441 190 OFFCURVE",
"393 164 OFFCURVE",
"311 164 CURVE SMOOTH",
"255 164 LINE"
);
}
);
width = 680;
}
);
note = D;
rightKerningGroup = D;
unicode = 0044;
},
{
glyphname = Eth;
lastChange = "2015-11-26 04:54:46 +0000";
layers = (
{
layerId = "9422835F-145C-491A-96D7-00A9C7F45A34";
name = Bold;
paths = (
{
closed = 1;
nodes = (
"378 0 LINE SMOOTH",
"582 0 OFFCURVE",
"702 95 OFFCURVE",
"702 318 CURVE SMOOTH",
"702 553 OFFCURVE",
"579 644 OFFCURVE",
"378 644 CURVE SMOOTH",
"81 644 LINE",
"81 386 LINE",
"0 386 LINE",
"0 244 LINE",
"81 244 LINE",
"81 0 LINE"
);
},
{
closed = 1;
nodes = (
"296 244 LINE",
"378 244 LINE",
"378 386 LINE",
"296 386 LINE",
"296 473 LINE",
"352 473 LINE SMOOTH",
"441 473 OFFCURVE",
"483 445 OFFCURVE",
"483 318 CURVE SMOOTH",
"483 190 OFFCURVE",
"434 164 OFFCURVE",
"352 164 CURVE SMOOTH",
"296 164 LINE"
);
}
);
width = 722;
}
);
note = Eth;
rightKerningGroup = D;
unicode = 00D0;
},
{
glyphname = Dcaron;
lastChange = "2015-11-26 04:54:45 +0000";
layers = (
{
layerId = "9422835F-145C-491A-96D7-00A9C7F45A34";
name = Bold;
paths = (
{
closed = 1;
nodes = (
"337 0 LINE SMOOTH",
"541 0 OFFCURVE",
"660 95 OFFCURVE",
"660 318 CURVE SMOOTH",
"660 553 OFFCURVE",
"538 644 OFFCURVE",
"337 644 CURVE SMOOTH",
"40 644 LINE",
"40 0 LINE"
);
},
{
closed = 1;
nodes = (
"255 473 LINE",
"311 473 LINE SMOOTH",
"399 473 OFFCURVE",
"441 445 OFFCURVE",
"441 318 CURVE SMOOTH",
"441 190 OFFCURVE",
"393 164 OFFCURVE",
"311 164 CURVE SMOOTH",
"255 164 LINE"
);
},
{
closed = 1;
nodes = (
"364 687 LINE",
"529 895 LINE",
"377 895 LINE",
"301 787 LINE",
"228 895 LINE",
"72 895 LINE",
"237 687 LINE"
);
}
);
width = 680;
}
);
note = Dcaron;
rightKerningGroup = D;
unicode = 010E;
},
{
glyphname = Dcroat;
lastChange = "2015-11-26 04:54:46 +0000";
layers = (
{
layerId = "9422835F-145C-491A-96D7-00A9C7F45A34";
name = Bold;
paths = (
{
closed = 1;
nodes = (
"368 0 LINE SMOOTH",
"572 0 OFFCURVE",
"692 95 OFFCURVE",
"692 318 CURVE SMOOTH",
"692 553 OFFCURVE",
"569 644 OFFCURVE",
"368 644 CURVE SMOOTH",
"71 644 LINE",
"71 386 LINE",
"-10 386 LINE",
"-10 244 LINE",
"71 244 LINE",
"71 0 LINE"
);
},
{
closed = 1;
nodes = (
"286 244 LINE",
"368 244 LINE",
"368 386 LINE",
"286 386 LINE",
"286 473 LINE",
"342 473 LINE SMOOTH",
"431 473 OFFCURVE",
"473 445 OFFCURVE",
"473 318 CURVE SMOOTH",
"473 190 OFFCURVE",
"424 164 OFFCURVE",
"342 164 CURVE SMOOTH",
"286 164 LINE"
);
}
);
width = 712;
}
);
note = Dcroat;
rightKerningGroup = D;
unicode = 0110;
},
{
glyphname = Ddotbelow;
lastChange = "2015-11-26 04:56:13 +0000";
layers = (
{
layerId = "9422835F-145C-491A-96D7-00A9C7F45A34";
name = Bold;
paths = (
{
closed = 1;
nodes = (
"337 0 LINE SMOOTH",
"541 0 OFFCURVE",
"660 95 OFFCURVE",
"660 318 CURVE SMOOTH",
"660 553 OFFCURVE",
"538 644 OFFCURVE",
"337 644 CURVE SMOOTH",
"40 644 LINE",
"40 0 LINE"
);
},
{
closed = 1;
nodes = (
"255 473 LINE",
"311 473 LINE SMOOTH",
"399 473 OFFCURVE",
"441 445 OFFCURVE",
"441 318 CURVE SMOOTH",
"441 190 OFFCURVE",
"393 164 OFFCURVE",
"311 164 CURVE SMOOTH",
"255 164 LINE"
);
},
{
closed = 1;
nodes = (
"365 -205 LINE",
"365 -75 LINE",
"222 -75 LINE",
"222 -205 LINE"
);
}
);
width = 680;
}
);
note = Ddotbelow;
rightKerningGroup = D;
unicode = 1E0C;
},
{
glyphname = Dlinebelow;
lastChange = "2015-11-26 04:56:17 +0000";
layers = (
{
layerId = "9422835F-145C-491A-96D7-00A9C7F45A34";
name = Bold;
paths = (
{
closed = 1;
nodes = (
"337 0 LINE SMOOTH",
"541 0 OFFCURVE",
"660 95 OFFCURVE",
"660 318 CURVE SMOOTH",
"660 553 OFFCURVE",
"538 644 OFFCURVE",
"337 644 CURVE SMOOTH",
"40 644 LINE",
"40 0 LINE"
);
},
{
closed = 1;
nodes = (
"255 473 LINE",
"311 473 LINE SMOOTH",
"399 473 OFFCURVE",
"441 445 OFFCURVE",
"441 318 CURVE SMOOTH",
"441 190 OFFCURVE",
"393 164 OFFCURVE",
"311 164 CURVE SMOOTH",
"255 164 LINE"
);
},
{
closed = 1;
nodes = (
"466 -176 LINE",
"466 -50 LINE",
"127 -50 LINE",
"127 -176 LINE"
);
}
);
width = 680;
}
);
note = Dlinebelow;
rightKerningGroup = D;
unicode = 1E0E;
},
{
glyphname = E;
lastChange = "2015-11-26 04:56:31 +0000";
layers = (
{
layerId = "9422835F-145C-491A-96D7-00A9C7F45A34";
name = Bold;
paths = (
{
closed = 1;
nodes = (
"541 0 LINE",
"541 159 LINE",
"255 159 LINE",
"255 240 LINE",
"504 240 LINE",
"504 403 LINE",
"255 403 LINE",
"255 485 LINE",
"541 485 LINE",
"541 644 LINE",
"40 644 LINE",
"40 0 LINE"
);
}
);
width = 556;
}
);
note = E;
unicode = 0045;
},
{
glyphname = Eacute;
lastChange = "2015-11-26 04:56:31 +0000";
layers = (
{
layerId = "9422835F-145C-491A-96D7-00A9C7F45A34";
name = Bold;
paths = (
{
closed = 1;
nodes = (
"541 0 LINE",
"541 159 LINE",
"255 159 LINE",
"255 240 LINE",
"504 240 LINE",
"504 403 LINE",
"255 403 LINE",
"255 485 LINE",
"541 485 LINE",
"541 644 LINE",
"40 644 LINE",
"40 0 LINE"
);
},
{
closed = 1;
nodes = (
"346 688 LINE",
"447 904 LINE",
"281 904 LINE",
"189 688 LINE"
);
}
);
width = 556;
}
);
note = Eacute;
unicode = 00C9;
},
{
glyphname = Ebreve;
lastChange = "2015-11-26 04:54:47 +0000";
layers = (
{
layerId = "9422835F-145C-491A-96D7-00A9C7F45A34";
name = Bold;
paths = (
{
closed = 1;
nodes = (
"541 0 LINE",
"541 159 LINE",
"255 159 LINE",
"255 240 LINE",
"504 240 LINE",
"504 403 LINE",
"255 403 LINE",
"255 485 LINE",
"541 485 LINE",
"541 644 LINE",
"40 644 LINE",
"40 0 LINE"
);
},
{
closed = 1;
nodes = (
"416 688 OFFCURVE",
"498 760 OFFCURVE",
"498 892 CURVE",
"359 892 LINE",
"359 845 OFFCURVE",
"343 806 OFFCURVE",
"292 806 CURVE SMOOTH",
"242 806 OFFCURVE",
"226 845 OFFCURVE",
"226 892 CURVE",
"88 892 LINE",
"88 760 OFFCURVE",
"169 688 OFFCURVE",
"292 688 CURVE SMOOTH"
);
}
);
width = 556;
}
);
note = Ebreve;
unicode = 0114;
},
{
glyphname = Ecaron;
lastChange = "2015-11-26 04:56:41 +0000";
layers = (
{
layerId = "9422835F-145C-491A-96D7-00A9C7F45A34";
name = Bold;
paths = (
{
closed = 1;
nodes = (
"541 0 LINE",
"541 159 LINE",
"255 159 LINE",
"255 240 LINE",
"504 240 LINE",
"504 403 LINE",
"255 403 LINE",
"255 485 LINE",
"541 485 LINE",
"541 644 LINE",
"40 644 LINE",
"40 0 LINE"
);
},
{
closed = 1;
nodes = (
"359 687 LINE",
"524 895 LINE",
"372 895 LINE",
"296 787 LINE",
"223 895 LINE",
"67 895 LINE",
"232 687 LINE"
);
}
);
width = 556;
}
);
note = Ecaron;
unicode = 011A;
},
{
glyphname = Ecircumflex;
lastChange = "2015-11-26 04:57:08 +0000";
layers = (
{
layerId = "9422835F-145C-491A-96D7-00A9C7F45A34";
name = Bold;
paths = (
{
closed = 1;
nodes = (
"541 0 LINE",
"541 159 LINE",
"255 159 LINE",
"255 240 LINE",
"504 240 LINE",
"504 403 LINE",
"255 403 LINE",
"255 485 LINE",
"541 485 LINE",
"541 644 LINE",
"40 644 LINE",
"40 0 LINE"
);
},
{
closed = 1;
nodes = (
"219 688 LINE",
"292 796 LINE",
"368 688 LINE",
"520 688 LINE",
"355 896 LINE",
"228 896 LINE",
"63 688 LINE"
);
}
);
width = 555;
}
);
note = Ecircumflex;
unicode = 00CA;
},
{
glyphname = Ecircumflexacute;
lastChange = "2015-11-26 04:56:55 +0000";
layers = (
{
layerId = "9422835F-145C-491A-96D7-00A9C7F45A34";
name = Bold;
paths = (
{
closed = 1;
nodes = (
"541 0 LINE",
"541 159 LINE",
"255 159 LINE",
"255 240 LINE",
"504 240 LINE",
"504 403 LINE",
"255 403 LINE",
"255 485 LINE",
"541 485 LINE",
"541 644 LINE",
"40 644 LINE",
"40 0 LINE"
);
},
{
closed = 1;
nodes = (
"226 688 LINE",
"283 765 LINE",
"342 688 LINE",
"511 688 LINE",
"361 848 LINE",
"205 848 LINE",
"55 688 LINE"
);
},
{
closed = 1;
nodes = (
"566 816 LINE",
"646 980 LINE",
"489 980 LINE",
"416 816 LINE"
);
}
);
width = 556;
}
);
note = Ecircumflexacute;
unicode = 1EBE;
},
{
glyphname = Ecircumflexdotbelow;
lastChange = "2015-11-26 04:57:08 +0000";
layers = (
{
layerId = "9422835F-145C-491A-96D7-00A9C7F45A34";
name = Bold;
paths = (
{
closed = 1;
nodes = (
"541 0 LINE",
"541 159 LINE",
"255 159 LINE",
"255 240 LINE",
"504 240 LINE",
"504 403 LINE",
"255 403 LINE",
"255 485 LINE",
"541 485 LINE",
"541 644 LINE",
"40 644 LINE",
"40 0 LINE"
);
},
{
closed = 1;
nodes = (
"357 -176 LINE",
"357 -46 LINE",
"214 -46 LINE",
"214 -176 LINE"
);
},
{
closed = 1;
nodes = (
"213 688 LINE",
"286 796 LINE",
"362 688 LINE",
"514 688 LINE",
"349 896 LINE",
"222 896 LINE",
"57 688 LINE"
);
}
);
width = 553;
}
);
note = Ecircumflexdotbelow;
unicode = 1EC6;
},
{
glyphname = Ecircumflexgrave;
lastChange = "2015-11-26 04:57:38 +0000";
layers = (
{
layerId = "9422835F-145C-491A-96D7-00A9C7F45A34";
name = Bold;
paths = (
{
closed = 1;
nodes = (
"541 0 LINE",
"541 159 LINE",
"255 159 LINE",
"255 240 LINE",
"504 240 LINE",
"504 403 LINE",
"255 403 LINE",
"255 485 LINE",
"541 485 LINE",
"541 644 LINE",
"40 644 LINE",
"40 0 LINE"
);
},
{
closed = 1;
nodes = (
"229 688 LINE",
"288 765 LINE",
"346 688 LINE",
"517 688 LINE",
"367 848 LINE",
"210 848 LINE",
"60 688 LINE"
);
},
{
closed = 1;
nodes = (
"147 816 LINE",
"74 980 LINE",
"-84 980 LINE",
"-3 816 LINE"
);
}
);
width = 556;
}
);
note = Ecircumflexgrave;
unicode = 1EC0;
},
{
glyphname = Ecircumflexhookabove;
lastChange = "2015-11-26 04:57:08 +0000";
layers = (
{
layerId = "9422835F-145C-491A-96D7-00A9C7F45A34";
name = Bold;
paths = (
{
closed = 1;
nodes = (
"541 0 LINE",
"541 159 LINE",
"255 159 LINE",
"255 240 LINE",
"504 240 LINE",
"504 403 LINE",
"255 403 LINE",
"255 485 LINE",
"541 485 LINE",
"541 644 LINE",
"40 644 LINE",
"40 0 LINE"
);
},
{
closed = 1;
nodes = (
"225 688 LINE",
"283 765 LINE",
"342 688 LINE",
"511 688 LINE",
"361 848 LINE",
"204 848 LINE",
"54 688 LINE"
);
},
{
closed = 1;
nodes = (
"567 793 LINE",
"567 825 LINE",
"616 834 OFFCURVE",
"638 866 OFFCURVE",
"638 912 CURVE SMOOTH",
"638 964 OFFCURVE",
"596 1001 OFFCURVE",
"514 1001 CURVE SMOOTH",
"469 1001 OFFCURVE",
"432 996 OFFCURVE",
"406 989 CURVE",
"406 907 LINE",
"420 911 OFFCURVE",
"438 915 OFFCURVE",
"456 915 CURVE SMOOTH",
"480 915 OFFCURVE",
"494 911 OFFCURVE",
"494 897 CURVE SMOOTH",
"494 882 OFFCURVE",
"481 871 OFFCURVE",
"426 870 CURVE",
"426 793 LINE"
);
}
);
width = 556;
}
);
note = Ecircumflexhookabove;
unicode = 1EC2;
},
{
glyphname = Ecircumflextilde;
lastChange = "2015-11-26 04:57:08 +0000";
layers = (
{
layerId = "9422835F-145C-491A-96D7-00A9C7F45A34";
name = Bold;
paths = (
{
closed = 1;
nodes = (
"541 0 LINE",
"541 159 LINE",
"255 159 LINE",
"255 240 LINE",
"504 240 LINE",
"504 403 LINE",
"255 403 LINE",
"255 485 LINE",
"541 485 LINE",
"541 644 LINE",
"40 644 LINE",
"40 0 LINE"
);
},
{
closed = 1;
nodes = (
"230 688 LINE",
"288 765 LINE",
"347 688 LINE",
"516 688 LINE",
"366 848 LINE",
"209 848 LINE",
"59 688 LINE"
);
},
{
closed = 1;
nodes = (
"419 858 OFFCURVE",
"453 873 OFFCURVE",
"466 890 CURVE",
"466 996 LINE",
"450 973 OFFCURVE",
"418 957 OFFCURVE",
"377 957 CURVE SMOOTH",
"317 957 OFFCURVE",
"266 998 OFFCURVE",
"201 998 CURVE SMOOTH",
"163 998 OFFCURVE",
"127 984 OFFCURVE",
"109 966 CURVE",
"109 861 LINE",
"132 885 OFFCURVE",
"163 899 OFFCURVE",
"204 899 CURVE SMOOTH",
"258 899 OFFCURVE",
"317 858 OFFCURVE",
"380 858 CURVE SMOOTH"
);
}
);
width = 556;
}
);
note = Ecircumflextilde;
unicode = 1EC4;
},
{
glyphname = Edieresis;
lastChange = "2015-11-26 04:57:08 +0000";
layers = (
{
layerId = "9422835F-145C-491A-96D7-00A9C7F45A34";
name = Bold;
paths = (
{
closed = 1;
nodes = (
"541 0 LINE",
"541 159 LINE",
"255 159 LINE",
"255 240 LINE",
"504 240 LINE",
"504 403 LINE",
"255 403 LINE",
"255 485 LINE",
"541 485 LINE",
"541 644 LINE",
"40 644 LINE",
"40 0 LINE"
);
},
{
closed = 1;
nodes = (
"254 716 LINE",
"254 847 LINE",
"110 847 LINE",
"110 716 LINE"
);
},
{
closed = 1;
nodes = (
"479 716 LINE",
"479 847 LINE",
"336 847 LINE",
"336 716 LINE"
);
}
);
width = 556;
}
);
note = Edieresis;
unicode = 00CB;
},
{
glyphname = Edotaccent;
lastChange = "2015-11-26 04:57:08 +0000";
layers = (
{
layerId = "9422835F-145C-491A-96D7-00A9C7F45A34";
name = Bold;
paths = (
{
closed = 1;
nodes = (
"541 0 LINE",
"541 159 LINE",
"255 159 LINE",
"255 240 LINE",
"504 240 LINE",
"504 403 LINE",
"255 403 LINE",
"255 485 LINE",
"541 485 LINE",
"541 644 LINE",
"40 644 LINE",
"40 0 LINE"
);
},
{
closed = 1;
nodes = (
"358 716 LINE",
"358 847 LINE",
"215 847 LINE",
"215 716 LINE"
);
}
);
width = 556;
}
);
note = Edotaccent;
unicode = 0116;
},
{
glyphname = Edotbelow;
lastChange = "2015-11-26 04:57:08 +0000";
layers = (
{
layerId = "9422835F-145C-491A-96D7-00A9C7F45A34";
name = Bold;
paths = (
{
closed = 1;
nodes = (
"541 0 LINE",
"541 159 LINE",
"255 159 LINE",
"255 240 LINE",
"504 240 LINE",
"504 403 LINE",
"255 403 LINE",
"255 485 LINE",
"541 485 LINE",
"541 644 LINE",
"40 644 LINE",
"40 0 LINE"
);
},
{
closed = 1;
nodes = (
"351 -176 LINE",
"351 -46 LINE",
"208 -46 LINE",
"208 -176 LINE"
);
}
);
width = 556;
}
);
note = Edotbelow;
unicode = 1EB8;
},
{
glyphname = Egrave;
lastChange = "2015-11-26 04:57:08 +0000";
layers = (
{
layerId = "9422835F-145C-491A-96D7-00A9C7F45A34";
name = Bold;
paths = (
{
closed = 1;
nodes = (
"541 0 LINE",
"541 159 LINE",
"255 159 LINE",
"255 240 LINE",
"504 240 LINE",
"504 403 LINE",
"255 403 LINE",
"255 485 LINE",
"541 485 LINE",
"541 644 LINE",
"40 644 LINE",
"40 0 LINE"
);
},
{
closed = 1;
nodes = (
"387 688 LINE",
"295 904 LINE",
"128 904 LINE",
"229 688 LINE"
);
}
);
width = 556;
}
);
note = Egrave;
unicode = 00C8;
},
{
glyphname = Ehookabove;
lastChange = "2015-11-26 04:57:08 +0000";
layers = (
{
layerId = "9422835F-145C-491A-96D7-00A9C7F45A34";
name = Bold;
paths = (
{
closed = 1;
nodes = (
"541 0 LINE",
"541 159 LINE",
"255 159 LINE",
"255 240 LINE",
"504 240 LINE",
"504 403 LINE",
"255 403 LINE",
"255 485 LINE",
"541 485 LINE",
"541 644 LINE",
"40 644 LINE",
"40 0 LINE"
);
},
{
closed = 1;
nodes = (
"367 688 LINE",
"367 726 LINE",
"423 743 OFFCURVE",
"450 769 OFFCURVE",
"450 828 CURVE SMOOTH",
"450 888 OFFCURVE",
"398 932 OFFCURVE",
"304 932 CURVE SMOOTH",
"251 932 OFFCURVE",
"211 927 OFFCURVE",
"181 918 CURVE",
"181 832 LINE",
"197 837 OFFCURVE",
"219 841 OFFCURVE",
"239 841 CURVE SMOOTH",
"275 841 OFFCURVE",
"294 832 OFFCURVE",
"294 810 CURVE SMOOTH",
"294 788 OFFCURVE",
"274 773 OFFCURVE",
"207 769 CURVE",
"207 688 LINE"
);
}
);
width = 556;
}
);
note = Ehookabove;
unicode = 1EBA;
},
{
glyphname = Emacron;
lastChange = "2015-11-26 04:57:08 +0000";
layers = (
{
layerId = "9422835F-145C-491A-96D7-00A9C7F45A34";
name = Bold;
paths = (
{
closed = 1;
nodes = (
"541 0 LINE",
"541 159 LINE",
"255 159 LINE",
"255 240 LINE",
"504 240 LINE",
"504 403 LINE",
"255 403 LINE",
"255 485 LINE",
"541 485 LINE",
"541 644 LINE",
"40 644 LINE",
"40 0 LINE"
);
},
{
closed = 1;
nodes = (
"447 725 LINE",
"447 851 LINE",
"108 851 LINE",
"108 725 LINE"
);
}
);
width = 556;
}
);
note = Emacron;
unicode = 0112;
},
{
glyphname = Eogonek;
lastChange = "2015-11-26 04:57:08 +0000";
layers = (
{
layerId = "9422835F-145C-491A-96D7-00A9C7F45A34";
name = Bold;
paths = (
{
closed = 1;
nodes = (
"541 0 LINE",
"541 159 LINE",
"255 159 LINE",
"255 240 LINE",
"504 240 LINE",
"504 403 LINE",
"255 403 LINE",
"255 485 LINE",
"541 485 LINE",
"541 644 LINE",
"40 644 LINE",
"40 0 LINE"
);
},
{
closed = 1;
nodes = (
"468 -220 OFFCURVE",
"512 -211 OFFCURVE",
"533 -203 CURVE",
"533 -107 LINE",
"521 -114 OFFCURVE",
"500 -118 OFFCURVE",
"483 -118 CURVE SMOOTH",
"454 -118 OFFCURVE",
"438 -108 OFFCURVE",
"438 -83 CURVE SMOOTH",
"438 -51 OFFCURVE",
"460 -24 OFFCURVE",
"491 0 CURVE",
"357 0 LINE",
"314 -26 OFFCURVE",
"282 -68 OFFCURVE",
"282 -120 CURVE SMOOTH",
"282 -189 OFFCURVE",
"339 -220 OFFCURVE",
"422 -220 CURVE SMOOTH"
);
}
);
width = 556;
}
);
note = Eogonek;
unicode = 0118;
},
{
glyphname = Etilde;
lastChange = "2015-11-26 04:57:08 +0000";
layers = (
{
layerId = "9422835F-145C-491A-96D7-00A9C7F45A34";
name = Bold;
paths = (
{
closed = 1;
nodes = (
"541 0 LINE",
"541 159 LINE",
"255 159 LINE",
"255 240 LINE",
"504 240 LINE",
"504 403 LINE",
"255 403 LINE",
"255 485 LINE",
"541 485 LINE",
"541 644 LINE",
"40 644 LINE",
"40 0 LINE"
);
},
{
closed = 1;
nodes = (
"434 694 OFFCURVE",
"471 710 OFFCURVE",
"484 728 CURVE",
"484 858 LINE",
"468 835 OFFCURVE",
"434 817 OFFCURVE",
"390 817 CURVE SMOOTH",
"324 817 OFFCURVE",
"269 860 OFFCURVE",
"199 860 CURVE SMOOTH",
"159 860 OFFCURVE",
"120 844 OFFCURVE",
"101 826 CURVE",
"101 697 LINE",
"125 721 OFFCURVE",
"158 737 OFFCURVE",
"202 737 CURVE SMOOTH",
"260 737 OFFCURVE",
"324 694 OFFCURVE",
"393 694 CURVE SMOOTH"
);
}
);
width = 556;
}
);
note = Etilde;
unicode = 1EBC;
},
{
glyphname = F;
lastChange = "2015-11-26 04:54:42 +0000";
layers = (
{
layerId = "9422835F-145C-491A-96D7-00A9C7F45A34";
name = Bold;
paths = (
{
closed = 1;
nodes = (
"255 0 LINE",
"255 241 LINE",
"501 241 LINE",
"501 402 LINE",
"255 402 LINE",
"255 487 LINE",
"539 487 LINE",
"539 644 LINE",
"40 644 LINE",
"40 0 LINE"
);
}
);
width = 539;
}
);
note = F;
unicode = 0046;
},
{
glyphname = G;
lastChange = "2015-11-26 04:54:42 +0000";
layers = (
{
layerId = "9422835F-145C-491A-96D7-00A9C7F45A34";
name = Bold;
paths = (
{
closed = 1;
nodes = (
"502 -10 OFFCURVE",
"585 18 OFFCURVE",
"637 51 CURVE",
"637 379 LINE",
"341 379 LINE",
"341 248 LINE",
"458 248 LINE",
"458 182 LINE",
"435 175 OFFCURVE",
"411 172 OFFCURVE",
"382 172 CURVE SMOOTH",
"288 172 OFFCURVE",
"239 212 OFFCURVE",
"239 319 CURVE SMOOTH",
"239 430 OFFCURVE",
"304 472 OFFCURVE",
"413 472 CURVE SMOOTH",
"478 472 OFFCURVE",
"541 465 OFFCURVE",
"602 442 CURVE",
"602 625 LINE",
"542 645 OFFCURVE",
"480 654 OFFCURVE",
"398 654 CURVE SMOOTH",
"152 654 OFFCURVE",
"20 536 OFFCURVE",
"20 319 CURVE SMOOTH",
"20 104 OFFCURVE",
"147 -10 OFFCURVE",
"383 -10 CURVE SMOOTH"
);
}
);
width = 657;
}
);
leftKerningGroup = C;
note = G;
unicode = 0047;
},
{
glyphname = Gbreve;
lastChange = "2015-11-26 04:54:46 +0000";
layers = (
{
layerId = "9422835F-145C-491A-96D7-00A9C7F45A34";
name = Bold;
paths = (
{
closed = 1;
nodes = (
"502 -10 OFFCURVE",
"585 18 OFFCURVE",
"637 51 CURVE",
"637 379 LINE",
"341 379 LINE",
"341 248 LINE",
"458 248 LINE",
"458 182 LINE",
"435 175 OFFCURVE",
"411 172 OFFCURVE",
"382 172 CURVE SMOOTH",
"288 172 OFFCURVE",
"239 212 OFFCURVE",
"239 319 CURVE SMOOTH",
"239 430 OFFCURVE",
"304 472 OFFCURVE",
"413 472 CURVE SMOOTH",
"478 472 OFFCURVE",
"541 465 OFFCURVE",
"602 442 CURVE",
"602 625 LINE",
"542 645 OFFCURVE",
"480 654 OFFCURVE",
"398 654 CURVE SMOOTH",
"152 654 OFFCURVE",
"20 536 OFFCURVE",
"20 319 CURVE SMOOTH",
"20 104 OFFCURVE",
"147 -10 OFFCURVE",
"383 -10 CURVE SMOOTH"
);
},
{
closed = 1;
nodes = (
"505 688 OFFCURVE",
"587 760 OFFCURVE",
"587 892 CURVE",
"448 892 LINE",
"448 845 OFFCURVE",
"432 806 OFFCURVE",
"381 806 CURVE SMOOTH",
"331 806 OFFCURVE",
"315 845 OFFCURVE",
"315 892 CURVE",
"177 892 LINE",
"177 760 OFFCURVE",
"258 688 OFFCURVE",
"381 688 CURVE SMOOTH"
);
}
);
width = 657;
}
);
leftKerningGroup = C;
note = Gbreve;
unicode = 011E;
},
{
glyphname = Gcaron;
lastChange = "2015-11-26 04:54:45 +0000";
layers = (
{
layerId = "9422835F-145C-491A-96D7-00A9C7F45A34";
name = Bold;
paths = (
{
closed = 1;
nodes = (
"502 -10 OFFCURVE",
"585 18 OFFCURVE",
"637 51 CURVE",
"637 379 LINE",
"341 379 LINE",
"341 248 LINE",
"458 248 LINE",
"458 182 LINE",
"435 175 OFFCURVE",
"411 172 OFFCURVE",
"382 172 CURVE SMOOTH",
"288 172 OFFCURVE",
"239 212 OFFCURVE",
"239 319 CURVE SMOOTH",
"239 430 OFFCURVE",
"304 472 OFFCURVE",
"413 472 CURVE SMOOTH",
"478 472 OFFCURVE",
"541 465 OFFCURVE",
"602 442 CURVE",
"602 625 LINE",
"542 645 OFFCURVE",
"480 654 OFFCURVE",
"398 654 CURVE SMOOTH",
"152 654 OFFCURVE",
"20 536 OFFCURVE",
"20 319 CURVE SMOOTH",
"20 104 OFFCURVE",
"147 -10 OFFCURVE",
"383 -10 CURVE SMOOTH"
);
},
{
closed = 1;
nodes = (
"440 688 LINE",
"605 896 LINE",
"453 896 LINE",
"377 788 LINE",
"304 896 LINE",
"148 896 LINE",
"313 688 LINE"
);
}
);
width = 657;
}
);
leftKerningGroup = C;
note = Gcaron;
unicode = 01E6;
},
{
glyphname = Gcircumflex;
lastChange = "2015-11-26 04:54:46 +0000";
layers = (
{
layerId = "9422835F-145C-491A-96D7-00A9C7F45A34";
name = Bold;
paths = (
{
closed = 1;
nodes = (
"502 -10 OFFCURVE",
"585 18 OFFCURVE",
"637 51 CURVE",
"637 379 LINE",
"341 379 LINE",
"341 248 LINE",
"458 248 LINE",
"458 182 LINE",
"435 175 OFFCURVE",
"411 172 OFFCURVE",
"382 172 CURVE SMOOTH",
"288 172 OFFCURVE",
"239 212 OFFCURVE",
"239 319 CURVE SMOOTH",
"239 430 OFFCURVE",
"304 472 OFFCURVE",
"413 472 CURVE SMOOTH",
"478 472 OFFCURVE",
"541 465 OFFCURVE",
"602 442 CURVE",
"602 625 LINE",
"542 645 OFFCURVE",
"480 654 OFFCURVE",
"398 654 CURVE SMOOTH",
"152 654 OFFCURVE",
"20 536 OFFCURVE",
"20 319 CURVE SMOOTH",
"20 104 OFFCURVE",
"147 -10 OFFCURVE",
"383 -10 CURVE SMOOTH"
);
},
{
closed = 1;
nodes = (
"293 687 LINE",
"366 795 LINE",
"442 687 LINE",
"594 687 LINE",
"429 895 LINE",
"302 895 LINE",
"137 687 LINE"
);
}
);
width = 657;
}
);
leftKerningGroup = C;
note = Gcircumflex;
unicode = 011C;
},
{
glyphname = Gcommaaccent;
lastChange = "2015-11-26 04:54:45 +0000";
layers = (
{
layerId = "9422835F-145C-491A-96D7-00A9C7F45A34";
name = Bold;
paths = (
{
closed = 1;
nodes = (
"502 -10 OFFCURVE",
"585 18 OFFCURVE",
"637 51 CURVE",
"637 379 LINE",
"341 379 LINE",
"341 248 LINE",
"458 248 LINE",
"458 182 LINE",
"435 175 OFFCURVE",
"411 172 OFFCURVE",
"382 172 CURVE SMOOTH",
"288 172 OFFCURVE",
"239 212 OFFCURVE",
"239 319 CURVE SMOOTH",
"239 430 OFFCURVE",
"304 472 OFFCURVE",
"413 472 CURVE SMOOTH",
"478 472 OFFCURVE",
"541 465 OFFCURVE",
"602 442 CURVE",
"602 625 LINE",
"542 645 OFFCURVE",
"480 654 OFFCURVE",
"398 654 CURVE SMOOTH",
"152 654 OFFCURVE",
"20 536 OFFCURVE",
"20 319 CURVE SMOOTH",
"20 104 OFFCURVE",
"147 -10 OFFCURVE",
"383 -10 CURVE SMOOTH"
);
},
{
closed = 1;
nodes = (
"416 -274 LINE",
"477 -37 LINE",
"311 -37 LINE",
"276 -274 LINE"
);
}
);
width = 657;
}
);
leftKerningGroup = C;
note = Gcommaaccent;
unicode = 0122;
},
{
glyphname = Gdotaccent;
lastChange = "2015-11-26 04:54:45 +0000";
layers = (
{
layerId = "9422835F-145C-491A-96D7-00A9C7F45A34";
name = Bold;
paths = (
{
closed = 1;
nodes = (
"502 -10 OFFCURVE",
"585 18 OFFCURVE",
"637 51 CURVE",
"637 379 LINE",
"341 379 LINE",
"341 248 LINE",
"458 248 LINE",
"458 182 LINE",
"435 175 OFFCURVE",
"411 172 OFFCURVE",
"382 172 CURVE SMOOTH",
"288 172 OFFCURVE",
"239 212 OFFCURVE",
"239 319 CURVE SMOOTH",
"239 430 OFFCURVE",
"304 472 OFFCURVE",
"413 472 CURVE SMOOTH",
"478 472 OFFCURVE",
"541 465 OFFCURVE",
"602 442 CURVE",
"602 625 LINE",
"542 645 OFFCURVE",
"480 654 OFFCURVE",
"398 654 CURVE SMOOTH",
"152 654 OFFCURVE",
"20 536 OFFCURVE",
"20 319 CURVE SMOOTH",
"20 104 OFFCURVE",
"147 -10 OFFCURVE",
"383 -10 CURVE SMOOTH"
);
},
{
closed = 1;
nodes = (
"464 716 LINE",
"464 847 LINE",
"321 847 LINE",
"321 716 LINE"
);
}
);
width = 657;
}
);
leftKerningGroup = C;
note = Gdotaccent;
unicode = 0120;
},
{
glyphname = Gmacron;
lastChange = "2015-11-26 04:54:45 +0000";
layers = (
{
layerId = "9422835F-145C-491A-96D7-00A9C7F45A34";
name = Bold;
paths = (
{
closed = 1;
nodes = (
"502 -10 OFFCURVE",
"585 18 OFFCURVE",
"637 51 CURVE",
"637 379 LINE",
"341 379 LINE",
"341 248 LINE",
"458 248 LINE",
"458 182 LINE",
"435 175 OFFCURVE",
"411 172 OFFCURVE",
"382 172 CURVE SMOOTH",
"288 172 OFFCURVE",
"239 212 OFFCURVE",
"239 319 CURVE SMOOTH",
"239 430 OFFCURVE",
"304 472 OFFCURVE",
"413 472 CURVE SMOOTH",
"478 472 OFFCURVE",
"541 465 OFFCURVE",
"602 442 CURVE",
"602 625 LINE",
"542 645 OFFCURVE",
"480 654 OFFCURVE",
"398 654 CURVE SMOOTH",
"152 654 OFFCURVE",
"20 536 OFFCURVE",
"20 319 CURVE SMOOTH",
"20 104 OFFCURVE",
"147 -10 OFFCURVE",
"383 -10 CURVE SMOOTH"
);
},
{
closed = 1;
nodes = (
"554 717 LINE",
"554 843 LINE",
"215 843 LINE",
"215 717 LINE"
);
}
);
width = 657;
}
);
leftKerningGroup = C;
note = Gmacron;
unicode = 1E20;
},
{
glyphname = H;
lastChange = "2015-11-26 04:54:42 +0000";
layers = (
{
layerId = "9422835F-145C-491A-96D7-00A9C7F45A34";
name = Bold;
paths = (
{
closed = 1;
nodes = (
"255 0 LINE",
"255 225 LINE",
"446 225 LINE",
"446 0 LINE",
"661 0 LINE",
"661 644 LINE",
"446 644 LINE",
"446 419 LINE",
"255 419 LINE",
"255 644 LINE",
"40 644 LINE",
"40 0 LINE"
);
}
);
width = 701;
}
);
note = H;
unicode = 0048;
},
{
glyphname = Hbar;
lastChange = "2015-11-26 04:54:46 +0000";
layers = (
{
layerId = "9422835F-145C-491A-96D7-00A9C7F45A34";
name = Bold;
paths = (
{
closed = 1;
nodes = (
"260 0 LINE",
"260 225 LINE",
"452 225 LINE",
"452 0 LINE",
"667 0 LINE",
"667 469 LINE",
"702 469 LINE",
"702 589 LINE",
"667 589 LINE",
"667 644 LINE",
"452 644 LINE",
"452 589 LINE",
"260 589 LINE",
"260 644 LINE",
"45 644 LINE",
"45 589 LINE",
"10 589 LINE",
"10 469 LINE",
"45 469 LINE",
"45 0 LINE"
);
},
{
closed = 1;
nodes = (
"260 469 LINE",
"452 469 LINE",
"452 419 LINE",
"260 419 LINE"
);
}
);
width = 712;
}
);
note = Hbar;
unicode = 0126;
},
{
glyphname = Hbrevebelow;
lastChange = "2015-11-26 04:54:45 +0000";
layers = (
{
layerId = "9422835F-145C-491A-96D7-00A9C7F45A34";
name = Bold;
paths = (
{
closed = 1;
nodes = (
"255 0 LINE",
"255 225 LINE",
"446 225 LINE",
"446 0 LINE",
"661 0 LINE",
"661 644 LINE",
"446 644 LINE",
"446 419 LINE",
"255 419 LINE",
"255 644 LINE",
"40 644 LINE",
"40 0 LINE"
);
},
{
closed = 1;
nodes = (
"475 -249 OFFCURVE",
"557 -177 OFFCURVE",
"557 -45 CURVE",
"418 -45 LINE",
"418 -92 OFFCURVE",
"402 -131 OFFCURVE",
"351 -131 CURVE SMOOTH",
"301 -131 OFFCURVE",
"285 -92 OFFCURVE",
"285 -45 CURVE",
"147 -45 LINE",
"147 -177 OFFCURVE",
"228 -249 OFFCURVE",
"351 -249 CURVE SMOOTH"
);
}
);
width = 701;
}
);
note = Hbrevebelow;
unicode = 1E2A;
},
{
glyphname = Hcircumflex;
lastChange = "2015-11-26 04:54:46 +0000";
layers = (
{
layerId = "9422835F-145C-491A-96D7-00A9C7F45A34";
name = Bold;
paths = (
{
closed = 1;
nodes = (
"255 0 LINE",
"255 225 LINE",
"446 225 LINE",
"446 0 LINE",
"661 0 LINE",
"661 644 LINE",
"446 644 LINE",
"446 419 LINE",
"255 419 LINE",
"255 644 LINE",
"40 644 LINE",
"40 0 LINE"
);
},
{
closed = 1;
nodes = (
"277 687 LINE",
"350 795 LINE",
"426 687 LINE",
"578 687 LINE",
"413 895 LINE",
"286 895 LINE",
"121 687 LINE"
);
}
);
width = 701;
}
);
note = Hcircumflex;
unicode = 0124;
},
{
glyphname = Hdotbelow;
lastChange = "2015-11-26 04:54:46 +0000";
layers = (
{
layerId = "9422835F-145C-491A-96D7-00A9C7F45A34";
name = Bold;
paths = (
{
closed = 1;
nodes = (
"255 0 LINE",
"255 225 LINE",
"446 225 LINE",
"446 0 LINE",
"661 0 LINE",
"661 644 LINE",
"446 644 LINE",
"446 419 LINE",
"255 419 LINE",
"255 644 LINE",
"40 644 LINE",
"40 0 LINE"
);
},
{
closed = 1;
nodes = (
"421 -176 LINE",
"421 -46 LINE",
"278 -46 LINE",
"278 -176 LINE"
);
}
);
width = 701;
}
);
note = Hdotbelow;
unicode = 1E24;
},
{
glyphname = I;
lastChange = "2015-11-26 04:54:42 +0000";
layers = (
{
layerId = "9422835F-145C-491A-96D7-00A9C7F45A34";
name = Bold;
paths = (
{
closed = 1;
nodes = (
"255 0 LINE",
"255 644 LINE",
"40 644 LINE",
"40 0 LINE"
);
}
);
width = 295;
}
);
note = I;
unicode = 0049;
},
{
glyphname = IJ;
lastChange = "2015-11-26 04:54:45 +0000";
layers = (
{
layerId = "9422835F-145C-491A-96D7-00A9C7F45A34";
name = Bold;
paths = (
{
closed = 1;
nodes = (
"617 -10 OFFCURVE",
"709 69 OFFCURVE",
"709 215 CURVE SMOOTH",
"709 644 LINE",
"494 644 LINE",
"494 259 LINE SMOOTH",
"494 196 OFFCURVE",
"469 172 OFFCURVE",
"403 172 CURVE SMOOTH",
"363 172 OFFCURVE",
"322 178 OFFCURVE",
"290 191 CURVE",
"290 13 LINE",
"339 -4 OFFCURVE",
"391 -10 OFFCURVE",
"447 -10 CURVE SMOOTH"
);
},
{
closed = 1;
nodes = (
"255 0 LINE",
"255 644 LINE",
"40 644 LINE",
"40 0 LINE"
);
}
);
width = 744;
}
);
note = IJ;
rightKerningGroup = J;
unicode = 0132;
},
{
glyphname = Iacute;
lastChange = "2015-11-26 04:54:45 +0000";
layers = (
{
layerId = "9422835F-145C-491A-96D7-00A9C7F45A34";
name = Bold;
paths = (
{
closed = 1;
nodes = (
"255 0 LINE",
"255 644 LINE",
"40 644 LINE",
"40 0 LINE"
);
},
{
closed = 1;
nodes = (
"221 688 LINE",
"322 904 LINE",
"156 904 LINE",
"64 688 LINE"
);
}
);
width = 295;
}
);
note = Iacute;
unicode = 00CD;
},
{
glyphname = Ibreve;
lastChange = "2015-11-26 04:54:46 +0000";
layers = (
{
layerId = "9422835F-145C-491A-96D7-00A9C7F45A34";
name = Bold;
paths = (
{
closed = 1;
nodes = (
"255 0 LINE",
"255 644 LINE",
"40 644 LINE",
"40 0 LINE"
);
},
{
closed = 1;
nodes = (
"271 711 OFFCURVE",
"353 783 OFFCURVE",
"353 915 CURVE",
"214 915 LINE",
"214 868 OFFCURVE",
"198 829 OFFCURVE",
"147 829 CURVE SMOOTH",
"97 829 OFFCURVE",
"81 868 OFFCURVE",
"81 915 CURVE",
"-57 915 LINE",
"-57 783 OFFCURVE",
"24 711 OFFCURVE",
"147 711 CURVE SMOOTH"
);
}
);
width = 295;
}
);
note = Ibreve;
unicode = 012C;
},
{
glyphname = Icaron;
lastChange = "2015-11-26 04:54:46 +0000";
layers = (
{
layerId = "9422835F-145C-491A-96D7-00A9C7F45A34";
name = Bold;
paths = (
{
closed = 1;
nodes = (
"255 0 LINE",
"255 644 LINE",
"40 644 LINE",
"40 0 LINE"
);
},
{
closed = 1;
nodes = (
"211 688 LINE",
"376 896 LINE",
"224 896 LINE",
"148 788 LINE",
"75 896 LINE",
"-81 896 LINE",
"84 688 LINE"
);
}
);
width = 295;
}
);
note = Icaron;
unicode = 01CF;
},
{
glyphname = Icircumflex;
lastChange = "2015-11-26 04:54:45 +0000";
layers = (
{
layerId = "9422835F-145C-491A-96D7-00A9C7F45A34";
name = Bold;
paths = (
{
closed = 1;
nodes = (
"255 0 LINE",
"255 644 LINE",
"40 644 LINE",
"40 0 LINE"
);
},
{
closed = 1;
nodes = (
"75 688 LINE",
"148 796 LINE",
"224 688 LINE",
"376 688 LINE",
"211 896 LINE",
"84 896 LINE",
"-81 688 LINE"
);
}
);
width = 295;
}
);
note = Icircumflex;
unicode = 00CE;
},
{
glyphname = Idieresis;
lastChange = "2015-11-26 04:54:46 +0000";
layers = (
{
layerId = "9422835F-145C-491A-96D7-00A9C7F45A34";
name = Bold;
paths = (
{
closed = 1;
nodes = (
"255 0 LINE",
"255 644 LINE",
"40 644 LINE",
"40 0 LINE"
);
},
{
closed = 1;
nodes = (
"107 724 LINE",
"107 855 LINE",
"-37 855 LINE",
"-37 724 LINE"
);
},
{
closed = 1;
nodes = (
"332 724 LINE",
"332 855 LINE",
"189 855 LINE",
"189 724 LINE"
);
}
);
width = 295;
}
);
note = Idieresis;
unicode = 00CF;
},
{
glyphname = Idotaccent;
lastChange = "2015-11-26 04:54:45 +0000";
layers = (
{
layerId = "9422835F-145C-491A-96D7-00A9C7F45A34";
name = Bold;
paths = (
{
closed = 1;
nodes = (
"255 0 LINE",
"255 644 LINE",
"40 644 LINE",
"40 0 LINE"
);
},
{
closed = 1;
nodes = (
"219 724 LINE",
"219 855 LINE",
"76 855 LINE",
"76 724 LINE"
);
}
);
width = 295;
}
);
note = Idotaccent;
unicode = 0130;
},
{
glyphname = Idotbelow;
lastChange = "2015-11-26 04:54:45 +0000";
layers = (
{
layerId = "9422835F-145C-491A-96D7-00A9C7F45A34";
name = Bold;
paths = (
{
closed = 1;
nodes = (
"255 0 LINE",
"255 644 LINE",
"40 644 LINE",
"40 0 LINE"
);
},
{
closed = 1;
nodes = (
"219 -176 LINE",
"219 -46 LINE",
"76 -46 LINE",
"76 -176 LINE"
);
}
);
width = 295;
}
);
note = Idotbelow;
unicode = 1ECA;
},
{
glyphname = Igrave;
lastChange = "2015-11-26 04:54:46 +0000";
layers = (
{
layerId = "9422835F-145C-491A-96D7-00A9C7F45A34";
name = Bold;
paths = (
{
closed = 1;
nodes = (
"255 0 LINE",
"255 644 LINE",
"40 644 LINE",
"40 0 LINE"
);
},
{
closed = 1;
nodes = (
"227 688 LINE",
"135 904 LINE",
"-32 904 LINE",
"69 688 LINE"
);
}
);
width = 295;
}
);
note = Igrave;
unicode = 00CC;
},
{
glyphname = Ihookabove;
lastChange = "2015-11-26 04:54:46 +0000";
layers = (
{
layerId = "9422835F-145C-491A-96D7-00A9C7F45A34";
name = Bold;
paths = (
{
closed = 1;
nodes = (
"255 0 LINE",
"255 644 LINE",
"40 644 LINE",
"40 0 LINE"
);
},
{
closed = 1;
nodes = (
"222 688 LINE",
"222 726 LINE",
"278 743 OFFCURVE",
"305 769 OFFCURVE",
"305 828 CURVE SMOOTH",
"305 888 OFFCURVE",
"253 932 OFFCURVE",
"159 932 CURVE SMOOTH",
"106 932 OFFCURVE",
"66 927 OFFCURVE",
"36 918 CURVE",
"36 832 LINE",
"52 837 OFFCURVE",
"74 841 OFFCURVE",
"94 841 CURVE SMOOTH",
"130 841 OFFCURVE",
"149 832 OFFCURVE",
"149 810 CURVE SMOOTH",
"149 788 OFFCURVE",
"129 773 OFFCURVE",
"62 769 CURVE",
"62 688 LINE"
);
}
);
width = 295;
}
);
note = Ihookabove;
unicode = 1EC8;
},
{
glyphname = Imacron;
lastChange = "2015-11-26 04:54:45 +0000";
layers = (
{
layerId = "9422835F-145C-491A-96D7-00A9C7F45A34";
name = Bold;
paths = (
{
closed = 1;
nodes = (
"255 0 LINE",
"255 644 LINE",
"40 644 LINE",
"40 0 LINE"
);
},
{
closed = 1;
nodes = (
"316 725 LINE",
"316 851 LINE",
"-22 851 LINE",
"-22 725 LINE"
);
}
);
width = 295;
}
);
note = Imacron;
unicode = 012A;
},
{
glyphname = Iogonek;
lastChange = "2015-11-26 04:54:46 +0000";
layers = (
{
layerId = "9422835F-145C-491A-96D7-00A9C7F45A34";
name = Bold;
paths = (
{
closed = 1;
nodes = (
"255 0 LINE",
"255 644 LINE",
"40 644 LINE",
"40 0 LINE"
);
},
{
closed = 1;
nodes = (
"191 -220 OFFCURVE",
"235 -211 OFFCURVE",
"256 -203 CURVE",
"256 -107 LINE",
"244 -114 OFFCURVE",
"223 -118 OFFCURVE",
"206 -118 CURVE SMOOTH",
"177 -118 OFFCURVE",
"161 -108 OFFCURVE",
"161 -83 CURVE SMOOTH",
"161 -51 OFFCURVE",
"183 -24 OFFCURVE",
"214 0 CURVE",
"80 0 LINE",
"37 -26 OFFCURVE",
"5 -68 OFFCURVE",
"5 -120 CURVE SMOOTH",
"5 -189 OFFCURVE",
"62 -220 OFFCURVE",
"145 -220 CURVE SMOOTH"
);
}
);
width = 295;
}
);
note = Iogonek;
unicode = 012E;
},
{
glyphname = Itilde;
lastChange = "2015-11-26 04:54:45 +0000";
layers = (
{
layerId = "9422835F-145C-491A-96D7-00A9C7F45A34";
name = Bold;
paths = (
{
closed = 1;
nodes = (
"255 0 LINE",
"255 644 LINE",
"40 644 LINE",
"40 0 LINE"
);
},
{
closed = 1;
nodes = (
"289 717 OFFCURVE",
"326 733 OFFCURVE",
"339 751 CURVE",
"339 881 LINE",
"323 858 OFFCURVE",
"289 840 OFFCURVE",
"245 840 CURVE SMOOTH",
"179 840 OFFCURVE",
"124 883 OFFCURVE",
"54 883 CURVE SMOOTH",
"14 883 OFFCURVE",
"-25 867 OFFCURVE",
"-44 849 CURVE",
"-44 720 LINE",
"-20 744 OFFCURVE",
"13 760 OFFCURVE",
"57 760 CURVE SMOOTH",
"115 760 OFFCURVE",
"179 717 OFFCURVE",
"248 717 CURVE SMOOTH"
);
}
);
width = 295;
}
);
note = Itilde;
unicode = 0128;
},
{
glyphname = J;
lastChange = "2015-11-26 04:54:42 +0000";
layers = (
{
layerId = "9422835F-145C-491A-96D7-00A9C7F45A34";
name = Bold;
paths = (
{
closed = 1;
nodes = (
"327 -10 OFFCURVE",
"419 69 OFFCURVE",
"419 215 CURVE SMOOTH",
"419 644 LINE",
"204 644 LINE",
"204 259 LINE SMOOTH",
"204 196 OFFCURVE",
"179 172 OFFCURVE",
"113 172 CURVE SMOOTH",
"73 172 OFFCURVE",
"32 178 OFFCURVE",
"0 191 CURVE",
"0 13 LINE",
"49 -4 OFFCURVE",
"101 -10 OFFCURVE",
"157 -10 CURVE SMOOTH"
);
}
);
width = 454;
}
);
leftKerningGroup = J;
note = J;
rightKerningGroup = J;
unicode = 004A;
},
{
glyphname = Jcircumflex;
lastChange = "2015-11-26 04:54:46 +0000";
layers = (
{
layerId = "9422835F-145C-491A-96D7-00A9C7F45A34";
name = Bold;
paths = (
{
closed = 1;
nodes = (
"327 -10 OFFCURVE",
"419 69 OFFCURVE",
"419 215 CURVE SMOOTH",
"419 644 LINE",
"204 644 LINE",
"204 259 LINE SMOOTH",
"204 196 OFFCURVE",
"179 172 OFFCURVE",
"113 172 CURVE SMOOTH",
"73 172 OFFCURVE",
"32 178 OFFCURVE",
"0 191 CURVE",
"0 13 LINE",
"49 -4 OFFCURVE",
"101 -10 OFFCURVE",
"157 -10 CURVE SMOOTH"
);
},
{
closed = 1;
nodes = (
"236 688 LINE",
"309 796 LINE",
"385 688 LINE",
"537 688 LINE",
"372 896 LINE",
"245 896 LINE",
"80 688 LINE"
);
}
);
width = 454;
}
);
leftKerningGroup = J;
note = Jcircumflex;
rightKerningGroup = J;
unicode = 0134;
},
{
glyphname = K;
lastChange = "2015-11-26 04:54:42 +0000";
layers = (
{
layerId = "9422835F-145C-491A-96D7-00A9C7F45A34";
name = Bold;
paths = (
{
closed = 1;
nodes = (
"255 0 LINE",
"255 177 LINE",
"311 242 LINE",
"456 0 LINE",
"684 0 LINE",
"443 378 LINE",
"666 644 LINE",
"423 644 LINE",
"255 440 LINE",
"255 644 LINE",
"40 644 LINE",
"40 0 LINE"
);
}
);
width = 704;
}
);
note = K;
rightKerningGroup = K;
unicode = 004B;
},
{
glyphname = Kcommaaccent;
lastChange = "2015-11-26 04:54:46 +0000";
layers = (
{
layerId = "9422835F-145C-491A-96D7-00A9C7F45A34";
name = Bold;
paths = (
{
closed = 1;
nodes = (
"255 0 LINE",
"255 177 LINE",
"311 242 LINE",
"456 0 LINE",
"684 0 LINE",
"443 378 LINE",
"666 644 LINE",
"423 644 LINE",
"255 440 LINE",
"255 644 LINE",
"40 644 LINE",
"40 0 LINE"
);
},
{
closed = 1;
nodes = (
"383 -274 LINE",
"444 -37 LINE",
"278 -37 LINE",
"243 -274 LINE"
);
}
);
width = 704;
}
);
note = Kcommaaccent;
rightKerningGroup = K;
unicode = 0136;
},
{
glyphname = L;
lastChange = "2015-11-26 04:54:42 +0000";
layers = (
{
layerId = "9422835F-145C-491A-96D7-00A9C7F45A34";
name = Bold;
paths = (
{
closed = 1;
nodes = (
"531 0 LINE",
"531 164 LINE",
"255 164 LINE",
"255 644 LINE",
"40 644 LINE",
"40 0 LINE"
);
}
);
width = 531;
}
);
note = L;
rightKerningGroup = L;
unicode = 004C;
},
{
glyphname = Lacute;
lastChange = "2015-11-26 04:54:45 +0000";
layers = (
{
layerId = "9422835F-145C-491A-96D7-00A9C7F45A34";
name = Bold;
paths = (
{
closed = 1;
nodes = (
"531 0 LINE",
"531 164 LINE",
"255 164 LINE",
"255 644 LINE",
"40 644 LINE",
"40 0 LINE"
);
},
{
closed = 1;
nodes = (
"224 688 LINE",
"325 904 LINE",
"159 904 LINE",
"67 688 LINE"
);
}
);
width = 531;
}
);
note = Lacute;
rightKerningGroup = L;
unicode = 0139;
},
{
glyphname = Lcaron;
lastChange = "2015-11-26 04:54:45 +0000";
layers = (
{
layerId = "9422835F-145C-491A-96D7-00A9C7F45A34";
name = Bold;
paths = (
{
closed = 1;
nodes = (
"531 0 LINE",
"531 164 LINE",
"255 164 LINE",
"255 644 LINE",
"40 644 LINE",
"40 0 LINE"
);
},
{
closed = 1;
nodes = (
"205 688 LINE",
"266 925 LINE",
"100 925 LINE",
"65 688 LINE"
);
}
);
width = 531;
}
);
note = Lcaron;
rightKerningGroup = L;
unicode = 013D;
},
{
glyphname = Lcommaaccent;
lastChange = "2015-11-26 04:54:46 +0000";
layers = (
{
layerId = "9422835F-145C-491A-96D7-00A9C7F45A34";
name = Bold;
paths = (
{
closed = 1;
nodes = (
"531 0 LINE",
"531 164 LINE",
"255 164 LINE",
"255 644 LINE",
"40 644 LINE",
"40 0 LINE"
);
},
{
closed = 1;
nodes = (
"336 -274 LINE",
"397 -37 LINE",
"231 -37 LINE",
"196 -274 LINE"
);
}
);
width = 531;
}
);
note = Lcommaaccent;
rightKerningGroup = L;
unicode = 013B;
},
{
glyphname = Ldot;
lastChange = "2015-11-26 10:58:47 +0000";
layers = (
{
layerId = "9422835F-145C-491A-96D7-00A9C7F45A34";
name = Bold;
paths = (
{
closed = 1;
nodes = (
"531 0 LINE",
"531 164 LINE",
"255 164 LINE",
"255 644 LINE",
"40 644 LINE",
"40 0 LINE"
);
},
{
closed = 1;
nodes = (
"487 300 LINE",
"487 431 LINE",
"344 431 LINE",
"344 300 LINE"
);
}
);
width = 531;
}
);
note = Ldot;
rightKerningGroup = L;
unicode = 013F;
},
{
glyphname = Ldotbelow;
lastChange = "2015-11-26 04:54:45 +0000";
layers = (
{
layerId = "9422835F-145C-491A-96D7-00A9C7F45A34";
name = Bold;
paths = (
{
closed = 1;
nodes = (
"531 0 LINE",
"531 164 LINE",
"255 164 LINE",
"255 644 LINE",
"40 644 LINE",
"40 0 LINE"
);
},
{
closed = 1;
nodes = (
"348 -175 LINE",
"348 -45 LINE",
"205 -45 LINE",
"205 -175 LINE"
);
}
);
width = 531;
}
);
note = Ldotbelow;
rightKerningGroup = L;
unicode = 1E36;
},
{
glyphname = Ldotbelowmacron;
lastChange = "2015-11-26 04:54:45 +0000";
layers = (
{
layerId = "9422835F-145C-491A-96D7-00A9C7F45A34";
name = Bold;
paths = (
{
closed = 1;
nodes = (
"533 0 LINE",
"533 164 LINE",
"257 164 LINE",
"257 644 LINE",
"42 644 LINE",
"42 0 LINE"
);
},
{
closed = 1;
nodes = (
"349 -175 LINE",
"349 -45 LINE",
"206 -45 LINE",
"206 -175 LINE"
);
},
{
closed = 1;
nodes = (
"317 717 LINE",
"317 843 LINE",
"-22 843 LINE",
"-22 717 LINE"
);
}
);
width = 533;
}
);
note = Ldotbelowmacron;
rightKerningGroup = L;
unicode = 1E38;
},
{
glyphname = Llinebelow;
lastChange = "2015-11-26 04:54:46 +0000";
layers = (
{
layerId = "9422835F-145C-491A-96D7-00A9C7F45A34";
name = Bold;
paths = (
{
closed = 1;
nodes = (
"531 0 LINE",
"531 164 LINE",
"255 164 LINE",
"255 644 LINE",
"40 644 LINE",
"40 0 LINE"
);
},
{
closed = 1;
nodes = (
"448 -175 LINE",
"448 -49 LINE",
"109 -49 LINE",
"109 -175 LINE"
);
}
);
width = 531;
}
);
note = Llinebelow;
rightKerningGroup = L;
unicode = 1E3A;
},
{
glyphname = Lslash;
lastChange = "2015-11-26 04:54:42 +0000";
layers = (
{
layerId = "9422835F-145C-491A-96D7-00A9C7F45A34";
name = Bold;
paths = (
{
closed = 1;
nodes = (
"552 0 LINE",
"552 164 LINE",
"275 164 LINE",
"275 321 LINE",
"353 355 LINE",
"353 506 LINE",
"275 472 LINE",
"275 644 LINE",
"60 644 LINE",
"60 377 LINE",
"-10 347 LINE",
"-10 196 LINE",
"60 226 LINE",
"60 0 LINE"
);
}
);
width = 552;
}
);
note = Lslash;
rightKerningGroup = L;
unicode = 0141;
},
{
glyphname = M;
lastChange = "2015-11-26 04:54:42 +0000";
layers = (
{
layerId = "9422835F-145C-491A-96D7-00A9C7F45A34";
name = Bold;
paths = (
{
closed = 1;
nodes = (
"255 0 LINE",
"255 274 LINE",
"335 110 LINE",
"447 110 LINE",
"527 274 LINE",
"527 0 LINE",
"742 0 LINE",
"742 644 LINE",
"536 644 LINE",
"392 347 LINE",
"246 644 LINE",
"40 644 LINE",
"40 0 LINE"
);
}
);
width = 782;
}
);
note = M;
unicode = 004D;
},
{
glyphname = Mdotbelow;
lastChange = "2015-11-26 04:54:46 +0000";
layers = (
{
layerId = "9422835F-145C-491A-96D7-00A9C7F45A34";
name = Bold;
paths = (
{
closed = 1;
nodes = (
"255 0 LINE",
"255 274 LINE",
"335 110 LINE",
"447 110 LINE",
"527 274 LINE",
"527 0 LINE",
"742 0 LINE",
"742 644 LINE",
"536 644 LINE",
"392 347 LINE",
"246 644 LINE",
"40 644 LINE",
"40 0 LINE"
);
},
{
closed = 1;
nodes = (
"464 -176 LINE",
"464 -46 LINE",
"321 -46 LINE",
"321 -176 LINE"
);
}
);
width = 782;
}
);
note = Mdotbelow;
unicode = 1E42;
},
{
glyphname = N;
lastChange = "2015-11-26 04:54:42 +0000";
layers = (
{
layerId = "9422835F-145C-491A-96D7-00A9C7F45A34";
name = Bold;
paths = (
{
closed = 1;
nodes = (
"255 0 LINE",
"255 296 LINE",
"465 0 LINE",
"648 0 LINE",
"648 644 LINE",
"433 644 LINE",
"433 347 LINE",
"221 644 LINE",
"40 644 LINE",
"40 0 LINE"
);
}
);
width = 688;
}
);
note = N;
unicode = 004E;
},
{
glyphname = Nacute;
lastChange = "2015-11-26 04:54:45 +0000";
layers = (
{
layerId = "9422835F-145C-491A-96D7-00A9C7F45A34";
name = Bold;
paths = (
{
closed = 1;
nodes = (
"255 0 LINE",
"255 296 LINE",
"465 0 LINE",
"648 0 LINE",
"648 644 LINE",
"433 644 LINE",
"433 347 LINE",
"221 644 LINE",
"40 644 LINE",
"40 0 LINE"
);
},
{
closed = 1;
nodes = (
"395 688 LINE",
"496 904 LINE",
"330 904 LINE",
"238 688 LINE"
);
}
);
width = 688;
}
);
note = Nacute;
unicode = 0143;
},
{
glyphname = Ncaron;
lastChange = "2015-11-26 04:54:46 +0000";
layers = (
{
layerId = "9422835F-145C-491A-96D7-00A9C7F45A34";
name = Bold;
paths = (
{
closed = 1;
nodes = (
"255 0 LINE",
"255 296 LINE",
"465 0 LINE",
"648 0 LINE",
"648 644 LINE",
"433 644 LINE",
"433 347 LINE",
"221 644 LINE",
"40 644 LINE",
"40 0 LINE"
);
},
{
closed = 1;
nodes = (
"403 688 LINE",
"568 896 LINE",
"416 896 LINE",
"340 788 LINE",
"267 896 LINE",
"111 896 LINE",
"276 688 LINE"
);
}
);
width = 688;
}
);
note = Ncaron;
unicode = 0147;
},
{
glyphname = Ncommaaccent;
lastChange = "2015-11-26 04:54:45 +0000";
layers = (
{
layerId = "9422835F-145C-491A-96D7-00A9C7F45A34";
name = Bold;
paths = (
{
closed = 1;
nodes = (
"255 0 LINE",
"255 296 LINE",
"465 0 LINE",
"648 0 LINE",
"648 644 LINE",
"433 644 LINE",
"433 347 LINE",
"221 644 LINE",
"40 644 LINE",
"40 0 LINE"
);
},
{
closed = 1;
nodes = (
"380 -274 LINE",
"441 -37 LINE",
"275 -37 LINE",
"240 -274 LINE"
);
}
);
width = 688;
}
);
note = Ncommaaccent;
unicode = 0145;
},
{
glyphname = Ndotaccent;
lastChange = "2015-11-26 04:54:45 +0000";
layers = (
{
layerId = "9422835F-145C-491A-96D7-00A9C7F45A34";
name = Bold;
paths = (
{
closed = 1;
nodes = (
"255 0 LINE",
"255 296 LINE",
"465 0 LINE",
"648 0 LINE",
"648 644 LINE",
"433 644 LINE",
"433 347 LINE",
"221 644 LINE",
"40 644 LINE",
"40 0 LINE"
);
},
{
closed = 1;
nodes = (
"413 716 LINE",
"413 847 LINE",
"270 847 LINE",
"270 716 LINE"
);
}
);
width = 688;
}
);
note = Ndotaccent;
unicode = 1E44;
},
{
glyphname = Ndotbelow;
lastChange = "2015-11-26 04:54:45 +0000";
layers = (
{
layerId = "9422835F-145C-491A-96D7-00A9C7F45A34";
name = Bold;
paths = (
{
closed = 1;
nodes = (
"255 0 LINE",
"255 296 LINE",
"465 0 LINE",
"648 0 LINE",
"648 644 LINE",
"433 644 LINE",
"433 347 LINE",
"221 644 LINE",
"40 644 LINE",
"40 0 LINE"
);
},
{
closed = 1;
nodes = (
"418 -176 LINE",
"418 -46 LINE",
"275 -46 LINE",
"275 -176 LINE"
);
}
);
width = 688;
}
);
note = Ndotbelow;
unicode = 1E46;
},
{
glyphname = Eng;
lastChange = "2015-11-26 04:54:43 +0000";
layers = (
{
layerId = "9422835F-145C-491A-96D7-00A9C7F45A34";
name = Bold;
paths = (
{
closed = 1;
nodes = (
"591 -234 OFFCURVE",
"648 -158 OFFCURVE",
"648 -52 CURVE SMOOTH",
"648 644 LINE",
"432 644 LINE",
"432 347 LINE",
"221 644 LINE",
"40 644 LINE",
"40 0 LINE",
"255 0 LINE",
"255 296 LINE",
"432 46 LINE",
"432 -37 LINE SMOOTH",
"432 -67 OFFCURVE",
"415 -84 OFFCURVE",
"378 -84 CURVE SMOOTH",
"358 -84 OFFCURVE",
"338 -81 OFFCURVE",
"318 -74 CURVE",
"318 -210 LINE",
"357 -226 OFFCURVE",
"399 -234 OFFCURVE",
"455 -234 CURVE SMOOTH"
);
}
);
width = 688;
}
);
note = Eng;
unicode = 014A;
},
{
glyphname = Nlinebelow;
lastChange = "2015-11-26 04:54:47 +0000";
layers = (
{
layerId = "9422835F-145C-491A-96D7-00A9C7F45A34";
name = Bold;
paths = (
{
closed = 1;
nodes = (
"255 0 LINE",
"255 296 LINE",
"465 0 LINE",
"648 0 LINE",
"648 644 LINE",
"433 644 LINE",
"433 347 LINE",
"221 644 LINE",
"40 644 LINE",
"40 0 LINE"
);
},
{
closed = 1;
nodes = (
"516 -176 LINE",
"516 -50 LINE",
"177 -50 LINE",
"177 -176 LINE"
);
}
);
width = 688;
}
);
note = Nlinebelow;
unicode = 1E48;
},
{
glyphname = Ntilde;
lastChange = "2015-11-26 04:54:45 +0000";
layers = (
{
layerId = "9422835F-145C-491A-96D7-00A9C7F45A34";
name = Bold;
paths = (
{
closed = 1;
nodes = (
"255 0 LINE",
"255 296 LINE",
"465 0 LINE",
"648 0 LINE",
"648 644 LINE",
"433 644 LINE",
"433 347 LINE",
"221 644 LINE",
"40 644 LINE",
"40 0 LINE"
);
},
{
closed = 1;
nodes = (
"493 694 OFFCURVE",
"530 710 OFFCURVE",
"543 728 CURVE",
"543 858 LINE",
"527 835 OFFCURVE",
"493 817 OFFCURVE",
"449 817 CURVE SMOOTH",
"383 817 OFFCURVE",
"328 860 OFFCURVE",
"258 860 CURVE SMOOTH",
"218 860 OFFCURVE",
"179 844 OFFCURVE",
"160 826 CURVE",
"160 697 LINE",
"184 721 OFFCURVE",
"217 737 OFFCURVE",
"261 737 CURVE SMOOTH",
"319 737 OFFCURVE",
"383 694 OFFCURVE",
"452 694 CURVE SMOOTH"
);
}
);
width = 688;
}
);
note = Ntilde;
unicode = 00D1;
},
{
glyphname = O;
lastChange = "2015-11-26 04:54:45 +0000";
layers = (
{
layerId = "9422835F-145C-491A-96D7-00A9C7F45A34";
name = Bold;
paths = (
{
closed = 1;
nodes = (
"572 -10 OFFCURVE",
"694 83 OFFCURVE",
"694 321 CURVE SMOOTH",
"694 562 OFFCURVE",
"572 654 OFFCURVE",
"357 654 CURVE SMOOTH",
"141 654 OFFCURVE",
"20 562 OFFCURVE",
"20 321 CURVE SMOOTH",
"20 83 OFFCURVE",
"141 -10 OFFCURVE",
"357 -10 CURVE SMOOTH"
);
},
{
closed = 1;
nodes = (
"273 172 OFFCURVE",
"239 215 OFFCURVE",
"239 321 CURVE SMOOTH",
"239 431 OFFCURVE",
"273 471 OFFCURVE",
"357 471 CURVE SMOOTH",
"440 471 OFFCURVE",
"474 431 OFFCURVE",
"474 321 CURVE SMOOTH",
"474 215 OFFCURVE",
"440 172 OFFCURVE",
"357 172 CURVE SMOOTH"
);
}
);
width = 714;
}
);
leftKerningGroup = O;
note = O;
rightKerningGroup = O;
unicode = 004F;
},
{
glyphname = Oacute;
lastChange = "2015-11-26 04:54:45 +0000";
layers = (
{
layerId = "9422835F-145C-491A-96D7-00A9C7F45A34";
name = Bold;
paths = (
{
closed = 1;
nodes = (
"572 -10 OFFCURVE",
"694 83 OFFCURVE",
"694 321 CURVE SMOOTH",
"694 562 OFFCURVE",
"572 654 OFFCURVE",
"357 654 CURVE SMOOTH",
"141 654 OFFCURVE",
"20 562 OFFCURVE",
"20 321 CURVE SMOOTH",
"20 83 OFFCURVE",
"141 -10 OFFCURVE",
"357 -10 CURVE SMOOTH"
);
},
{
closed = 1;
nodes = (
"273 172 OFFCURVE",
"239 215 OFFCURVE",
"239 321 CURVE SMOOTH",
"239 431 OFFCURVE",
"273 471 OFFCURVE",
"357 471 CURVE SMOOTH",
"440 471 OFFCURVE",
"474 431 OFFCURVE",
"474 321 CURVE SMOOTH",
"474 215 OFFCURVE",
"440 172 OFFCURVE",
"357 172 CURVE SMOOTH"
);
},
{
closed = 1;
nodes = (
"419 688 LINE",
"520 904 LINE",
"354 904 LINE",
"262 688 LINE"
);
}
);
width = 714;
}
);
leftKerningGroup = O;
note = Oacute;
rightKerningGroup = O;
unicode = 00D3;
},
{
glyphname = Obreve;
lastChange = "2015-11-26 04:54:45 +0000";
layers = (
{
layerId = "9422835F-145C-491A-96D7-00A9C7F45A34";
name = Bold;
paths = (
{
closed = 1;
nodes = (
"572 -10 OFFCURVE",
"694 83 OFFCURVE",
"694 321 CURVE SMOOTH",
"694 562 OFFCURVE",
"572 654 OFFCURVE",
"357 654 CURVE SMOOTH",
"141 654 OFFCURVE",
"20 562 OFFCURVE",
"20 321 CURVE SMOOTH",
"20 83 OFFCURVE",
"141 -10 OFFCURVE",
"357 -10 CURVE SMOOTH"
);
},
{
closed = 1;
nodes = (
"273 172 OFFCURVE",
"239 215 OFFCURVE",
"239 321 CURVE SMOOTH",
"239 431 OFFCURVE",
"273 471 OFFCURVE",
"357 471 CURVE SMOOTH",
"440 471 OFFCURVE",
"474 431 OFFCURVE",
"474 321 CURVE SMOOTH",
"474 215 OFFCURVE",
"440 172 OFFCURVE",
"357 172 CURVE SMOOTH"
);
},
{
closed = 1;
nodes = (
"480 688 OFFCURVE",
"562 760 OFFCURVE",
"562 892 CURVE",
"423 892 LINE",
"423 845 OFFCURVE",
"407 806 OFFCURVE",
"356 806 CURVE SMOOTH",
"306 806 OFFCURVE",
"290 845 OFFCURVE",
"290 892 CURVE",
"152 892 LINE",
"152 760 OFFCURVE",
"233 688 OFFCURVE",
"356 688 CURVE SMOOTH"
);
}
);
width = 714;
}
);
leftKerningGroup = O;
note = Obreve;
rightKerningGroup = O;
unicode = 014E;
},
{
glyphname = Ocaron;
lastChange = "2015-11-26 04:54:45 +0000";
layers = (
{
layerId = "9422835F-145C-491A-96D7-00A9C7F45A34";
name = Bold;
paths = (
{
closed = 1;
nodes = (
"572 -10 OFFCURVE",
"694 83 OFFCURVE",
"694 321 CURVE SMOOTH",
"694 562 OFFCURVE",
"572 654 OFFCURVE",
"357 654 CURVE SMOOTH",
"141 654 OFFCURVE",
"20 562 OFFCURVE",
"20 321 CURVE SMOOTH",
"20 83 OFFCURVE",
"141 -10 OFFCURVE",
"357 -10 CURVE SMOOTH"
);
},
{
closed = 1;
nodes = (
"273 172 OFFCURVE",
"239 215 OFFCURVE",
"239 321 CURVE SMOOTH",
"239 431 OFFCURVE",
"273 471 OFFCURVE",
"357 471 CURVE SMOOTH",
"440 471 OFFCURVE",
"474 431 OFFCURVE",
"474 321 CURVE SMOOTH",
"474 215 OFFCURVE",
"440 172 OFFCURVE",
"357 172 CURVE SMOOTH"
);
},
{
closed = 1;
nodes = (
"420 688 LINE",
"585 896 LINE",
"433 896 LINE",
"357 788 LINE",
"284 896 LINE",
"128 896 LINE",
"293 688 LINE"
);
}
);
width = 714;
}
);
leftKerningGroup = O;
note = Ocaron;
rightKerningGroup = O;
unicode = 01D1;
},
{
glyphname = Ocircumflex;
lastChange = "2015-11-26 04:54:46 +0000";
layers = (
{
layerId = "9422835F-145C-491A-96D7-00A9C7F45A34";
name = Bold;
paths = (
{
closed = 1;
nodes = (
"572 -10 OFFCURVE",
"694 83 OFFCURVE",
"694 321 CURVE SMOOTH",
"694 562 OFFCURVE",
"572 654 OFFCURVE",
"357 654 CURVE SMOOTH",
"141 654 OFFCURVE",
"20 562 OFFCURVE",
"20 321 CURVE SMOOTH",
"20 83 OFFCURVE",
"141 -10 OFFCURVE",
"357 -10 CURVE SMOOTH"
);
},
{
closed = 1;
nodes = (
"273 172 OFFCURVE",
"239 215 OFFCURVE",
"239 321 CURVE SMOOTH",
"239 431 OFFCURVE",
"273 471 OFFCURVE",
"357 471 CURVE SMOOTH",
"440 471 OFFCURVE",
"474 431 OFFCURVE",
"474 321 CURVE SMOOTH",
"474 215 OFFCURVE",
"440 172 OFFCURVE",
"357 172 CURVE SMOOTH"
);
},
{
closed = 1;
nodes = (
"285 688 LINE",
"358 796 LINE",
"434 688 LINE",
"586 688 LINE",
"421 896 LINE",
"294 896 LINE",
"129 688 LINE"
);
}
);
width = 714;
}
);
leftKerningGroup = O;
note = Ocircumflex;
rightKerningGroup = O;
unicode = 00D4;
},
{
glyphname = Ocircumflexacute;
lastChange = "2015-11-26 04:54:46 +0000";
layers = (
{
layerId = "9422835F-145C-491A-96D7-00A9C7F45A34";
name = Bold;
paths = (
{
closed = 1;
nodes = (
"572 -10 OFFCURVE",
"694 83 OFFCURVE",
"694 321 CURVE SMOOTH",
"694 562 OFFCURVE",
"572 654 OFFCURVE",
"357 654 CURVE SMOOTH",
"141 654 OFFCURVE",
"20 562 OFFCURVE",
"20 321 CURVE SMOOTH",
"20 83 OFFCURVE",
"141 -10 OFFCURVE",
"357 -10 CURVE SMOOTH"
);
},
{
closed = 1;
nodes = (
"273 172 OFFCURVE",
"239 215 OFFCURVE",
"239 321 CURVE SMOOTH",
"239 431 OFFCURVE",
"273 471 OFFCURVE",
"357 471 CURVE SMOOTH",
"440 471 OFFCURVE",
"474 431 OFFCURVE",
"474 321 CURVE SMOOTH",
"474 215 OFFCURVE",
"440 172 OFFCURVE",
"357 172 CURVE SMOOTH"
);
},
{
closed = 1;
nodes = (
"297 688 LINE",
"354 765 LINE",
"413 688 LINE",
"582 688 LINE",
"432 848 LINE",
"276 848 LINE",
"126 688 LINE"
);
},
{
closed = 1;
nodes = (
"637 816 LINE",
"717 980 LINE",
"560 980 LINE",
"487 816 LINE"
);
}
);
width = 714;
}
);
leftKerningGroup = O;
note = Ocircumflexacute;
rightKerningGroup = O;
unicode = 1ED0;
},
{
glyphname = Ocircumflexdotbelow;
lastChange = "2015-11-26 04:58:25 +0000";
layers = (
{
layerId = "9422835F-145C-491A-96D7-00A9C7F45A34";
name = Bold;
paths = (
{
closed = 1;
nodes = (
"572 -10 OFFCURVE",
"694 83 OFFCURVE",
"694 321 CURVE SMOOTH",
"694 562 OFFCURVE",
"572 654 OFFCURVE",
"357 654 CURVE SMOOTH",
"141 654 OFFCURVE",
"20 562 OFFCURVE",
"20 321 CURVE SMOOTH",
"20 83 OFFCURVE",
"141 -10 OFFCURVE",
"357 -10 CURVE SMOOTH"
);
},
{
closed = 1;
nodes = (
"273 172 OFFCURVE",
"239 215 OFFCURVE",
"239 321 CURVE SMOOTH",
"239 431 OFFCURVE",
"273 471 OFFCURVE",
"357 471 CURVE SMOOTH",
"440 471 OFFCURVE",
"474 431 OFFCURVE",
"474 321 CURVE SMOOTH",
"474 215 OFFCURVE",
"440 172 OFFCURVE",
"357 172 CURVE SMOOTH"
);
},
{
closed = 1;
nodes = (
"430 -176 LINE",
"430 -46 LINE",
"287 -46 LINE",
"287 -176 LINE"
);
},
{
closed = 1;
nodes = (
"285 688 LINE",
"358 796 LINE",
"434 688 LINE",
"586 688 LINE",
"421 896 LINE",
"294 896 LINE",
"129 688 LINE"
);
}
);
width = 714;
}
);
leftKerningGroup = O;
note = Ocircumflexdotbelow;
rightKerningGroup = O;
unicode = 1ED8;
},
{
glyphname = Ocircumflexgrave;
lastChange = "2015-11-26 04:54:46 +0000";
layers = (
{
layerId = "9422835F-145C-491A-96D7-00A9C7F45A34";
name = Bold;
paths = (
{
closed = 1;
nodes = (
"572 -10 OFFCURVE",
"694 83 OFFCURVE",
"694 321 CURVE SMOOTH",
"694 562 OFFCURVE",
"572 654 OFFCURVE",
"357 654 CURVE SMOOTH",
"141 654 OFFCURVE",
"20 562 OFFCURVE",
"20 321 CURVE SMOOTH",
"20 83 OFFCURVE",
"141 -10 OFFCURVE",
"357 -10 CURVE SMOOTH"
);
},
{
closed = 1;
nodes = (
"273 172 OFFCURVE",
"239 215 OFFCURVE",
"239 321 CURVE SMOOTH",
"239 431 OFFCURVE",
"273 471 OFFCURVE",
"357 471 CURVE SMOOTH",
"440 471 OFFCURVE",
"474 431 OFFCURVE",
"474 321 CURVE SMOOTH",
"474 215 OFFCURVE",
"440 172 OFFCURVE",
"357 172 CURVE SMOOTH"
);
},
{
closed = 1;
nodes = (
"225 816 LINE",
"152 980 LINE",
"-6 980 LINE",
"75 816 LINE"
);
},
{
closed = 1;
nodes = (
"298 688 LINE",
"357 765 LINE",
"415 688 LINE",
"586 688 LINE",
"436 848 LINE",
"279 848 LINE",
"129 688 LINE"
);
}
);
width = 714;
}
);
leftKerningGroup = O;
note = Ocircumflexgrave;
rightKerningGroup = O;
unicode = 1ED2;
},
{
glyphname = Ocircumflexhookabove;
lastChange = "2015-11-26 04:54:47 +0000";
layers = (
{
layerId = "9422835F-145C-491A-96D7-00A9C7F45A34";
name = Bold;
paths = (
{
closed = 1;
nodes = (
"572 -10 OFFCURVE",
"694 83 OFFCURVE",
"694 321 CURVE SMOOTH",
"694 562 OFFCURVE",
"572 654 OFFCURVE",
"357 654 CURVE SMOOTH",
"141 654 OFFCURVE",
"20 562 OFFCURVE",
"20 321 CURVE SMOOTH",
"20 83 OFFCURVE",
"141 -10 OFFCURVE",
"357 -10 CURVE SMOOTH"
);
},
{
closed = 1;
nodes = (
"273 172 OFFCURVE",
"239 215 OFFCURVE",
"239 321 CURVE SMOOTH",
"239 431 OFFCURVE",
"273 471 OFFCURVE",
"357 471 CURVE SMOOTH",
"440 471 OFFCURVE",
"474 431 OFFCURVE",
"474 321 CURVE SMOOTH",
"474 215 OFFCURVE",
"440 172 OFFCURVE",
"357 172 CURVE SMOOTH"
);
},
{
closed = 1;
nodes = (
"296 688 LINE",
"354 765 LINE",
"413 688 LINE",
"582 688 LINE",
"432 848 LINE",
"275 848 LINE",
"125 688 LINE"
);
},
{
closed = 1;
nodes = (
"638 793 LINE",
"638 825 LINE",
"687 834 OFFCURVE",
"709 866 OFFCURVE",
"709 912 CURVE SMOOTH",
"709 964 OFFCURVE",
"667 1001 OFFCURVE",
"585 1001 CURVE SMOOTH",
"540 1001 OFFCURVE",
"503 996 OFFCURVE",
"477 989 CURVE",
"477 907 LINE",
"491 911 OFFCURVE",
"509 915 OFFCURVE",
"527 915 CURVE SMOOTH",
"551 915 OFFCURVE",
"565 911 OFFCURVE",
"565 897 CURVE SMOOTH",
"565 882 OFFCURVE",
"552 871 OFFCURVE",
"497 870 CURVE",
"497 793 LINE"
);
}
);
width = 714;
}
);
leftKerningGroup = O;
note = Ocircumflexhookabove;
rightKerningGroup = O;
unicode = 1ED4;
},
{
glyphname = Ocircumflextilde;
lastChange = "2015-11-26 04:54:45 +0000";
layers = (
{
layerId = "9422835F-145C-491A-96D7-00A9C7F45A34";
name = Bold;
paths = (
{
closed = 1;
nodes = (
"572 -10 OFFCURVE",
"694 83 OFFCURVE",
"694 321 CURVE SMOOTH",
"694 562 OFFCURVE",
"572 654 OFFCURVE",
"357 654 CURVE SMOOTH",
"141 654 OFFCURVE",
"20 562 OFFCURVE",
"20 321 CURVE SMOOTH",
"20 83 OFFCURVE",
"141 -10 OFFCURVE",
"357 -10 CURVE SMOOTH"
);
},
{
closed = 1;
nodes = (
"273 172 OFFCURVE",
"239 215 OFFCURVE",
"239 321 CURVE SMOOTH",
"239 431 OFFCURVE",
"273 471 OFFCURVE",
"357 471 CURVE SMOOTH",
"440 471 OFFCURVE",
"474 431 OFFCURVE",
"474 321 CURVE SMOOTH",
"474 215 OFFCURVE",
"440 172 OFFCURVE",
"357 172 CURVE SMOOTH"
);
},
{
closed = 1;
nodes = (
"470 688 OFFCURVE",
"547 743 OFFCURVE",
"547 868 CURVE",
"427 868 LINE",
"427 824 OFFCURVE",
"405 792 OFFCURVE",
"357 792 CURVE SMOOTH",
"308 792 OFFCURVE",
"286 824 OFFCURVE",
"286 868 CURVE",
"167 868 LINE",
"167 743 OFFCURVE",
"243 688 OFFCURVE",
"357 688 CURVE SMOOTH"
);
},
{
closed = 1;
nodes = (
"490 889 OFFCURVE",
"524 904 OFFCURVE",
"537 921 CURVE",
"537 1027 LINE",
"521 1004 OFFCURVE",
"489 988 OFFCURVE",
"448 988 CURVE SMOOTH",
"388 988 OFFCURVE",
"337 1029 OFFCURVE",
"272 1029 CURVE SMOOTH",
"234 1029 OFFCURVE",
"198 1015 OFFCURVE",
"180 997 CURVE",
"180 892 LINE",
"203 916 OFFCURVE",
"234 930 OFFCURVE",
"275 930 CURVE SMOOTH",
"329 930 OFFCURVE",
"388 889 OFFCURVE",
"451 889 CURVE SMOOTH"
);
}
);
width = 714;
}
);
leftKerningGroup = O;
note = Ocircumflextilde;
rightKerningGroup = O;
unicode = 1ED6;
},
{
glyphname = Odieresis;
lastChange = "2015-11-26 04:54:45 +0000";
layers = (
{
layerId = "9422835F-145C-491A-96D7-00A9C7F45A34";
name = Bold;
paths = (
{
closed = 1;
nodes = (
"572 -10 OFFCURVE",
"694 83 OFFCURVE",
"694 321 CURVE SMOOTH",
"694 562 OFFCURVE",
"572 654 OFFCURVE",
"357 654 CURVE SMOOTH",
"141 654 OFFCURVE",
"20 562 OFFCURVE",
"20 321 CURVE SMOOTH",
"20 83 OFFCURVE",
"141 -10 OFFCURVE",
"357 -10 CURVE SMOOTH"
);
},
{
closed = 1;
nodes = (
"273 172 OFFCURVE",
"239 215 OFFCURVE",
"239 321 CURVE SMOOTH",
"239 431 OFFCURVE",
"273 471 OFFCURVE",
"357 471 CURVE SMOOTH",
"440 471 OFFCURVE",
"474 431 OFFCURVE",
"474 321 CURVE SMOOTH",
"474 215 OFFCURVE",
"440 172 OFFCURVE",
"357 172 CURVE SMOOTH"
);
},
{
closed = 1;
nodes = (
"316 716 LINE",
"316 847 LINE",
"172 847 LINE",
"172 716 LINE"
);
},
{
closed = 1;
nodes = (
"541 716 LINE",
"541 847 LINE",
"398 847 LINE",
"398 716 LINE"
);
}
);
width = 714;
}
);
leftKerningGroup = O;
note = Odieresis;
rightKerningGroup = O;
unicode = 00D6;
},
{
glyphname = Odotbelow;
lastChange = "2015-11-26 04:58:31 +0000";
layers = (
{
layerId = "9422835F-145C-491A-96D7-00A9C7F45A34";
name = Bold;
paths = (
{
closed = 1;
nodes = (
"572 -10 OFFCURVE",
"694 83 OFFCURVE",
"694 321 CURVE SMOOTH",
"694 562 OFFCURVE",
"572 654 OFFCURVE",
"357 654 CURVE SMOOTH",
"141 654 OFFCURVE",
"20 562 OFFCURVE",
"20 321 CURVE SMOOTH",
"20 83 OFFCURVE",
"141 -10 OFFCURVE",
"357 -10 CURVE SMOOTH"
);
},
{
closed = 1;
nodes = (
"273 172 OFFCURVE",
"239 215 OFFCURVE",
"239 321 CURVE SMOOTH",
"239 431 OFFCURVE",
"273 471 OFFCURVE",
"357 471 CURVE SMOOTH",
"440 471 OFFCURVE",
"474 431 OFFCURVE",
"474 321 CURVE SMOOTH",
"474 215 OFFCURVE",
"440 172 OFFCURVE",
"357 172 CURVE SMOOTH"
);
},
{
closed = 1;
nodes = (
"429 -176 LINE",
"429 -46 LINE",
"286 -46 LINE",
"286 -176 LINE"
);
}
);
width = 714;
}
);
leftKerningGroup = O;
note = Odotbelow;
rightKerningGroup = O;
unicode = 1ECC;
},
{
glyphname = Ograve;
lastChange = "2015-11-26 04:54:45 +0000";
layers = (
{
layerId = "9422835F-145C-491A-96D7-00A9C7F45A34";
name = Bold;
paths = (
{
closed = 1;
nodes = (
"572 -10 OFFCURVE",
"694 83 OFFCURVE",
"694 321 CURVE SMOOTH",
"694 562 OFFCURVE",
"572 654 OFFCURVE",
"357 654 CURVE SMOOTH",
"141 654 OFFCURVE",
"20 562 OFFCURVE",
"20 321 CURVE SMOOTH",
"20 83 OFFCURVE",
"141 -10 OFFCURVE",
"357 -10 CURVE SMOOTH"
);
},
{
closed = 1;
nodes = (
"273 172 OFFCURVE",
"239 215 OFFCURVE",
"239 321 CURVE SMOOTH",
"239 431 OFFCURVE",
"273 471 OFFCURVE",
"357 471 CURVE SMOOTH",
"440 471 OFFCURVE",
"474 431 OFFCURVE",
"474 321 CURVE SMOOTH",
"474 215 OFFCURVE",
"440 172 OFFCURVE",
"357 172 CURVE SMOOTH"
);
},
{
closed = 1;
nodes = (
"441 688 LINE",
"349 904 LINE",
"182 904 LINE",
"283 688 LINE"
);
}
);
width = 714;
}
);
leftKerningGroup = O;
note = Ograve;
rightKerningGroup = O;
unicode = 00D2;
},
{
glyphname = Ohookabove;
lastChange = "2015-11-26 04:54:45 +0000";
layers = (
{
layerId = "9422835F-145C-491A-96D7-00A9C7F45A34";
name = Bold;
paths = (
{
closed = 1;
nodes = (
"572 -10 OFFCURVE",
"694 83 OFFCURVE",
"694 321 CURVE SMOOTH",
"694 562 OFFCURVE",
"572 654 OFFCURVE",
"357 654 CURVE SMOOTH",
"141 654 OFFCURVE",
"20 562 OFFCURVE",
"20 321 CURVE SMOOTH",
"20 83 OFFCURVE",
"141 -10 OFFCURVE",
"357 -10 CURVE SMOOTH"
);
},
{
closed = 1;
nodes = (
"273 172 OFFCURVE",
"239 215 OFFCURVE",
"239 321 CURVE SMOOTH",
"239 431 OFFCURVE",
"273 471 OFFCURVE",
"357 471 CURVE SMOOTH",
"440 471 OFFCURVE",
"474 431 OFFCURVE",
"474 321 CURVE SMOOTH",
"474 215 OFFCURVE",
"440 172 OFFCURVE",
"357 172 CURVE SMOOTH"
);
},
{
closed = 1;
nodes = (
"431 688 LINE",
"431 726 LINE",
"487 743 OFFCURVE",
"514 769 OFFCURVE",
"514 828 CURVE SMOOTH",
"514 888 OFFCURVE",
"462 932 OFFCURVE",
"368 932 CURVE SMOOTH",
"315 932 OFFCURVE",
"275 927 OFFCURVE",
"245 918 CURVE",
"245 832 LINE",
"261 837 OFFCURVE",
"283 841 OFFCURVE",
"303 841 CURVE SMOOTH",
"339 841 OFFCURVE",
"358 832 OFFCURVE",
"358 810 CURVE SMOOTH",
"358 788 OFFCURVE",
"338 773 OFFCURVE",
"271 769 CURVE",
"271 688 LINE"
);
}
);
width = 714;
}
);
leftKerningGroup = O;
note = Ohookabove;
rightKerningGroup = O;
unicode = 1ECE;
},
{
glyphname = Ohorn;
lastChange = "2015-11-26 04:58:48 +0000";
layers = (
{
layerId = "9422835F-145C-491A-96D7-00A9C7F45A34";
name = Bold;
paths = (
{
closed = 1;
nodes = (
"20 83 OFFCURVE",
"141 -10 OFFCURVE",
"357 -10 CURVE SMOOTH",
"572 -10 OFFCURVE",
"694 83 OFFCURVE",
"694 321 CURVE SMOOTH",
"694 383.529 OFFCURVE",
"685.787 436.028 OFFCURVE",
"669.868 479.492 CURVE",
"758.029 501.664 OFFCURVE",
"795 561.095 OFFCURVE",
"795 688 CURVE",
"662 688 LINE",
"662 622.131 OFFCURVE",
"642.204 596.714 OFFCURVE",
"590.635 590.989 CURVE",
"534 634.807 OFFCURVE",
"455.201 654 OFFCURVE",
"357 654 CURVE SMOOTH",
"141 654 OFFCURVE",
"20 562 OFFCURVE",
"20 321 CURVE SMOOTH"
);
},
{
closed = 1;
nodes = (
"239 431 OFFCURVE",
"273 471 OFFCURVE",
"357 471 CURVE SMOOTH",
"440 471 OFFCURVE",
"474 431 OFFCURVE",
"474 321 CURVE SMOOTH",
"474 215 OFFCURVE",
"440 172 OFFCURVE",
"357 172 CURVE SMOOTH",
"273 172 OFFCURVE",
"239 215 OFFCURVE",
"239 321 CURVE SMOOTH"
);
}
);
width = 805;
}
);
leftKerningGroup = O;
note = Ohorn;
rightKerningGroup = O;
unicode = 01A0;
},
{
glyphname = Ohornacute;
lastChange = "2015-11-26 05:00:02 +0000";
layers = (
{
layerId = "9422835F-145C-491A-96D7-00A9C7F45A34";
name = Bold;
paths = (
{
closed = 1;
nodes = (
"20 83 OFFCURVE",
"141 -10 OFFCURVE",
"357 -10 CURVE SMOOTH",
"572 -10 OFFCURVE",
"694 83 OFFCURVE",
"694 321 CURVE SMOOTH",
"694 383.529 OFFCURVE",
"685.787 436.028 OFFCURVE",
"669.868 479.492 CURVE",
"758.029 501.664 OFFCURVE",
"795 561.095 OFFCURVE",
"795 688 CURVE",
"662 688 LINE",
"662 622.131 OFFCURVE",
"642.204 596.714 OFFCURVE",
"590.635 590.989 CURVE",
"534.001 634.807 OFFCURVE",
"455.201 654 OFFCURVE",
"357 654 CURVE SMOOTH",
"141 654 OFFCURVE",
"20 562 OFFCURVE",
"20 321 CURVE SMOOTH"
);
},
{
closed = 1;
nodes = (
"239 431 OFFCURVE",
"273 471 OFFCURVE",
"357 471 CURVE SMOOTH",
"440 471 OFFCURVE",
"474 431 OFFCURVE",
"474 321 CURVE SMOOTH",
"474 215 OFFCURVE",
"440 172 OFFCURVE",
"357 172 CURVE SMOOTH",
"273 172 OFFCURVE",
"239 215 OFFCURVE",
"239 321 CURVE SMOOTH"
);
},
{
closed = 1;
nodes = (
"435 688 LINE",
"536 904 LINE",
"370 904 LINE",
"278 688 LINE"
);
}
);
width = 805;
}
);
leftKerningGroup = O;
note = Ohornacute;
rightKerningGroup = O;
unicode = 1EDA;
},
{
glyphname = Ohorndotbelow;
lastChange = "2015-11-26 04:59:58 +0000";
layers = (
{
layerId = "9422835F-145C-491A-96D7-00A9C7F45A34";
name = Bold;
paths = (
{
closed = 1;
nodes = (
"20 83 OFFCURVE",
"141 -10 OFFCURVE",
"357 -10 CURVE SMOOTH",
"572 -10 OFFCURVE",
"694 83 OFFCURVE",
"694 321 CURVE SMOOTH",
"694 383.529 OFFCURVE",
"685.787 436.028 OFFCURVE",
"669.868 479.492 CURVE",
"758.029 501.664 OFFCURVE",
"795 561.095 OFFCURVE",
"795 688 CURVE",
"662 688 LINE",
"662 622.131 OFFCURVE",
"642.204 596.714 OFFCURVE",
"590.635 590.989 CURVE",
"534.001 634.807 OFFCURVE",
"455.201 654 OFFCURVE",
"357 654 CURVE SMOOTH",
"141 654 OFFCURVE",
"20 562 OFFCURVE",
"20 321 CURVE SMOOTH"
);
},
{
closed = 1;
nodes = (
"239 431 OFFCURVE",
"273 471 OFFCURVE",
"357 471 CURVE SMOOTH",
"440 471 OFFCURVE",
"474 431 OFFCURVE",
"474 321 CURVE SMOOTH",
"474 215 OFFCURVE",
"440 172 OFFCURVE",
"357 172 CURVE SMOOTH",
"273 172 OFFCURVE",
"239 215 OFFCURVE",
"239 321 CURVE SMOOTH"
);
},
{
closed = 1;
nodes = (
"428 -176 LINE",
"428 -46 LINE",
"285 -46 LINE",
"285 -176 LINE"
);
}
);
width = 805;
}
);
leftKerningGroup = O;
note = Ohorndotbelow;
rightKerningGroup = O;
unicode = 1EE2;
},
{
glyphname = Ohorngrave;
lastChange = "2015-11-26 04:59:54 +0000";
layers = (
{
layerId = "9422835F-145C-491A-96D7-00A9C7F45A34";
name = Bold;
paths = (
{
closed = 1;
nodes = (
"20 83 OFFCURVE",
"141 -10 OFFCURVE",
"357 -10 CURVE SMOOTH",
"572 -10 OFFCURVE",
"694 83 OFFCURVE",
"694 321 CURVE SMOOTH",
"694 383.529 OFFCURVE",
"685.787 436.028 OFFCURVE",
"669.868 479.492 CURVE",
"758.029 501.664 OFFCURVE",
"795 561.095 OFFCURVE",
"795 688 CURVE",
"662 688 LINE",
"662 622.131 OFFCURVE",
"642.204 596.714 OFFCURVE",
"590.635 590.989 CURVE",
"534.001 634.807 OFFCURVE",
"455.201 654 OFFCURVE",
"357 654 CURVE SMOOTH",
"141 654 OFFCURVE",
"20 562 OFFCURVE",
"20 321 CURVE SMOOTH"
);
},
{
closed = 1;
nodes = (
"239 431 OFFCURVE",
"273 471 OFFCURVE",
"357 471 CURVE SMOOTH",
"440 471 OFFCURVE",
"474 431 OFFCURVE",
"474 321 CURVE SMOOTH",
"474 215 OFFCURVE",
"440 172 OFFCURVE",
"357 172 CURVE SMOOTH",
"273 172 OFFCURVE",
"239 215 OFFCURVE",
"239 321 CURVE SMOOTH"
);
},
{
closed = 1;
nodes = (
"449 688 LINE",
"357 904 LINE",
"190 904 LINE",
"291 688 LINE"
);
}
);
width = 805;
}
);
leftKerningGroup = O;
note = Ohorngrave;
rightKerningGroup = O;
unicode = 1EDC;
},
{
glyphname = Ohornhookabove;
lastChange = "2015-11-26 04:59:50 +0000";
layers = (
{
layerId = "9422835F-145C-491A-96D7-00A9C7F45A34";
name = Bold;
paths = (
{
closed = 1;
nodes = (
"20 83 OFFCURVE",
"141 -10 OFFCURVE",
"357 -10 CURVE SMOOTH",
"572 -10 OFFCURVE",
"694 83 OFFCURVE",
"694 321 CURVE SMOOTH",
"694 383.529 OFFCURVE",
"685.787 436.028 OFFCURVE",
"669.868 479.492 CURVE",
"758.029 501.664 OFFCURVE",
"795 561.095 OFFCURVE",
"795 688 CURVE",
"662 688 LINE",
"662 622.131 OFFCURVE",
"642.204 596.714 OFFCURVE",
"590.635 590.989 CURVE",
"534.001 634.807 OFFCURVE",
"455.201 654 OFFCURVE",
"357 654 CURVE SMOOTH",
"141 654 OFFCURVE",
"20 562 OFFCURVE",
"20 321 CURVE SMOOTH"
);
},
{
closed = 1;
nodes = (
"239 431 OFFCURVE",
"273 471 OFFCURVE",
"357 471 CURVE SMOOTH",
"440 471 OFFCURVE",
"474 431 OFFCURVE",
"474 321 CURVE SMOOTH",
"474 215 OFFCURVE",
"440 172 OFFCURVE",
"357 172 CURVE SMOOTH",
"273 172 OFFCURVE",
"239 215 OFFCURVE",
"239 321 CURVE SMOOTH"
);
},
{
closed = 1;
nodes = (
"433 688 LINE",
"433 726 LINE",
"489 743 OFFCURVE",
"516 769 OFFCURVE",
"516 828 CURVE SMOOTH",
"516 888 OFFCURVE",
"464 932 OFFCURVE",
"370 932 CURVE SMOOTH",
"317 932 OFFCURVE",
"277 927 OFFCURVE",
"247 918 CURVE",
"247 832 LINE",
"263 837 OFFCURVE",
"285 841 OFFCURVE",
"305 841 CURVE SMOOTH",
"341 841 OFFCURVE",
"360 832 OFFCURVE",
"360 810 CURVE SMOOTH",
"360 788 OFFCURVE",
"340 773 OFFCURVE",
"273 769 CURVE",
"273 688 LINE"
);
}
);
width = 805;
}
);
leftKerningGroup = O;
note = Ohornhookabove;
rightKerningGroup = O;
unicode = 1EDE;
},
{
glyphname = Ohorntilde;
lastChange = "2015-11-26 04:59:46 +0000";
layers = (
{
layerId = "9422835F-145C-491A-96D7-00A9C7F45A34";
name = Bold;
paths = (
{
closed = 1;
nodes = (
"20 83 OFFCURVE",
"141 -10 OFFCURVE",
"357 -10 CURVE SMOOTH",
"572 -10 OFFCURVE",
"694 83 OFFCURVE",
"694 321 CURVE SMOOTH",
"694 383.529 OFFCURVE",
"685.787 436.028 OFFCURVE",
"669.868 479.492 CURVE",
"758.029 501.664 OFFCURVE",
"795 561.095 OFFCURVE",
"795 688 CURVE",
"662 688 LINE",
"662 622.131 OFFCURVE",
"642.204 596.714 OFFCURVE",
"590.635 590.989 CURVE",
"534.001 634.807 OFFCURVE",
"455.201 654 OFFCURVE",
"357 654 CURVE SMOOTH",
"141 654 OFFCURVE",
"20 562 OFFCURVE",
"20 321 CURVE SMOOTH"
);
},
{
closed = 1;
nodes = (
"239 431 OFFCURVE",
"273 471 OFFCURVE",
"357 471 CURVE SMOOTH",
"440 471 OFFCURVE",
"474 431 OFFCURVE",
"474 321 CURVE SMOOTH",
"474 215 OFFCURVE",
"440 172 OFFCURVE",
"357 172 CURVE SMOOTH",
"273 172 OFFCURVE",
"239 215 OFFCURVE",
"239 321 CURVE SMOOTH"
);
},
{
closed = 1;
nodes = (
"500 690 OFFCURVE",
"537 706 OFFCURVE",
"550 724 CURVE",
"550 854 LINE",
"534 831 OFFCURVE",
"500 813 OFFCURVE",
"456 813 CURVE SMOOTH",
"390 813 OFFCURVE",
"335 856 OFFCURVE",
"265 856 CURVE SMOOTH",
"225 856 OFFCURVE",
"186 840 OFFCURVE",
"167 822 CURVE",
"167 693 LINE",
"191 717 OFFCURVE",
"224 733 OFFCURVE",
"268 733 CURVE SMOOTH",
"326 733 OFFCURVE",
"390 690 OFFCURVE",
"459 690 CURVE SMOOTH"
);
}
);
width = 805;
}
);
leftKerningGroup = O;
note = Ohorntilde;
rightKerningGroup = O;
unicode = 1EE0;
},
{
glyphname = Ohungarumlaut;
lastChange = "2015-11-26 04:54:46 +0000";
layers = (
{
layerId = "9422835F-145C-491A-96D7-00A9C7F45A34";
name = Bold;
paths = (
{
closed = 1;
nodes = (
"572 -10 OFFCURVE",
"694 83 OFFCURVE",
"694 321 CURVE SMOOTH",
"694 562 OFFCURVE",
"572 654 OFFCURVE",
"357 654 CURVE SMOOTH",
"141 654 OFFCURVE",
"20 562 OFFCURVE",
"20 321 CURVE SMOOTH",
"20 83 OFFCURVE",
"141 -10 OFFCURVE",
"357 -10 CURVE SMOOTH"
);
},
{
closed = 1;
nodes = (
"273 172 OFFCURVE",
"239 215 OFFCURVE",
"239 321 CURVE SMOOTH",
"239 431 OFFCURVE",
"273 471 OFFCURVE",
"357 471 CURVE SMOOTH",
"440 471 OFFCURVE",
"474 431 OFFCURVE",
"474 321 CURVE SMOOTH",
"474 215 OFFCURVE",
"440 172 OFFCURVE",
"357 172 CURVE SMOOTH"
);
},
{
closed = 1;
nodes = (
"280 688 LINE",
"388 882 LINE",
"206 882 LINE",
"116 688 LINE"
);
},
{
closed = 1;
nodes = (
"532 688 LINE",
"640 882 LINE",
"458 882 LINE",
"368 688 LINE"
);
}
);
width = 714;
}
);
leftKerningGroup = O;
note = Ohungarumlaut;
rightKerningGroup = O;
unicode = 0150;
},
{
glyphname = Omacron;
lastChange = "2015-11-26 04:54:46 +0000";
layers = (
{
layerId = "9422835F-145C-491A-96D7-00A9C7F45A34";
name = Bold;
paths = (
{
closed = 1;
nodes = (
"572 -10 OFFCURVE",
"694 83 OFFCURVE",
"694 321 CURVE SMOOTH",
"694 562 OFFCURVE",
"572 654 OFFCURVE",
"357 654 CURVE SMOOTH",
"141 654 OFFCURVE",
"20 562 OFFCURVE",
"20 321 CURVE SMOOTH",
"20 83 OFFCURVE",
"141 -10 OFFCURVE",
"357 -10 CURVE SMOOTH"
);
},
{
closed = 1;
nodes = (
"273 172 OFFCURVE",
"239 215 OFFCURVE",
"239 321 CURVE SMOOTH",
"239 431 OFFCURVE",
"273 471 OFFCURVE",
"357 471 CURVE SMOOTH",
"440 471 OFFCURVE",
"474 431 OFFCURVE",
"474 321 CURVE SMOOTH",
"474 215 OFFCURVE",
"440 172 OFFCURVE",
"357 172 CURVE SMOOTH"
);
},
{
closed = 1;
nodes = (
"522 726 LINE",
"522 852 LINE",
"183 852 LINE",
"183 726 LINE"
);
}
);
width = 714;
}
);
leftKerningGroup = O;
note = Omacron;
rightKerningGroup = O;
unicode = 014C;
},
{
glyphname = Oslash;
lastChange = "2015-11-26 04:54:46 +0000";
layers = (
{
layerId = "9422835F-145C-491A-96D7-00A9C7F45A34";
name = Bold;
paths = (
{
closed = 1;
nodes = (
"249 -53 LINE",
"268 -4 LINE",
"296 -8 OFFCURVE",
"325 -10 OFFCURVE",
"357 -10 CURVE SMOOTH",
"572 -10 OFFCURVE",
"694 83 OFFCURVE",
"694 321 CURVE SMOOTH",
"694 491 OFFCURVE",
"633 587 OFFCURVE",
"522 628 CURVE",
"548 693 LINE",
"458 693 LINE",
"440 648 LINE",
"414 652 OFFCURVE",
"386 654 OFFCURVE",
"357 654 CURVE SMOOTH",
"141 654 OFFCURVE",
"20 562 OFFCURVE",
"20 321 CURVE SMOOTH",
"20 155 OFFCURVE",
"78 60 OFFCURVE",
"187 17 CURVE",
"159 -53 LINE"
);
},
{
closed = 1;
nodes = (
"245 231 OFFCURVE",
"237 268 OFFCURVE",
"237 321 CURVE SMOOTH",
"237 433 OFFCURVE",
"271 474 OFFCURVE",
"357 474 CURVE SMOOTH",
"361 474 OFFCURVE",
"366 473 OFFCURVE",
"370 473 CURVE",
"263 206 LINE"
);
},
{
closed = 1;
nodes = (
"447 441 LINE",
"467 417 OFFCURVE",
"477 378 OFFCURVE",
"477 321 CURVE SMOOTH",
"477 212 OFFCURVE",
"442 169 OFFCURVE",
"357 169 CURVE SMOOTH",
"338 169 LINE"
);
}
);
width = 714;
}
);
leftKerningGroup = O;
note = Oslash;
rightKerningGroup = O;
unicode = 00D8;
},
{
glyphname = Oslashacute;
lastChange = "2015-11-26 04:54:45 +0000";
layers = (
{
layerId = "9422835F-145C-491A-96D7-00A9C7F45A34";
name = Bold;
paths = (
{
closed = 1;
nodes = (
"249 -53 LINE",
"268 -4 LINE",
"296 -8 OFFCURVE",
"325 -10 OFFCURVE",
"357 -10 CURVE SMOOTH",
"572 -10 OFFCURVE",
"694 83 OFFCURVE",
"694 321 CURVE SMOOTH",
"694 491 OFFCURVE",
"633 587 OFFCURVE",
"522 628 CURVE",
"548 693 LINE",
"458 693 LINE",
"440 648 LINE",
"414 652 OFFCURVE",
"386 654 OFFCURVE",
"357 654 CURVE SMOOTH",
"141 654 OFFCURVE",
"20 562 OFFCURVE",
"20 321 CURVE SMOOTH",
"20 155 OFFCURVE",
"78 60 OFFCURVE",
"187 17 CURVE",
"159 -53 LINE"
);
},
{
closed = 1;
nodes = (
"245 231 OFFCURVE",
"237 268 OFFCURVE",
"237 321 CURVE SMOOTH",
"237 433 OFFCURVE",
"271 474 OFFCURVE",
"357 474 CURVE SMOOTH",
"361 474 OFFCURVE",
"366 473 OFFCURVE",
"370 473 CURVE",
"263 206 LINE"
);
},
{
closed = 1;
nodes = (
"447 441 LINE",
"467 417 OFFCURVE",
"477 378 OFFCURVE",
"477 321 CURVE SMOOTH",
"477 212 OFFCURVE",
"442 169 OFFCURVE",
"357 169 CURVE SMOOTH",
"338 169 LINE"
);
},
{
closed = 1;
nodes = (
"409 688 LINE",
"510 904 LINE",
"344 904 LINE",
"252 688 LINE"
);
}
);
width = 714;
}
);
leftKerningGroup = O;
note = Oslashacute;
rightKerningGroup = O;
unicode = 01FE;
},
{
glyphname = Otilde;
lastChange = "2015-11-26 04:54:45 +0000";
layers = (
{
layerId = "9422835F-145C-491A-96D7-00A9C7F45A34";
name = Bold;
paths = (
{
closed = 1;
nodes = (
"572 -10 OFFCURVE",
"694 83 OFFCURVE",
"694 321 CURVE SMOOTH",
"694 562 OFFCURVE",
"572 654 OFFCURVE",
"357 654 CURVE SMOOTH",
"141 654 OFFCURVE",
"20 562 OFFCURVE",
"20 321 CURVE SMOOTH",
"20 83 OFFCURVE",
"141 -10 OFFCURVE",
"357 -10 CURVE SMOOTH"
);
},
{
closed = 1;
nodes = (
"273 172 OFFCURVE",
"239 215 OFFCURVE",
"239 321 CURVE SMOOTH",
"239 431 OFFCURVE",
"273 471 OFFCURVE",
"357 471 CURVE SMOOTH",
"440 471 OFFCURVE",
"474 431 OFFCURVE",
"474 321 CURVE SMOOTH",
"474 215 OFFCURVE",
"440 172 OFFCURVE",
"357 172 CURVE SMOOTH"
);
},
{
closed = 1;
nodes = (
"499 712 OFFCURVE",
"536 728 OFFCURVE",
"549 746 CURVE",
"549 876 LINE",
"533 853 OFFCURVE",
"499 835 OFFCURVE",
"455 835 CURVE SMOOTH",
"389 835 OFFCURVE",
"334 878 OFFCURVE",
"264 878 CURVE SMOOTH",
"224 878 OFFCURVE",
"185 862 OFFCURVE",
"166 844 CURVE",
"166 715 LINE",
"190 739 OFFCURVE",
"223 755 OFFCURVE",
"267 755 CURVE SMOOTH",
"325 755 OFFCURVE",
"389 712 OFFCURVE",
"458 712 CURVE SMOOTH"
);
}
);
width = 714;
}
);
leftKerningGroup = O;
note = Otilde;
rightKerningGroup = O;
unicode = 00D5;
},
{
glyphname = OE;
lastChange = "2015-11-26 04:54:46 +0000";
layers = (
{
layerId = "9422835F-145C-491A-96D7-00A9C7F45A34";
name = Bold;
paths = (
{
closed = 1;
nodes = (
"572 -10 OFFCURVE",
"694 83 OFFCURVE",
"694 321 CURVE SMOOTH",
"694 562 OFFCURVE",
"572 654 OFFCURVE",
"357 654 CURVE SMOOTH",
"141 654 OFFCURVE",
"20 562 OFFCURVE",
"20 321 CURVE SMOOTH",
"20 83 OFFCURVE",
"141 -10 OFFCURVE",
"357 -10 CURVE SMOOTH"
);
},
{
closed = 1;
nodes = (
"273 172 OFFCURVE",
"239 215 OFFCURVE",
"239 321 CURVE SMOOTH",
"239 431 OFFCURVE",
"273 471 OFFCURVE",
"357 471 CURVE SMOOTH",
"440 471 OFFCURVE",
"474 431 OFFCURVE",
"474 321 CURVE SMOOTH",
"474 215 OFFCURVE",
"440 172 OFFCURVE",
"357 172 CURVE SMOOTH"
);
},
{
closed = 1;
nodes = (
"977 0 LINE",
"977 159 LINE",
"691 159 LINE",
"691 240 LINE",
"940 240 LINE",
"940 403 LINE",
"691 403 LINE",
"691 485 LINE",
"977 485 LINE",
"977 644 LINE",
"476 644 LINE",
"476 0 LINE"
);
}
);
width = 997;
}
);
leftKerningGroup = C;
note = OE;
unicode = 0152;
},
{
glyphname = P;
lastChange = "2015-11-26 04:54:46 +0000";
layers = (
{
layerId = "9422835F-145C-491A-96D7-00A9C7F45A34";
name = Bold;
paths = (
{
closed = 1;
nodes = (
"255 0 LINE",
"255 158 LINE",
"383 158 LINE SMOOTH",
"530 158 OFFCURVE",
"625 261 OFFCURVE",
"625 400 CURVE SMOOTH",
"625 534 OFFCURVE",
"548 644 OFFCURVE",
"387 644 CURVE SMOOTH",
"40 644 LINE",
"40 0 LINE"
);
},
{
closed = 1;
nodes = (
"255 477 LINE",
"337 477 LINE SMOOTH",
"384 477 OFFCURVE",
"406 448 OFFCURVE",
"406 400 CURVE SMOOTH",
"406 355 OFFCURVE",
"381 325 OFFCURVE",
"333 325 CURVE SMOOTH",
"255 325 LINE"
);
}
);
width = 625;
}
);
note = P;
unicode = 0050;
},
{
glyphname = Thorn;
lastChange = "2015-11-26 05:00:15 +0000";
layers = (
{
layerId = "9422835F-145C-491A-96D7-00A9C7F45A34";
name = Bold;
paths = (
{
closed = 1;
nodes = (
"255 0 LINE",
"255 81 LINE",
"383 81 LINE SMOOTH",
"530 81 OFFCURVE",
"625 182 OFFCURVE",
"625 321 CURVE SMOOTH",
"625 455 OFFCURVE",
"548 562 OFFCURVE",
"387 562 CURVE SMOOTH",
"255 562 LINE",
"255 644 LINE",
"40 644 LINE",
"40 0 LINE"
);
},
{
closed = 1;
nodes = (
"255 396 LINE",
"337 396 LINE SMOOTH",
"384 396 OFFCURVE",
"406 369 OFFCURVE",
"406 321 CURVE SMOOTH",
"406 276 OFFCURVE",
"381 247 OFFCURVE",
"333 247 CURVE SMOOTH",
"255 247 LINE"
);
}
);
width = 625;
}
);
note = Thorn;
unicode = 00DE;
},
{
glyphname = Q;
lastChange = "2015-11-26 04:54:46 +0000";
layers = (
{
layerId = "9422835F-145C-491A-96D7-00A9C7F45A34";
name = Bold;
paths = (
{
closed = 1;
nodes = (
"496 -172 OFFCURVE",
"537 -166 OFFCURVE",
"560 -159 CURVE",
"560 -34 LINE",
"539 -41 OFFCURVE",
"515 -45 OFFCURVE",
"493 -45 CURVE SMOOTH",
"459 -45 OFFCURVE",
"443 -36 OFFCURVE",
"440 -4 CURVE",
"603 18 OFFCURVE",
"694 116 OFFCURVE",
"694 321 CURVE SMOOTH",
"694 562 OFFCURVE",
"572 654 OFFCURVE",
"357 654 CURVE SMOOTH",
"141 654 OFFCURVE",
"20 562 OFFCURVE",
"20 321 CURVE SMOOTH",
"20 117 OFFCURVE",
"109 20 OFFCURVE",
"270 -4 CURVE",
"272 -110 OFFCURVE",
"325 -172 OFFCURVE",
"458 -172 CURVE SMOOTH"
);
},
{
closed = 1;
nodes = (
"273 172 OFFCURVE",
"239 215 OFFCURVE",
"239 321 CURVE SMOOTH",
"239 431 OFFCURVE",
"273 471 OFFCURVE",
"357 471 CURVE SMOOTH",
"440 471 OFFCURVE",
"474 431 OFFCURVE",
"474 321 CURVE SMOOTH",
"474 215 OFFCURVE",
"440 172 OFFCURVE",
"357 172 CURVE SMOOTH"
);
}
);
width = 714;
}
);
leftKerningGroup = O;
note = Q;
rightKerningGroup = O;
unicode = 0051;
},
{
glyphname = R;
lastChange = "2015-11-26 04:54:46 +0000";
layers = (
{
layerId = "9422835F-145C-491A-96D7-00A9C7F45A34";
name = Bold;
paths = (
{
closed = 1;
nodes = (
"255 0 LINE",
"255 176 LINE",
"286 176 LINE SMOOTH",
"308 176 OFFCURVE",
"317 169 OFFCURVE",
"326 149 CURVE SMOOTH",
"392 0 LINE",
"616 0 LINE",
"541 172 LINE SMOOTH",
"532 192 OFFCURVE",
"523 205 OFFCURVE",
"509 216 CURVE",
"576 255 OFFCURVE",
"625 322 OFFCURVE",
"625 409 CURVE SMOOTH",
"625 545 OFFCURVE",
"549 644 OFFCURVE",
"388 644 CURVE SMOOTH",
"40 644 LINE",
"40 0 LINE"
);
},
{
closed = 1;
nodes = (
"255 477 LINE",
"339 477 LINE SMOOTH",
"384 477 OFFCURVE",
"406 455 OFFCURVE",
"406 409 CURVE SMOOTH",
"406 365 OFFCURVE",
"381 342 OFFCURVE",
"334 342 CURVE SMOOTH",
"255 342 LINE"
);
}
);
width = 645;
}
);
note = R;
rightKerningGroup = R;
unicode = 0052;
},
{
glyphname = Racute;
lastChange = "2015-11-26 04:54:47 +0000";
layers = (
{
layerId = "9422835F-145C-491A-96D7-00A9C7F45A34";
name = Bold;
paths = (
{
closed = 1;
nodes = (
"255 0 LINE",
"255 176 LINE",
"286 176 LINE SMOOTH",
"308 176 OFFCURVE",
"317 169 OFFCURVE",
"326 149 CURVE SMOOTH",
"392 0 LINE",
"616 0 LINE",
"541 172 LINE SMOOTH",
"532 192 OFFCURVE",
"523 205 OFFCURVE",
"509 216 CURVE",
"576 255 OFFCURVE",
"625 322 OFFCURVE",
"625 409 CURVE SMOOTH",
"625 545 OFFCURVE",
"549 644 OFFCURVE",
"388 644 CURVE SMOOTH",
"40 644 LINE",
"40 0 LINE"
);
},
{
closed = 1;
nodes = (
"255 477 LINE",
"339 477 LINE SMOOTH",
"384 477 OFFCURVE",
"406 455 OFFCURVE",
"406 409 CURVE SMOOTH",
"406 365 OFFCURVE",
"381 342 OFFCURVE",
"334 342 CURVE SMOOTH",
"255 342 LINE"
);
},
{
closed = 1;
nodes = (
"348 688 LINE",
"449 904 LINE",
"283 904 LINE",
"191 688 LINE"
);
}
);
width = 645;
}
);
note = Racute;
rightKerningGroup = R;
unicode = 0154;
},
{
glyphname = Rcaron;
lastChange = "2015-11-26 04:54:46 +0000";
layers = (
{
layerId = "9422835F-145C-491A-96D7-00A9C7F45A34";
name = Bold;
paths = (
{
closed = 1;
nodes = (
"255 0 LINE",
"255 176 LINE",
"286 176 LINE SMOOTH",
"308 176 OFFCURVE",
"317 169 OFFCURVE",
"326 149 CURVE SMOOTH",
"392 0 LINE",
"616 0 LINE",
"541 172 LINE SMOOTH",
"532 192 OFFCURVE",
"523 205 OFFCURVE",
"509 216 CURVE",
"576 255 OFFCURVE",
"625 322 OFFCURVE",
"625 409 CURVE SMOOTH",
"625 545 OFFCURVE",
"549 644 OFFCURVE",
"388 644 CURVE SMOOTH",
"40 644 LINE",
"40 0 LINE"
);
},
{
closed = 1;
nodes = (
"255 477 LINE",
"339 477 LINE SMOOTH",
"384 477 OFFCURVE",
"406 455 OFFCURVE",
"406 409 CURVE SMOOTH",
"406 365 OFFCURVE",
"381 342 OFFCURVE",
"334 342 CURVE SMOOTH",
"255 342 LINE"
);
},
{
closed = 1;
nodes = (
"349 688 LINE",
"514 896 LINE",
"362 896 LINE",
"286 788 LINE",
"213 896 LINE",
"57 896 LINE",
"222 688 LINE"
);
}
);
width = 645;
}
);
note = Rcaron;
rightKerningGroup = R;
unicode = 0158;
},
{
glyphname = Rcommaaccent;
lastChange = "2015-11-26 05:00:39 +0000";
layers = (
{
layerId = "9422835F-145C-491A-96D7-00A9C7F45A34";
name = Bold;
paths = (
{
closed = 1;
nodes = (
"255 0 LINE",
"255 176 LINE",
"286 176 LINE SMOOTH",
"308 176 OFFCURVE",
"317 169 OFFCURVE",
"326 149 CURVE SMOOTH",
"392 0 LINE",
"616 0 LINE",
"541 172 LINE SMOOTH",
"532 192 OFFCURVE",
"523 205 OFFCURVE",
"509 216 CURVE",
"576 255 OFFCURVE",
"625 322 OFFCURVE",
"625 409 CURVE SMOOTH",
"625 545 OFFCURVE",
"549 644 OFFCURVE",
"388 644 CURVE SMOOTH",
"40 644 LINE",
"40 0 LINE"
);
},
{
closed = 1;
nodes = (
"255 477 LINE",
"339 477 LINE SMOOTH",
"384 477 OFFCURVE",
"406 455 OFFCURVE",
"406 409 CURVE SMOOTH",
"406 365 OFFCURVE",
"381 342 OFFCURVE",
"334 342 CURVE SMOOTH",
"255 342 LINE"
);
},
{
closed = 1;
nodes = (
"341 -274 LINE",
"402 -37 LINE",
"236 -37 LINE",
"201 -274 LINE"
);
}
);
width = 645;
}
);
note = Rcommaaccent;
rightKerningGroup = R;
unicode = 0156;
},
{
glyphname = Rdotbelow;
lastChange = "2015-11-26 05:00:43 +0000";
layers = (
{
layerId = "9422835F-145C-491A-96D7-00A9C7F45A34";
name = Bold;
paths = (
{
closed = 1;
nodes = (
"255 0 LINE",
"255 176 LINE",
"286 176 LINE SMOOTH",
"308 176 OFFCURVE",
"317 169 OFFCURVE",
"326 149 CURVE SMOOTH",
"392 0 LINE",
"616 0 LINE",
"541 172 LINE SMOOTH",
"532 192 OFFCURVE",
"523 205 OFFCURVE",
"509 216 CURVE",
"576 255 OFFCURVE",
"625 322 OFFCURVE",
"625 409 CURVE SMOOTH",
"625 545 OFFCURVE",
"549 644 OFFCURVE",
"388 644 CURVE SMOOTH",
"40 644 LINE",
"40 0 LINE"
);
},
{
closed = 1;
nodes = (
"255 477 LINE",
"339 477 LINE SMOOTH",
"384 477 OFFCURVE",
"406 455 OFFCURVE",
"406 409 CURVE SMOOTH",
"406 365 OFFCURVE",
"381 342 OFFCURVE",
"334 342 CURVE SMOOTH",
"255 342 LINE"
);
},
{
closed = 1;
nodes = (
"376 -175 LINE",
"376 -45 LINE",
"233 -45 LINE",
"233 -175 LINE"
);
}
);
width = 645;
}
);
note = Rdotbelow;
rightKerningGroup = R;
unicode = 1E5A;
},
{
glyphname = Rdotbelowmacron;
lastChange = "2015-11-26 05:00:50 +0000";
layers = (
{
layerId = "9422835F-145C-491A-96D7-00A9C7F45A34";
name = Bold;
paths = (
{
closed = 1;
nodes = (
"255 0 LINE",
"255 176 LINE",
"286 176 LINE SMOOTH",
"308 176 OFFCURVE",
"317 169 OFFCURVE",
"326 149 CURVE SMOOTH",
"392 0 LINE",
"616 0 LINE",
"541 172 LINE SMOOTH",
"532 192 OFFCURVE",
"523 205 OFFCURVE",
"509 216 CURVE",
"576 255 OFFCURVE",
"625 322 OFFCURVE",
"625 409 CURVE SMOOTH",
"625 545 OFFCURVE",
"549 644 OFFCURVE",
"388 644 CURVE SMOOTH",
"40 644 LINE",
"40 0 LINE"
);
},
{
closed = 1;
nodes = (
"255 477 LINE",
"339 477 LINE SMOOTH",
"384 477 OFFCURVE",
"406 455 OFFCURVE",
"406 409 CURVE SMOOTH",
"406 365 OFFCURVE",
"381 342 OFFCURVE",
"334 342 CURVE SMOOTH",
"255 342 LINE"
);
},
{
closed = 1;
nodes = (
"371 -175 LINE",
"371 -45 LINE",
"228 -45 LINE",
"228 -175 LINE"
);
},
{
closed = 1;
nodes = (
"450 717 LINE",
"450 843 LINE",
"111 843 LINE",
"111 717 LINE"
);
}
);
width = 645;
}
);
note = Rdotbelowmacron;
rightKerningGroup = R;
unicode = 1E5C;
},
{
glyphname = Rlinebelow;
lastChange = "2015-11-26 05:00:54 +0000";
layers = (
{
layerId = "9422835F-145C-491A-96D7-00A9C7F45A34";
name = Bold;
paths = (
{
closed = 1;
nodes = (
"255 0 LINE",
"255 176 LINE",
"286 176 LINE SMOOTH",
"308 176 OFFCURVE",
"317 169 OFFCURVE",
"326 149 CURVE SMOOTH",
"392 0 LINE",
"616 0 LINE",
"541 172 LINE SMOOTH",
"532 192 OFFCURVE",
"523 205 OFFCURVE",
"509 216 CURVE",
"576 255 OFFCURVE",
"625 322 OFFCURVE",
"625 409 CURVE SMOOTH",
"625 545 OFFCURVE",
"549 644 OFFCURVE",
"388 644 CURVE SMOOTH",
"40 644 LINE",
"40 0 LINE"
);
},
{
closed = 1;
nodes = (
"255 477 LINE",
"339 477 LINE SMOOTH",
"384 477 OFFCURVE",
"406 455 OFFCURVE",
"406 409 CURVE SMOOTH",
"406 365 OFFCURVE",
"381 342 OFFCURVE",
"334 342 CURVE SMOOTH",
"255 342 LINE"
);
},
{
closed = 1;
nodes = (
"475 -175 LINE",
"475 -49 LINE",
"136 -49 LINE",
"136 -175 LINE"
);
}
);
width = 645;
}
);
note = Rlinebelow;
rightKerningGroup = R;
unicode = 1E5E;
},
{
glyphname = S;
lastChange = "2015-11-26 04:54:43 +0000";
layers = (
{
layerId = "9422835F-145C-491A-96D7-00A9C7F45A34";
name = Bold;
paths = (
{
closed = 1;
nodes = (
"444 -10 OFFCURVE",
"537 69 OFFCURVE",
"537 189 CURVE SMOOTH",
"537 293 OFFCURVE",
"506 360 OFFCURVE",
"348 404 CURVE SMOOTH",
"269 425 OFFCURVE",
"239 432 OFFCURVE",
"239 458 CURVE SMOOTH",
"239 488 OFFCURVE",
"284 492 OFFCURVE",
"331 492 CURVE SMOOTH",
"377 492 OFFCURVE",
"434 482 OFFCURVE",
"502 455 CURVE",
"502 624 LINE",
"452 639 OFFCURVE",
"363 654 OFFCURVE",
"295 654 CURVE SMOOTH",
"113 654 OFFCURVE",
"20 588 OFFCURVE",
"20 456 CURVE SMOOTH",
"20 349 OFFCURVE",
"62 301 OFFCURVE",
"189 257 CURVE SMOOTH",
"272 229 OFFCURVE",
"317 221 OFFCURVE",
"317 188 CURVE SMOOTH",
"317 159 OFFCURVE",
"287 150 OFFCURVE",
"234 150 CURVE SMOOTH",
"171 150 OFFCURVE",
"89 171 OFFCURVE",
"27 200 CURVE",
"27 32 LINE",
"83 5 OFFCURVE",
"168 -10 OFFCURVE",
"257 -10 CURVE SMOOTH"
);
}
);
width = 557;
}
);
leftKerningGroup = S;
note = S;
rightKerningGroup = S;
unicode = 0053;
},
{
glyphname = Sacute;
lastChange = "2015-11-26 04:54:46 +0000";
layers = (
{
layerId = "9422835F-145C-491A-96D7-00A9C7F45A34";
name = Bold;
paths = (
{
closed = 1;
nodes = (
"444 -10 OFFCURVE",
"537 69 OFFCURVE",
"537 189 CURVE SMOOTH",
"537 293 OFFCURVE",
"506 360 OFFCURVE",
"348 404 CURVE SMOOTH",
"269 425 OFFCURVE",
"239 432 OFFCURVE",
"239 458 CURVE SMOOTH",
"239 488 OFFCURVE",
"284 492 OFFCURVE",
"331 492 CURVE SMOOTH",
"377 492 OFFCURVE",
"434 482 OFFCURVE",
"502 455 CURVE",
"502 624 LINE",
"452 639 OFFCURVE",
"363 654 OFFCURVE",
"295 654 CURVE SMOOTH",
"113 654 OFFCURVE",
"20 588 OFFCURVE",
"20 456 CURVE SMOOTH",
"20 349 OFFCURVE",
"62 301 OFFCURVE",
"189 257 CURVE SMOOTH",
"272 229 OFFCURVE",
"317 221 OFFCURVE",
"317 188 CURVE SMOOTH",
"317 159 OFFCURVE",
"287 150 OFFCURVE",
"234 150 CURVE SMOOTH",
"171 150 OFFCURVE",
"89 171 OFFCURVE",
"27 200 CURVE",
"27 32 LINE",
"83 5 OFFCURVE",
"168 -10 OFFCURVE",
"257 -10 CURVE SMOOTH"
);
},
{
closed = 1;
nodes = (
"343 688 LINE",
"444 904 LINE",
"278 904 LINE",
"186 688 LINE"
);
}
);
width = 557;
}
);
leftKerningGroup = S;
note = Sacute;
rightKerningGroup = S;
unicode = 015A;
},
{
glyphname = Scaron;
lastChange = "2015-11-26 04:54:46 +0000";
layers = (
{
layerId = "9422835F-145C-491A-96D7-00A9C7F45A34";
name = Bold;
paths = (
{
closed = 1;
nodes = (
"444 -10 OFFCURVE",
"537 69 OFFCURVE",
"537 189 CURVE SMOOTH",
"537 293 OFFCURVE",
"506 360 OFFCURVE",
"348 404 CURVE SMOOTH",
"269 425 OFFCURVE",
"239 432 OFFCURVE",
"239 458 CURVE SMOOTH",
"239 488 OFFCURVE",
"284 492 OFFCURVE",
"331 492 CURVE SMOOTH",
"377 492 OFFCURVE",
"434 482 OFFCURVE",
"502 455 CURVE",
"502 624 LINE",
"452 639 OFFCURVE",
"363 654 OFFCURVE",
"295 654 CURVE SMOOTH",
"113 654 OFFCURVE",
"20 588 OFFCURVE",
"20 456 CURVE SMOOTH",
"20 349 OFFCURVE",
"62 301 OFFCURVE",
"189 257 CURVE SMOOTH",
"272 229 OFFCURVE",
"317 221 OFFCURVE",
"317 188 CURVE SMOOTH",
"317 159 OFFCURVE",
"287 150 OFFCURVE",
"234 150 CURVE SMOOTH",
"171 150 OFFCURVE",
"89 171 OFFCURVE",
"27 200 CURVE",
"27 32 LINE",
"83 5 OFFCURVE",
"168 -10 OFFCURVE",
"257 -10 CURVE SMOOTH"
);
},
{
closed = 1;
nodes = (
"339 688 LINE",
"504 896 LINE",
"352 896 LINE",
"276 788 LINE",
"203 896 LINE",
"47 896 LINE",
"212 688 LINE"
);
}
);
width = 557;
}
);
leftKerningGroup = S;
note = Scaron;
rightKerningGroup = S;
unicode = 0160;
},
{
glyphname = Scedilla;
lastChange = "2015-11-26 04:54:45 +0000";
layers = (
{
layerId = "9422835F-145C-491A-96D7-00A9C7F45A34";
name = Bold;
paths = (
{
closed = 1;
nodes = (
"444 -10 OFFCURVE",
"537 69 OFFCURVE",
"537 189 CURVE SMOOTH",
"537 293 OFFCURVE",
"506 360 OFFCURVE",
"348 404 CURVE SMOOTH",
"269 425 OFFCURVE",
"239 432 OFFCURVE",
"239 458 CURVE SMOOTH",
"239 488 OFFCURVE",
"284 492 OFFCURVE",
"331 492 CURVE SMOOTH",
"377 492 OFFCURVE",
"434 482 OFFCURVE",
"502 455 CURVE",
"502 624 LINE",
"452 639 OFFCURVE",
"363 654 OFFCURVE",
"295 654 CURVE SMOOTH",
"113 654 OFFCURVE",
"20 588 OFFCURVE",
"20 456 CURVE SMOOTH",
"20 349 OFFCURVE",
"62 301 OFFCURVE",
"189 257 CURVE SMOOTH",
"272 229 OFFCURVE",
"317 221 OFFCURVE",
"317 188 CURVE SMOOTH",
"317 159 OFFCURVE",
"287 150 OFFCURVE",
"234 150 CURVE SMOOTH",
"171 150 OFFCURVE",
"89 171 OFFCURVE",
"27 200 CURVE",
"27 32 LINE",
"83 5 OFFCURVE",
"168 -10 OFFCURVE",
"257 -10 CURVE SMOOTH"
);
},
{
closed = 1;
nodes = (
"360 -240 OFFCURVE",
"415 -200 OFFCURVE",
"415 -134 CURVE SMOOTH",
"415 -80 OFFCURVE",
"378 -39 OFFCURVE",
"305 -39 CURVE",
"319 0 LINE",
"207 0 LINE",
"178 -101 LINE",
"247 -101 LINE SMOOTH",
"274 -101 OFFCURVE",
"292 -106 OFFCURVE",
"292 -130 CURVE SMOOTH",
"292 -154 OFFCURVE",
"270 -165 OFFCURVE",
"223 -165 CURVE SMOOTH",
"203 -165 OFFCURVE",
"182 -162 OFFCURVE",
"164 -157 CURVE",
"164 -232 LINE",
"179 -236 OFFCURVE",
"225 -240 OFFCURVE",
"249 -240 CURVE SMOOTH"
);
}
);
width = 557;
}
);
leftKerningGroup = S;
note = Scedilla;
rightKerningGroup = S;
unicode = 015E;
},
{
glyphname = Scircumflex;
lastChange = "2015-11-26 05:01:12 +0000";
layers = (
{
layerId = "9422835F-145C-491A-96D7-00A9C7F45A34";
name = Bold;
paths = (
{
closed = 1;
nodes = (
"444 -10 OFFCURVE",
"537 69 OFFCURVE",
"537 189 CURVE SMOOTH",
"537 293 OFFCURVE",
"506 360 OFFCURVE",
"348 404 CURVE SMOOTH",
"269 425 OFFCURVE",
"239 432 OFFCURVE",
"239 458 CURVE SMOOTH",
"239 488 OFFCURVE",
"284 492 OFFCURVE",
"331 492 CURVE SMOOTH",
"377 492 OFFCURVE",
"434 482 OFFCURVE",
"502 455 CURVE",
"502 624 LINE",
"452 639 OFFCURVE",
"363 654 OFFCURVE",
"295 654 CURVE SMOOTH",
"113 654 OFFCURVE",
"20 588 OFFCURVE",
"20 456 CURVE SMOOTH",
"20 349 OFFCURVE",
"62 301 OFFCURVE",
"189 257 CURVE SMOOTH",
"272 229 OFFCURVE",
"317 221 OFFCURVE",
"317 188 CURVE SMOOTH",
"317 159 OFFCURVE",
"287 150 OFFCURVE",
"234 150 CURVE SMOOTH",
"171 150 OFFCURVE",
"89 171 OFFCURVE",
"27 200 CURVE",
"27 32 LINE",
"83 5 OFFCURVE",
"168 -10 OFFCURVE",
"257 -10 CURVE SMOOTH"
);
},
{
closed = 1;
nodes = (
"202 688 LINE",
"275 796 LINE",
"351 688 LINE",
"503 688 LINE",
"338 896 LINE",
"211 896 LINE",
"46 688 LINE"
);
}
);
width = 557;
}
);
leftKerningGroup = S;
note = Scircumflex;
rightKerningGroup = S;
unicode = 015C;
},
{
glyphname = Scommaaccent;
lastChange = "2015-11-26 04:54:45 +0000";
layers = (
{
layerId = "9422835F-145C-491A-96D7-00A9C7F45A34";
name = Bold;
paths = (
{
closed = 1;
nodes = (
"444 -10 OFFCURVE",
"537 69 OFFCURVE",
"537 189 CURVE SMOOTH",
"537 293 OFFCURVE",
"506 360 OFFCURVE",
"348 404 CURVE SMOOTH",
"269 425 OFFCURVE",
"239 432 OFFCURVE",
"239 458 CURVE SMOOTH",
"239 488 OFFCURVE",
"284 492 OFFCURVE",
"331 492 CURVE SMOOTH",
"377 492 OFFCURVE",
"434 482 OFFCURVE",
"502 455 CURVE",
"502 624 LINE",
"452 639 OFFCURVE",
"363 654 OFFCURVE",
"295 654 CURVE SMOOTH",
"113 654 OFFCURVE",
"20 588 OFFCURVE",
"20 456 CURVE SMOOTH",
"20 349 OFFCURVE",
"62 301 OFFCURVE",
"189 257 CURVE SMOOTH",
"272 229 OFFCURVE",
"317 221 OFFCURVE",
"317 188 CURVE SMOOTH",
"317 159 OFFCURVE",
"287 150 OFFCURVE",
"234 150 CURVE SMOOTH",
"171 150 OFFCURVE",
"89 171 OFFCURVE",
"27 200 CURVE",
"27 32 LINE",
"83 5 OFFCURVE",
"168 -10 OFFCURVE",
"257 -10 CURVE SMOOTH"
);
},
{
closed = 1;
nodes = (
"325 -238 LINE",
"374 -40 LINE",
"199 -40 LINE",
"166 -238 LINE"
);
}
);
width = 557;
}
);
leftKerningGroup = S;
note = Scommaaccent;
rightKerningGroup = S;
unicode = 0218;
},
{
glyphname = Sdotaccent;
lastChange = "2015-11-26 04:54:47 +0000";
layers = (
{
layerId = "9422835F-145C-491A-96D7-00A9C7F45A34";
name = Bold;
paths = (
{
closed = 1;
nodes = (
"444 -10 OFFCURVE",
"537 69 OFFCURVE",
"537 189 CURVE SMOOTH",
"537 293 OFFCURVE",
"506 360 OFFCURVE",
"348 404 CURVE SMOOTH",
"269 425 OFFCURVE",
"239 432 OFFCURVE",
"239 458 CURVE SMOOTH",
"239 488 OFFCURVE",
"284 492 OFFCURVE",
"331 492 CURVE SMOOTH",
"377 492 OFFCURVE",
"434 482 OFFCURVE",
"502 455 CURVE",
"502 624 LINE",
"452 639 OFFCURVE",
"363 654 OFFCURVE",
"295 654 CURVE SMOOTH",
"113 654 OFFCURVE",
"20 588 OFFCURVE",
"20 456 CURVE SMOOTH",
"20 349 OFFCURVE",
"62 301 OFFCURVE",
"189 257 CURVE SMOOTH",
"272 229 OFFCURVE",
"317 221 OFFCURVE",
"317 188 CURVE SMOOTH",
"317 159 OFFCURVE",
"287 150 OFFCURVE",
"234 150 CURVE SMOOTH",
"171 150 OFFCURVE",
"89 171 OFFCURVE",
"27 200 CURVE",
"27 32 LINE",
"83 5 OFFCURVE",
"168 -10 OFFCURVE",
"257 -10 CURVE SMOOTH"
);
},
{
closed = 1;
nodes = (
"344 716 LINE",
"344 847 LINE",
"201 847 LINE",
"201 716 LINE"
);
}
);
width = 557;
}
);
leftKerningGroup = S;
note = Sdotaccent;
rightKerningGroup = S;
unicode = 1E60;
},
{
glyphname = Sdotbelow;
lastChange = "2015-11-26 04:54:46 +0000";
layers = (
{
layerId = "9422835F-145C-491A-96D7-00A9C7F45A34";
name = Bold;
paths = (
{
closed = 1;
nodes = (
"444 -10 OFFCURVE",
"537 69 OFFCURVE",
"537 189 CURVE SMOOTH",
"537 293 OFFCURVE",
"506 360 OFFCURVE",
"348 404 CURVE SMOOTH",
"269 425 OFFCURVE",
"239 432 OFFCURVE",
"239 458 CURVE SMOOTH",
"239 488 OFFCURVE",
"284 492 OFFCURVE",
"331 492 CURVE SMOOTH",
"377 492 OFFCURVE",
"434 482 OFFCURVE",
"502 455 CURVE",
"502 624 LINE",
"452 639 OFFCURVE",
"363 654 OFFCURVE",
"295 654 CURVE SMOOTH",
"113 654 OFFCURVE",
"20 588 OFFCURVE",
"20 456 CURVE SMOOTH",
"20 349 OFFCURVE",
"62 301 OFFCURVE",
"189 257 CURVE SMOOTH",
"272 229 OFFCURVE",
"317 221 OFFCURVE",
"317 188 CURVE SMOOTH",
"317 159 OFFCURVE",
"287 150 OFFCURVE",
"234 150 CURVE SMOOTH",
"171 150 OFFCURVE",
"89 171 OFFCURVE",
"27 200 CURVE",
"27 32 LINE",
"83 5 OFFCURVE",
"168 -10 OFFCURVE",
"257 -10 CURVE SMOOTH"
);
},
{
closed = 1;
nodes = (
"345 -176 LINE",
"345 -46 LINE",
"202 -46 LINE",
"202 -176 LINE"
);
}
);
width = 557;
}
);
leftKerningGroup = S;
note = Sdotbelow;
rightKerningGroup = S;
unicode = 1E62;
},
{
glyphname = Germandbls;
lastChange = "2015-11-26 04:54:43 +0000";
layers = (
{
layerId = "9422835F-145C-491A-96D7-00A9C7F45A34";
name = Bold;
paths = (
{
closed = 1;
nodes = (
"546 -10 OFFCURVE",
"628 51 OFFCURVE",
"628 170 CURVE SMOOTH",
"628 260 OFFCURVE",
"574 314 OFFCURVE",
"498 314 CURVE SMOOTH",
"484 314 LINE",
"606 415 LINE",
"606 547 OFFCURVE",
"521 654 OFFCURVE",
"323 654 CURVE SMOOTH",
"145 654 OFFCURVE",
"35 556 OFFCURVE",
"35 405 CURVE SMOOTH",
"35 0 LINE",
"237 0 LINE",
"237 399 LINE SMOOTH",
"237 446 OFFCURVE",
"260 476 OFFCURVE",
"323 476 CURVE SMOOTH",
"380 476 OFFCURVE",
"406 462 OFFCURVE",
"406 438 CURVE",
"284 338 LINE",
"284 229 LINE",
"347 229 LINE SMOOTH",
"390 229 OFFCURVE",
"409 216 OFFCURVE",
"409 189 CURVE SMOOTH",
"409 157 OFFCURVE",
"393 141 OFFCURVE",
"350 141 CURVE SMOOTH",
"328 141 OFFCURVE",
"296 146 OFFCURVE",
"276 154 CURVE",
"276 12 LINE",
"306 -2 OFFCURVE",
"357 -10 OFFCURVE",
"409 -10 CURVE SMOOTH"
);
}
);
width = 648;
}
);
note = uni1E9E;
unicode = 1E9E;
},
{
glyphname = Schwa;
lastChange = "2015-11-26 04:54:46 +0000";
layers = (
{
layerId = "9422835F-145C-491A-96D7-00A9C7F45A34";
name = Bold;
paths = (
{
closed = 1;
nodes = (
"572 -10 OFFCURVE",
"676 116 OFFCURVE",
"676 312 CURVE SMOOTH",
"676 521 OFFCURVE",
"539 654 OFFCURVE",
"320 654 CURVE SMOOTH",
"216 654 OFFCURVE",
"116 632 OFFCURVE",
"52 607 CURVE",
"52 469 LINE",
"99 490 OFFCURVE",
"209 512 OFFCURVE",
"274 512 CURVE SMOOTH",
"409 512 OFFCURVE",
"464 485 OFFCURVE",
"477 399 CURVE",
"20 399 LINE",
"20 283 LINE SMOOTH",
"20 97 OFFCURVE",
"138 -10 OFFCURVE",
"343 -10 CURVE SMOOTH"
);
},
{
closed = 1;
nodes = (
"250 123 OFFCURVE",
"207 173 OFFCURVE",
"207 233 CURVE SMOOTH",
"207 259 LINE",
"477 259 LINE",
"477 173 OFFCURVE",
"441 123 OFFCURVE",
"343 123 CURVE SMOOTH"
);
}
);
width = 696;
}
);
note = uni018F;
unicode = 018F;
},
{
glyphname = T;
lastChange = "2015-11-26 04:54:43 +0000";
layers = (
{
layerId = "9422835F-145C-491A-96D7-00A9C7F45A34";
name = Bold;
paths = (
{
closed = 1;
nodes = (
"387 0 LINE",
"387 487 LINE",
"560 487 LINE",
"560 644 LINE",
"0 644 LINE",
"0 487 LINE",
"172 487 LINE",
"172 0 LINE"
);
}
);
width = 560;
}
);
leftKerningGroup = T;
note = T;
rightKerningGroup = T;
unicode = 0054;
},
{
glyphname = Tbar;
lastChange = "2015-11-26 04:54:43 +0000";
layers = (
{
layerId = "9422835F-145C-491A-96D7-00A9C7F45A34";
name = Bold;
paths = (
{
closed = 1;
nodes = (
"387 0 LINE",
"387 252 LINE",
"469 252 LINE",
"469 392 LINE",
"387 392 LINE",
"387 487 LINE",
"560 487 LINE",
"560 644 LINE",
"0 644 LINE",
"0 487 LINE",
"172 487 LINE",
"172 392 LINE",
"85 392 LINE",
"85 252 LINE",
"172 252 LINE",
"172 0 LINE"
);
}
);
width = 560;
}
);
leftKerningGroup = T;
note = Tbar;
rightKerningGroup = T;
unicode = 0166;
},
{
glyphname = Tcaron;
lastChange = "2015-11-26 04:54:46 +0000";
layers = (
{
layerId = "9422835F-145C-491A-96D7-00A9C7F45A34";
name = Bold;
paths = (
{
closed = 1;
nodes = (
"387 0 LINE",
"387 487 LINE",
"560 487 LINE",
"560 644 LINE",
"0 644 LINE",
"0 487 LINE",
"172 487 LINE",
"172 0 LINE"
);
},
{
closed = 1;
nodes = (
"344 688 LINE",
"509 896 LINE",
"357 896 LINE",
"281 788 LINE",
"208 896 LINE",
"52 896 LINE",
"217 688 LINE"
);
}
);
width = 560;
}
);
leftKerningGroup = T;
note = Tcaron;
rightKerningGroup = T;
unicode = 0164;
},
{
glyphname = Tcedilla;
lastChange = "2015-11-26 04:54:47 +0000";
layers = (
{
layerId = "9422835F-145C-491A-96D7-00A9C7F45A34";
name = Bold;
paths = (
{
closed = 1;
nodes = (
"387 0 LINE",
"387 487 LINE",
"560 487 LINE",
"560 644 LINE",
"0 644 LINE",
"0 487 LINE",
"172 487 LINE",
"172 0 LINE"
);
},
{
closed = 1;
nodes = (
"376 -240 OFFCURVE",
"431 -200 OFFCURVE",
"431 -134 CURVE SMOOTH",
"431 -80 OFFCURVE",
"394 -39 OFFCURVE",
"321 -39 CURVE",
"335 0 LINE",
"223 0 LINE",
"194 -101 LINE",
"263 -101 LINE SMOOTH",
"290 -101 OFFCURVE",
"308 -106 OFFCURVE",
"308 -130 CURVE SMOOTH",
"308 -154 OFFCURVE",
"286 -165 OFFCURVE",
"239 -165 CURVE SMOOTH",
"219 -165 OFFCURVE",
"198 -162 OFFCURVE",
"180 -157 CURVE",
"180 -232 LINE",
"195 -236 OFFCURVE",
"241 -240 OFFCURVE",
"265 -240 CURVE SMOOTH"
);
}
);
width = 560;
}
);
leftKerningGroup = T;
note = Tcedilla;
rightKerningGroup = T;
unicode = 0162;
},
{
glyphname = Tcommaaccent;
lastChange = "2015-11-26 05:01:21 +0000";
layers = (
{
layerId = "9422835F-145C-491A-96D7-00A9C7F45A34";
name = Bold;
paths = (
{
closed = 1;
nodes = (
"387 0 LINE",
"387 487 LINE",
"560 487 LINE",
"560 644 LINE",
"0 644 LINE",
"0 487 LINE",
"172 487 LINE",
"172 0 LINE"
);
},
{
closed = 1;
nodes = (
"299 -277 LINE",
"360 -40 LINE",
"194 -40 LINE",
"159 -277 LINE"
);
}
);
width = 560;
}
);
leftKerningGroup = T;
note = Tcommaaccent;
rightKerningGroup = T;
unicode = 021A;
},
{
glyphname = Tdotbelow;
lastChange = "2015-11-26 04:54:46 +0000";
layers = (
{
layerId = "9422835F-145C-491A-96D7-00A9C7F45A34";
name = Bold;
paths = (
{
closed = 1;
nodes = (
"387 0 LINE",
"387 487 LINE",
"560 487 LINE",
"560 644 LINE",
"0 644 LINE",
"0 487 LINE",
"172 487 LINE",
"172 0 LINE"
);
},
{
closed = 1;
nodes = (
"353 -176 LINE",
"353 -46 LINE",
"210 -46 LINE",
"210 -176 LINE"
);
}
);
width = 560;
}
);
leftKerningGroup = T;
note = Tdotbelow;
rightKerningGroup = T;
unicode = 1E6C;
},
{
glyphname = Tlinebelow;
lastChange = "2015-11-26 04:54:46 +0000";
layers = (
{
layerId = "9422835F-145C-491A-96D7-00A9C7F45A34";
name = Bold;
paths = (
{
closed = 1;
nodes = (
"387 0 LINE",
"387 487 LINE",
"560 487 LINE",
"560 644 LINE",
"0 644 LINE",
"0 487 LINE",
"172 487 LINE",
"172 0 LINE"
);
},
{
closed = 1;
nodes = (
"450 -176 LINE",
"450 -50 LINE",
"111 -50 LINE",
"111 -176 LINE"
);
}
);
width = 560;
}
);
leftKerningGroup = T;
note = Tlinebelow;
rightKerningGroup = T;
unicode = 1E6E;
},
{
glyphname = U;
lastChange = "2015-11-26 04:54:43 +0000";
layers = (
{
layerId = "9422835F-145C-491A-96D7-00A9C7F45A34";
name = Bold;
paths = (
{
closed = 1;
nodes = (
"529 -10 OFFCURVE",
"661 81 OFFCURVE",
"661 251 CURVE SMOOTH",
"661 644 LINE",
"446 644 LINE",
"446 276 LINE SMOOTH",
"446 206 OFFCURVE",
"412 172 OFFCURVE",
"348 172 CURVE SMOOTH",
"284 172 OFFCURVE",
"250 206 OFFCURVE",
"250 276 CURVE SMOOTH",
"250 644 LINE",
"35 644 LINE",
"35 251 LINE SMOOTH",
"35 81 OFFCURVE",
"167 -10 OFFCURVE",
"348 -10 CURVE SMOOTH"
);
}
);
width = 696;
}
);
leftKerningGroup = U;
note = U;
rightKerningGroup = U;
unicode = 0055;
},
{
glyphname = Uacute;
lastChange = "2015-11-26 04:54:45 +0000";
layers = (
{
layerId = "9422835F-145C-491A-96D7-00A9C7F45A34";
name = Bold;
paths = (
{
closed = 1;
nodes = (
"529 -10 OFFCURVE",
"661 81 OFFCURVE",
"661 251 CURVE SMOOTH",
"661 644 LINE",
"446 644 LINE",
"446 276 LINE SMOOTH",
"446 206 OFFCURVE",
"412 172 OFFCURVE",
"348 172 CURVE SMOOTH",
"284 172 OFFCURVE",
"250 206 OFFCURVE",
"250 276 CURVE SMOOTH",
"250 644 LINE",
"35 644 LINE",
"35 251 LINE SMOOTH",
"35 81 OFFCURVE",
"167 -10 OFFCURVE",
"348 -10 CURVE SMOOTH"
);
},
{
closed = 1;
nodes = (
"426 688 LINE",
"527 904 LINE",
"361 904 LINE",
"269 688 LINE"
);
}
);
width = 696;
}
);
leftKerningGroup = U;
note = Uacute;
rightKerningGroup = U;
unicode = 00DA;
},
{
glyphname = Ubreve;
lastChange = "2015-11-26 04:54:46 +0000";
layers = (
{
layerId = "9422835F-145C-491A-96D7-00A9C7F45A34";
name = Bold;
paths = (
{
closed = 1;
nodes = (
"529 -10 OFFCURVE",
"661 81 OFFCURVE",
"661 251 CURVE SMOOTH",
"661 644 LINE",
"446 644 LINE",
"446 276 LINE SMOOTH",
"446 206 OFFCURVE",
"412 172 OFFCURVE",
"348 172 CURVE SMOOTH",
"284 172 OFFCURVE",
"250 206 OFFCURVE",
"250 276 CURVE SMOOTH",
"250 644 LINE",
"35 644 LINE",
"35 251 LINE SMOOTH",
"35 81 OFFCURVE",
"167 -10 OFFCURVE",
"348 -10 CURVE SMOOTH"
);
},
{
closed = 1;
nodes = (
"471 688 OFFCURVE",
"553 760 OFFCURVE",
"553 892 CURVE",
"414 892 LINE",
"414 845 OFFCURVE",
"398 806 OFFCURVE",
"347 806 CURVE SMOOTH",
"297 806 OFFCURVE",
"281 845 OFFCURVE",
"281 892 CURVE",
"143 892 LINE",
"143 760 OFFCURVE",
"224 688 OFFCURVE",
"347 688 CURVE SMOOTH"
);
}
);
width = 696;
}
);
leftKerningGroup = U;
note = Ubreve;
rightKerningGroup = U;
unicode = 016C;
},
{
glyphname = Ucaron;
lastChange = "2015-11-26 05:01:39 +0000";
layers = (
{
layerId = "9422835F-145C-491A-96D7-00A9C7F45A34";
name = Bold;
paths = (
{
closed = 1;
nodes = (
"529 -10 OFFCURVE",
"661 81 OFFCURVE",
"661 251 CURVE SMOOTH",
"661 644 LINE",
"446 644 LINE",
"446 276 LINE SMOOTH",
"446 206 OFFCURVE",
"412 172 OFFCURVE",
"348 172 CURVE SMOOTH",
"284 172 OFFCURVE",
"250 206 OFFCURVE",
"250 276 CURVE SMOOTH",
"250 644 LINE",
"35 644 LINE",
"35 251 LINE SMOOTH",
"35 81 OFFCURVE",
"167 -10 OFFCURVE",
"348 -10 CURVE SMOOTH"
);
},
{
closed = 1;
nodes = (
"411 688 LINE",
"576 896 LINE",
"424 896 LINE",
"348 788 LINE",
"275 896 LINE",
"119 896 LINE",
"284 688 LINE"
);
}
);
width = 696;
}
);
leftKerningGroup = U;
note = Ucaron;
rightKerningGroup = U;
unicode = 01D3;
},
{
glyphname = Ucircumflex;
lastChange = "2015-11-26 04:54:45 +0000";
layers = (
{
layerId = "9422835F-145C-491A-96D7-00A9C7F45A34";
name = Bold;
paths = (
{
closed = 1;
nodes = (
"529 -10 OFFCURVE",
"661 81 OFFCURVE",
"661 251 CURVE SMOOTH",
"661 644 LINE",
"446 644 LINE",
"446 276 LINE SMOOTH",
"446 206 OFFCURVE",
"412 172 OFFCURVE",
"348 172 CURVE SMOOTH",
"284 172 OFFCURVE",
"250 206 OFFCURVE",
"250 276 CURVE SMOOTH",
"250 644 LINE",
"35 644 LINE",
"35 251 LINE SMOOTH",
"35 81 OFFCURVE",
"167 -10 OFFCURVE",
"348 -10 CURVE SMOOTH"
);
},
{
closed = 1;
nodes = (
"276 688 LINE",
"349 796 LINE",
"425 688 LINE",
"577 688 LINE",
"412 896 LINE",
"285 896 LINE",
"120 688 LINE"
);
}
);
width = 696;
}
);
leftKerningGroup = U;
note = Ucircumflex;
rightKerningGroup = U;
unicode = 00DB;
},
{
glyphname = Udieresis;
lastChange = "2015-11-26 04:54:45 +0000";
layers = (
{
layerId = "9422835F-145C-491A-96D7-00A9C7F45A34";
name = Bold;
paths = (
{
closed = 1;
nodes = (
"529 -10 OFFCURVE",
"661 81 OFFCURVE",
"661 251 CURVE SMOOTH",
"661 644 LINE",
"446 644 LINE",
"446 276 LINE SMOOTH",
"446 206 OFFCURVE",
"412 172 OFFCURVE",
"348 172 CURVE SMOOTH",
"284 172 OFFCURVE",
"250 206 OFFCURVE",
"250 276 CURVE SMOOTH",
"250 644 LINE",
"35 644 LINE",
"35 251 LINE SMOOTH",
"35 81 OFFCURVE",
"167 -10 OFFCURVE",
"348 -10 CURVE SMOOTH"
);
},
{
closed = 1;
nodes = (
"307 716 LINE",
"307 847 LINE",
"163 847 LINE",
"163 716 LINE"
);
},
{
closed = 1;
nodes = (
"532 716 LINE",
"532 847 LINE",
"389 847 LINE",
"389 716 LINE"
);
}
);
width = 696;
}
);
leftKerningGroup = U;
note = Udieresis;
rightKerningGroup = U;
unicode = 00DC;
},
{
glyphname = Udieresisacute;
lastChange = "2015-11-26 04:54:46 +0000";
layers = (
{
layerId = "9422835F-145C-491A-96D7-00A9C7F45A34";
name = Bold;
paths = (
{
closed = 1;
nodes = (
"529 -10 OFFCURVE",
"661 81 OFFCURVE",
"661 251 CURVE SMOOTH",
"661 644 LINE",
"446 644 LINE",
"446 276 LINE SMOOTH",
"446 206 OFFCURVE",
"412 172 OFFCURVE",
"348 172 CURVE SMOOTH",
"284 172 OFFCURVE",
"250 206 OFFCURVE",
"250 276 CURVE SMOOTH",
"250 644 LINE",
"35 644 LINE",
"35 251 LINE SMOOTH",
"35 81 OFFCURVE",
"167 -10 OFFCURVE",
"348 -10 CURVE SMOOTH"
);
},
{
closed = 1;
nodes = (
"307 695 LINE",
"307 818 LINE",
"167 818 LINE",
"167 695 LINE"
);
},
{
closed = 1;
nodes = (
"529 695 LINE",
"529 818 LINE",
"389 818 LINE",
"389 695 LINE"
);
},
{
closed = 1;
nodes = (
"416 846 LINE",
"488 987 LINE",
"329 987 LINE",
"272 846 LINE"
);
}
);
width = 696;
}
);
leftKerningGroup = U;
note = Udieresisacute;
rightKerningGroup = U;
unicode = 01D7;
},
{
glyphname = Udieresiscaron;
lastChange = "2015-11-26 04:54:45 +0000";
layers = (
{
layerId = "9422835F-145C-491A-96D7-00A9C7F45A34";
name = Bold;
paths = (
{
closed = 1;
nodes = (
"529 -10 OFFCURVE",
"661 81 OFFCURVE",
"661 251 CURVE SMOOTH",
"661 644 LINE",
"446 644 LINE",
"446 276 LINE SMOOTH",
"446 206 OFFCURVE",
"412 172 OFFCURVE",
"348 172 CURVE SMOOTH",
"284 172 OFFCURVE",
"250 206 OFFCURVE",
"250 276 CURVE SMOOTH",
"250 644 LINE",
"35 644 LINE",
"35 251 LINE SMOOTH",
"35 81 OFFCURVE",
"167 -10 OFFCURVE",
"348 -10 CURVE SMOOTH"
);
},
{
closed = 1;
nodes = (
"303 695 LINE",
"303 818 LINE",
"163 818 LINE",
"163 695 LINE"
);
},
{
closed = 1;
nodes = (
"525 695 LINE",
"525 818 LINE",
"385 818 LINE",
"385 695 LINE"
);
},
{
closed = 1;
nodes = (
"421 845 LINE",
"559 984 LINE",
"405 984 LINE",
"348 911 LINE",
"294 984 LINE",
"137 984 LINE",
"274 845 LINE"
);
}
);
width = 696;
}
);
leftKerningGroup = U;
note = Udieresiscaron;
rightKerningGroup = U;
unicode = 01D9;
},
{
glyphname = Udieresisgrave;
lastChange = "2015-11-26 04:54:46 +0000";
layers = (
{
layerId = "9422835F-145C-491A-96D7-00A9C7F45A34";
name = Bold;
paths = (
{
closed = 1;
nodes = (
"529 -10 OFFCURVE",
"661 81 OFFCURVE",
"661 251 CURVE SMOOTH",
"661 644 LINE",
"446 644 LINE",
"446 276 LINE SMOOTH",
"446 206 OFFCURVE",
"412 172 OFFCURVE",
"348 172 CURVE SMOOTH",
"284 172 OFFCURVE",
"250 206 OFFCURVE",
"250 276 CURVE SMOOTH",
"250 644 LINE",
"35 644 LINE",
"35 251 LINE SMOOTH",
"35 81 OFFCURVE",
"167 -10 OFFCURVE",
"348 -10 CURVE SMOOTH"
);
},
{
closed = 1;
nodes = (
"307 721 LINE",
"307 844 LINE",
"167 844 LINE",
"167 721 LINE"
);
},
{
closed = 1;
nodes = (
"529 721 LINE",
"529 844 LINE",
"389 844 LINE",
"389 721 LINE"
);
},
{
closed = 1;
nodes = (
"424 872 LINE",
"367 1013 LINE",
"208 1013 LINE",
"280 872 LINE"
);
}
);
width = 696;
}
);
leftKerningGroup = U;
note = Udieresisgrave;
rightKerningGroup = U;
unicode = 01DB;
},
{
glyphname = Udieresismacron;
lastChange = "2015-11-26 04:54:45 +0000";
layers = (
{
layerId = "9422835F-145C-491A-96D7-00A9C7F45A34";
name = Bold;
paths = (
{
closed = 1;
nodes = (
"529 -10 OFFCURVE",
"661 81 OFFCURVE",
"661 251 CURVE SMOOTH",
"661 644 LINE",
"446 644 LINE",
"446 276 LINE SMOOTH",
"446 206 OFFCURVE",
"412 172 OFFCURVE",
"348 172 CURVE SMOOTH",
"284 172 OFFCURVE",
"250 206 OFFCURVE",
"250 276 CURVE SMOOTH",
"250 644 LINE",
"35 644 LINE",
"35 251 LINE SMOOTH",
"35 81 OFFCURVE",
"167 -10 OFFCURVE",
"348 -10 CURVE SMOOTH"
);
},
{
closed = 1;
nodes = (
"307 697 LINE",
"307 828 LINE",
"163 828 LINE",
"163 697 LINE"
);
},
{
closed = 1;
nodes = (
"532 697 LINE",
"532 828 LINE",
"389 828 LINE",
"389 697 LINE"
);
},
{
closed = 1;
nodes = (
"517 880 LINE",
"517 1006 LINE",
"178 1006 LINE",
"178 880 LINE"
);
}
);
width = 696;
}
);
leftKerningGroup = U;
note = Udieresismacron;
rightKerningGroup = U;
unicode = 01D5;
},
{
glyphname = Udotbelow;
lastChange = "2015-11-26 04:54:46 +0000";
layers = (
{
layerId = "9422835F-145C-491A-96D7-00A9C7F45A34";
name = Bold;
paths = (
{
closed = 1;
nodes = (
"529 -10 OFFCURVE",
"661 81 OFFCURVE",
"661 251 CURVE SMOOTH",
"661 644 LINE",
"446 644 LINE",
"446 276 LINE SMOOTH",
"446 206 OFFCURVE",
"412 172 OFFCURVE",
"348 172 CURVE SMOOTH",
"284 172 OFFCURVE",
"250 206 OFFCURVE",
"250 276 CURVE SMOOTH",
"250 644 LINE",
"35 644 LINE",
"35 251 LINE SMOOTH",
"35 81 OFFCURVE",
"167 -10 OFFCURVE",
"348 -10 CURVE SMOOTH"
);
},
{
closed = 1;
nodes = (
"419 -176 LINE",
"419 -46 LINE",
"276 -46 LINE",
"276 -176 LINE"
);
}
);
width = 696;
}
);
leftKerningGroup = U;
note = Udotbelow;
rightKerningGroup = U;
unicode = 1EE4;
},
{
glyphname = Ugrave;
lastChange = "2015-11-26 04:54:46 +0000";
layers = (
{
layerId = "9422835F-145C-491A-96D7-00A9C7F45A34";
name = Bold;
paths = (
{
closed = 1;
nodes = (
"529 -10 OFFCURVE",
"661 81 OFFCURVE",
"661 251 CURVE SMOOTH",
"661 644 LINE",
"446 644 LINE",
"446 276 LINE SMOOTH",
"446 206 OFFCURVE",
"412 172 OFFCURVE",
"348 172 CURVE SMOOTH",
"284 172 OFFCURVE",
"250 206 OFFCURVE",
"250 276 CURVE SMOOTH",
"250 644 LINE",
"35 644 LINE",
"35 251 LINE SMOOTH",
"35 81 OFFCURVE",
"167 -10 OFFCURVE",
"348 -10 CURVE SMOOTH"
);
},
{
closed = 1;
nodes = (
"430 688 LINE",
"338 904 LINE",
"171 904 LINE",
"272 688 LINE"
);
}
);
width = 696;
}
);
leftKerningGroup = U;
note = Ugrave;
rightKerningGroup = U;
unicode = 00D9;
},
{
glyphname = Uhookabove;
lastChange = "2015-11-26 04:54:46 +0000";
layers = (
{
layerId = "9422835F-145C-491A-96D7-00A9C7F45A34";
name = Bold;
paths = (
{
closed = 1;
nodes = (
"529 -10 OFFCURVE",
"661 81 OFFCURVE",
"661 251 CURVE SMOOTH",
"661 644 LINE",
"446 644 LINE",
"446 276 LINE SMOOTH",
"446 206 OFFCURVE",
"412 172 OFFCURVE",
"348 172 CURVE SMOOTH",
"284 172 OFFCURVE",
"250 206 OFFCURVE",
"250 276 CURVE SMOOTH",
"250 644 LINE",
"35 644 LINE",
"35 251 LINE SMOOTH",
"35 81 OFFCURVE",
"167 -10 OFFCURVE",
"348 -10 CURVE SMOOTH"
);
},
{
closed = 1;
nodes = (
"427 688 LINE",
"427 726 LINE",
"483 743 OFFCURVE",
"510 769 OFFCURVE",
"510 828 CURVE SMOOTH",
"510 888 OFFCURVE",
"458 932 OFFCURVE",
"364 932 CURVE SMOOTH",
"311 932 OFFCURVE",
"271 927 OFFCURVE",
"241 918 CURVE",
"241 832 LINE",
"257 837 OFFCURVE",
"279 841 OFFCURVE",
"299 841 CURVE SMOOTH",
"335 841 OFFCURVE",
"354 832 OFFCURVE",
"354 810 CURVE SMOOTH",
"354 788 OFFCURVE",
"334 773 OFFCURVE",
"267 769 CURVE",
"267 688 LINE"
);
}
);
width = 696;
}
);
leftKerningGroup = U;
note = Uhookabove;
rightKerningGroup = U;
unicode = 1EE6;
},
{
glyphname = Uhorn;
lastChange = "2015-11-26 05:02:00 +0000";
layers = (
{
layerId = "9422835F-145C-491A-96D7-00A9C7F45A34";
name = Bold;
paths = (
{
closed = 1;
nodes = (
"35 81 OFFCURVE",
"167 -10 OFFCURVE",
"348 -10 CURVE SMOOTH",
"529 -10 OFFCURVE",
"661 81 OFFCURVE",
"661 251 CURVE SMOOTH",
"661 468.337 LINE",
"809.067 473.869 OFFCURVE",
"866 529.22 OFFCURVE",
"866 688 CURVE",
"733 688 LINE",
"733 621.861 OFFCURVE",
"713.042 596.507 OFFCURVE",
"661 590.92 CURVE",
"661 644 LINE",
"446 644 LINE",
"446 276 LINE SMOOTH",
"446 206 OFFCURVE",
"412 172 OFFCURVE",
"348 172 CURVE SMOOTH",
"284 172 OFFCURVE",
"250 206 OFFCURVE",
"250 276 CURVE SMOOTH",
"250 644 LINE",
"35 644 LINE",
"35 251 LINE SMOOTH"
);
}
);
width = 876;
}
);
note = Uhorn;
unicode = 01AF;
},
{
glyphname = Uhornacute;
lastChange = "2015-11-26 05:02:37 +0000";
layers = (
{
layerId = "9422835F-145C-491A-96D7-00A9C7F45A34";
name = Bold;
paths = (
{
closed = 1;
nodes = (
"35 81 OFFCURVE",
"167 -10 OFFCURVE",
"348 -10 CURVE SMOOTH",
"529 -10 OFFCURVE",
"661 81 OFFCURVE",
"661 251 CURVE SMOOTH",
"661 468.337 LINE",
"809.067 473.869 OFFCURVE",
"866 529.22 OFFCURVE",
"866 688 CURVE",
"733 688 LINE",
"733 621.861 OFFCURVE",
"713.042 596.507 OFFCURVE",
"661 590.92 CURVE",
"661 644 LINE",
"446 644 LINE",
"446 276 LINE SMOOTH",
"446 206 OFFCURVE",
"412 172 OFFCURVE",
"348 172 CURVE SMOOTH",
"284 172 OFFCURVE",
"250 206 OFFCURVE",
"250 276 CURVE SMOOTH",
"250 644 LINE",
"35 644 LINE",
"35 251 LINE SMOOTH"
);
},
{
closed = 1;
nodes = (
"423 688 LINE",
"524 904 LINE",
"358 904 LINE",
"266 688 LINE"
);
}
);
width = 876;
}
);
leftKerningGroup = U;
note = Uhornacute;
rightKerningGroup = U;
unicode = 1EE8;
},
{
glyphname = Uhorndotbelow;
lastChange = "2015-11-26 05:02:34 +0000";
layers = (
{
layerId = "9422835F-145C-491A-96D7-00A9C7F45A34";
name = Bold;
paths = (
{
closed = 1;
nodes = (
"35 81 OFFCURVE",
"167 -10 OFFCURVE",
"348 -10 CURVE SMOOTH",
"529 -10 OFFCURVE",
"661 81 OFFCURVE",
"661 251 CURVE SMOOTH",
"661 468.337 LINE",
"809.067 473.869 OFFCURVE",
"866 529.22 OFFCURVE",
"866 688 CURVE",
"733 688 LINE",
"733 621.861 OFFCURVE",
"713.042 596.507 OFFCURVE",
"661 590.92 CURVE",
"661 644 LINE",
"446 644 LINE",
"446 276 LINE SMOOTH",
"446 206 OFFCURVE",
"412 172 OFFCURVE",
"348 172 CURVE SMOOTH",
"284 172 OFFCURVE",
"250 206 OFFCURVE",
"250 276 CURVE SMOOTH",
"250 644 LINE",
"35 644 LINE",
"35 251 LINE SMOOTH"
);
},
{
closed = 1;
nodes = (
"422 -176 LINE",
"422 -46 LINE",
"279 -46 LINE",
"279 -176 LINE"
);
}
);
width = 876;
}
);
leftKerningGroup = U;
note = Uhorndotbelow;
rightKerningGroup = U;
unicode = 1EF0;
},
{
glyphname = Uhorngrave;
lastChange = "2015-11-26 05:02:29 +0000";
layers = (
{
layerId = "9422835F-145C-491A-96D7-00A9C7F45A34";
name = Bold;
paths = (
{
closed = 1;
nodes = (
"35 81 OFFCURVE",
"167 -10 OFFCURVE",
"348 -10 CURVE SMOOTH",
"529 -10 OFFCURVE",
"661 81 OFFCURVE",
"661 251 CURVE SMOOTH",
"661 468.337 LINE",
"809.067 473.869 OFFCURVE",
"866 529.22 OFFCURVE",
"866 688 CURVE",
"733 688 LINE",
"733 621.861 OFFCURVE",
"713.042 596.507 OFFCURVE",
"661 590.92 CURVE",
"661 644 LINE",
"446 644 LINE",
"446 276 LINE SMOOTH",
"446 206 OFFCURVE",
"412 172 OFFCURVE",
"348 172 CURVE SMOOTH",
"284 172 OFFCURVE",
"250 206 OFFCURVE",
"250 276 CURVE SMOOTH",
"250 644 LINE",
"35 644 LINE",
"35 251 LINE SMOOTH"
);
},
{
closed = 1;
nodes = (
"434 688 LINE",
"342 904 LINE",
"175 904 LINE",
"276 688 LINE"
);
}
);
width = 876;
}
);
leftKerningGroup = U;
note = Uhorngrave;
rightKerningGroup = U;
unicode = 1EEA;
},
{
glyphname = Uhornhookabove;
lastChange = "2015-11-26 05:02:26 +0000";
layers = (
{
layerId = "9422835F-145C-491A-96D7-00A9C7F45A34";
name = Bold;
paths = (
{
closed = 1;
nodes = (
"35 81 OFFCURVE",
"167 -10 OFFCURVE",
"348 -10 CURVE SMOOTH",
"529 -10 OFFCURVE",
"661 81 OFFCURVE",
"661 251 CURVE SMOOTH",
"661 468.337 LINE",
"809.067 473.869 OFFCURVE",
"866 529.22 OFFCURVE",
"866 688 CURVE",
"733 688 LINE",
"733 621.861 OFFCURVE",
"713.042 596.507 OFFCURVE",
"661 590.92 CURVE",
"661 644 LINE",
"446 644 LINE",
"446 276 LINE SMOOTH",
"446 206 OFFCURVE",
"412 172 OFFCURVE",
"348 172 CURVE SMOOTH",
"284 172 OFFCURVE",
"250 206 OFFCURVE",
"250 276 CURVE SMOOTH",
"250 644 LINE",
"35 644 LINE",
"35 251 LINE SMOOTH"
);
},
{
closed = 1;
nodes = (
"413 688 LINE",
"413 726 LINE",
"469 743 OFFCURVE",
"496 769 OFFCURVE",
"496 828 CURVE SMOOTH",
"496 888 OFFCURVE",
"444 932 OFFCURVE",
"350 932 CURVE SMOOTH",
"297 932 OFFCURVE",
"257 927 OFFCURVE",
"227 918 CURVE",
"227 832 LINE",
"243 837 OFFCURVE",
"265 841 OFFCURVE",
"285 841 CURVE SMOOTH",
"321 841 OFFCURVE",
"340 832 OFFCURVE",
"340 810 CURVE SMOOTH",
"340 788 OFFCURVE",
"320 773 OFFCURVE",
"253 769 CURVE",
"253 688 LINE"
);
}
);
width = 876;
}
);
leftKerningGroup = U;
note = Uhornhookabove;
rightKerningGroup = U;
unicode = 1EEC;
},
{
glyphname = Uhorntilde;
lastChange = "2015-11-26 05:02:22 +0000";
layers = (
{
layerId = "9422835F-145C-491A-96D7-00A9C7F45A34";
name = Bold;
paths = (
{
closed = 1;
nodes = (
"35 81 OFFCURVE",
"167 -10 OFFCURVE",
"348 -10 CURVE SMOOTH",
"529 -10 OFFCURVE",
"661 81 OFFCURVE",
"661 251 CURVE SMOOTH",
"661 468.337 LINE",
"809.067 473.869 OFFCURVE",
"866 529.22 OFFCURVE",
"866 688 CURVE",
"733 688 LINE",
"733 621.861 OFFCURVE",
"713.042 596.507 OFFCURVE",
"661 590.92 CURVE",
"661 644 LINE",
"446 644 LINE",
"446 276 LINE SMOOTH",
"446 206 OFFCURVE",
"412 172 OFFCURVE",
"348 172 CURVE SMOOTH",
"284 172 OFFCURVE",
"250 206 OFFCURVE",
"250 276 CURVE SMOOTH",
"250 644 LINE",
"35 644 LINE",
"35 251 LINE SMOOTH"
);
},
{
closed = 1;
nodes = (
"494 690 OFFCURVE",
"531 706 OFFCURVE",
"544 724 CURVE",
"544 854 LINE",
"528 831 OFFCURVE",
"494 813 OFFCURVE",
"450 813 CURVE SMOOTH",
"384 813 OFFCURVE",
"329 856 OFFCURVE",
"259 856 CURVE SMOOTH",
"219 856 OFFCURVE",
"180 840 OFFCURVE",
"161 822 CURVE",
"161 693 LINE",
"185 717 OFFCURVE",
"218 733 OFFCURVE",
"262 733 CURVE SMOOTH",
"320 733 OFFCURVE",
"384 690 OFFCURVE",
"453 690 CURVE SMOOTH"
);
}
);
width = 876;
}
);
leftKerningGroup = U;
note = Uhorntilde;
rightKerningGroup = U;
unicode = 1EEE;
},
{
glyphname = Uhungarumlaut;
lastChange = "2015-11-26 04:54:46 +0000";
layers = (
{
layerId = "9422835F-145C-491A-96D7-00A9C7F45A34";
name = Bold;
paths = (
{
closed = 1;
nodes = (
"529 -10 OFFCURVE",
"661 81 OFFCURVE",
"661 251 CURVE SMOOTH",
"661 644 LINE",
"446 644 LINE",
"446 276 LINE SMOOTH",
"446 206 OFFCURVE",
"412 172 OFFCURVE",
"348 172 CURVE SMOOTH",
"284 172 OFFCURVE",
"250 206 OFFCURVE",
"250 276 CURVE SMOOTH",
"250 644 LINE",
"35 644 LINE",
"35 251 LINE SMOOTH",
"35 81 OFFCURVE",
"167 -10 OFFCURVE",
"348 -10 CURVE SMOOTH"
);
},
{
closed = 1;
nodes = (
"286 688 LINE",
"394 882 LINE",
"212 882 LINE",
"122 688 LINE"
);
},
{
closed = 1;
nodes = (
"538 688 LINE",
"646 882 LINE",
"464 882 LINE",
"374 688 LINE"
);
}
);
width = 696;
}
);
leftKerningGroup = U;
note = Uhungarumlaut;
rightKerningGroup = U;
unicode = 0170;
},
{
glyphname = Umacron;
lastChange = "2015-11-26 04:54:46 +0000";
layers = (
{
layerId = "9422835F-145C-491A-96D7-00A9C7F45A34";
name = Bold;
paths = (
{
closed = 1;
nodes = (
"529 -10 OFFCURVE",
"661 81 OFFCURVE",
"661 251 CURVE SMOOTH",
"661 644 LINE",
"446 644 LINE",
"446 276 LINE SMOOTH",
"446 206 OFFCURVE",
"412 172 OFFCURVE",
"348 172 CURVE SMOOTH",
"284 172 OFFCURVE",
"250 206 OFFCURVE",
"250 276 CURVE SMOOTH",
"250 644 LINE",
"35 644 LINE",
"35 251 LINE SMOOTH",
"35 81 OFFCURVE",
"167 -10 OFFCURVE",
"348 -10 CURVE SMOOTH"
);
},
{
closed = 1;
nodes = (
"517 725 LINE",
"517 851 LINE",
"178 851 LINE",
"178 725 LINE"
);
}
);
width = 696;
}
);
leftKerningGroup = U;
note = Umacron;
rightKerningGroup = U;
unicode = 016A;
},
{
glyphname = Uogonek;
lastChange = "2015-11-26 04:54:46 +0000";
layers = (
{
layerId = "9422835F-145C-491A-96D7-00A9C7F45A34";
name = Bold;
paths = (
{
closed = 1;
nodes = (
"529 -10 OFFCURVE",
"661 81 OFFCURVE",
"661 251 CURVE SMOOTH",
"661 644 LINE",
"446 644 LINE",
"446 276 LINE SMOOTH",
"446 206 OFFCURVE",
"412 172 OFFCURVE",
"348 172 CURVE SMOOTH",
"284 172 OFFCURVE",
"250 206 OFFCURVE",
"250 276 CURVE SMOOTH",
"250 644 LINE",
"35 644 LINE",
"35 251 LINE SMOOTH",
"35 81 OFFCURVE",
"167 -10 OFFCURVE",
"348 -10 CURVE SMOOTH"
);
},
{
closed = 1;
nodes = (
"400 -220 OFFCURVE",
"444 -211 OFFCURVE",
"465 -203 CURVE",
"465 -107 LINE",
"453 -114 OFFCURVE",
"432 -118 OFFCURVE",
"415 -118 CURVE SMOOTH",
"386 -118 OFFCURVE",
"370 -108 OFFCURVE",
"370 -83 CURVE SMOOTH",
"370 -51 OFFCURVE",
"392 -24 OFFCURVE",
"423 0 CURVE",
"289 0 LINE",
"246 -26 OFFCURVE",
"214 -68 OFFCURVE",
"214 -120 CURVE SMOOTH",
"214 -189 OFFCURVE",
"271 -220 OFFCURVE",
"354 -220 CURVE SMOOTH"
);
}
);
width = 696;
}
);
leftKerningGroup = U;
note = Uogonek;
rightKerningGroup = U;
unicode = 0172;
},
{
glyphname = Uring;
lastChange = "2015-11-26 04:54:47 +0000";
layers = (
{
layerId = "9422835F-145C-491A-96D7-00A9C7F45A34";
name = Bold;
paths = (
{
closed = 1;
nodes = (
"529 -10 OFFCURVE",
"661 81 OFFCURVE",
"661 251 CURVE SMOOTH",
"661 644 LINE",
"446 644 LINE",
"446 276 LINE SMOOTH",
"446 206 OFFCURVE",
"412 172 OFFCURVE",
"348 172 CURVE SMOOTH",
"284 172 OFFCURVE",
"250 206 OFFCURVE",
"250 276 CURVE SMOOTH",
"250 644 LINE",
"35 644 LINE",
"35 251 LINE SMOOTH",
"35 81 OFFCURVE",
"167 -10 OFFCURVE",
"348 -10 CURVE SMOOTH"
);
},
{
closed = 1;
nodes = (
"442 688 OFFCURVE",
"494 748 OFFCURVE",
"494 825 CURVE SMOOTH",
"494 903 OFFCURVE",
"442 963 OFFCURVE",
"347 963 CURVE SMOOTH",
"253 963 OFFCURVE",
"201 903 OFFCURVE",
"201 825 CURVE SMOOTH",
"201 748 OFFCURVE",
"253 688 OFFCURVE",
"347 688 CURVE SMOOTH"
);
},
{
closed = 1;
nodes = (
"311 773 OFFCURVE",
"292 797 OFFCURVE",
"292 825 CURVE SMOOTH",
"292 853 OFFCURVE",
"311 878 OFFCURVE",
"347 878 CURVE SMOOTH",
"384 878 OFFCURVE",
"402 853 OFFCURVE",
"402 825 CURVE SMOOTH",
"402 797 OFFCURVE",
"384 773 OFFCURVE",
"347 773 CURVE SMOOTH"
);
}
);
width = 696;
}
);
leftKerningGroup = U;
note = Uring;
rightKerningGroup = U;
unicode = 016E;
},
{
glyphname = Utilde;
lastChange = "2015-11-26 04:54:46 +0000";
layers = (
{
layerId = "9422835F-145C-491A-96D7-00A9C7F45A34";
name = Bold;
paths = (
{
closed = 1;
nodes = (
"529 -10 OFFCURVE",
"661 81 OFFCURVE",
"661 251 CURVE SMOOTH",
"661 644 LINE",
"446 644 LINE",
"446 276 LINE SMOOTH",
"446 206 OFFCURVE",
"412 172 OFFCURVE",
"348 172 CURVE SMOOTH",
"284 172 OFFCURVE",
"250 206 OFFCURVE",
"250 276 CURVE SMOOTH",
"250 644 LINE",
"35 644 LINE",
"35 251 LINE SMOOTH",
"35 81 OFFCURVE",
"167 -10 OFFCURVE",
"348 -10 CURVE SMOOTH"
);
},
{
closed = 1;
nodes = (
"489 694 OFFCURVE",
"526 710 OFFCURVE",
"539 728 CURVE",
"539 858 LINE",
"523 835 OFFCURVE",
"489 817 OFFCURVE",
"445 817 CURVE SMOOTH",
"379 817 OFFCURVE",
"324 860 OFFCURVE",
"254 860 CURVE SMOOTH",
"214 860 OFFCURVE",
"175 844 OFFCURVE",
"156 826 CURVE",
"156 697 LINE",
"180 721 OFFCURVE",
"213 737 OFFCURVE",
"257 737 CURVE SMOOTH",
"315 737 OFFCURVE",
"379 694 OFFCURVE",
"448 694 CURVE SMOOTH"
);
}
);
width = 696;
}
);
leftKerningGroup = U;
note = Utilde;
rightKerningGroup = U;
unicode = 0168;
},
{
glyphname = V;
lastChange = "2015-11-26 04:54:43 +0000";
layers = (
{
layerId = "9422835F-145C-491A-96D7-00A9C7F45A34";
name = Bold;
paths = (
{
closed = 1;
nodes = (
"492 0 LINE",
"740 644 LINE",
"515 644 LINE",
"379 252 LINE",
"244 644 LINE",
"20 644 LINE",
"267 0 LINE"
);
}
);
width = 760;
}
);
note = V;
unicode = 0056;
},
{
glyphname = W;
lastChange = "2015-11-26 04:54:43 +0000";
layers = (
{
layerId = "9422835F-145C-491A-96D7-00A9C7F45A34";
name = Bold;
paths = (
{
closed = 1;
nodes = (
"360 0 LINE",
"454 293 LINE",
"541 0 LINE",
"732 0 LINE",
"881 644 LINE",
"671 644 LINE",
"605 349 LINE",
"520 644 LINE",
"345 644 LINE",
"345 541 LINE",
"291 350 LINE",
"230 644 LINE",
"20 644 LINE",
"170 0 LINE"
);
}
);
width = 901;
}
);
leftKerningGroup = W;
note = W;
rightKerningGroup = W;
unicode = 0057;
},
{
glyphname = Wacute;
lastChange = "2015-11-26 04:54:46 +0000";
layers = (
{
layerId = "9422835F-145C-491A-96D7-00A9C7F45A34";
name = Bold;
paths = (
{
closed = 1;
nodes = (
"360 0 LINE",
"454 293 LINE",
"541 0 LINE",
"732 0 LINE",
"881 644 LINE",
"671 644 LINE",
"605 349 LINE",
"520 644 LINE",
"345 644 LINE",
"345 541 LINE",
"291 350 LINE",
"230 644 LINE",
"20 644 LINE",
"170 0 LINE"
);
},
{
closed = 1;
nodes = (
"506 688 LINE",
"607 904 LINE",
"441 904 LINE",
"349 688 LINE"
);
}
);
width = 901;
}
);
leftKerningGroup = W;
note = Wacute;
rightKerningGroup = W;
unicode = 1E82;
},
{
glyphname = Wcircumflex;
lastChange = "2015-11-26 04:54:46 +0000";
layers = (
{
layerId = "9422835F-145C-491A-96D7-00A9C7F45A34";
name = Bold;
paths = (
{
closed = 1;
nodes = (
"360 0 LINE",
"454 293 LINE",
"541 0 LINE",
"732 0 LINE",
"881 644 LINE",
"671 644 LINE",
"605 349 LINE",
"520 644 LINE",
"345 644 LINE",
"345 541 LINE",
"291 350 LINE",
"230 644 LINE",
"20 644 LINE",
"170 0 LINE"
);
},
{
closed = 1;
nodes = (
"382 688 LINE",
"455 796 LINE",
"531 688 LINE",
"683 688 LINE",
"518 896 LINE",
"391 896 LINE",
"226 688 LINE"
);
}
);
width = 901;
}
);
leftKerningGroup = W;
note = Wcircumflex;
rightKerningGroup = W;
unicode = 0174;
},
{
glyphname = Wdieresis;
lastChange = "2015-11-26 04:54:46 +0000";
layers = (
{
layerId = "9422835F-145C-491A-96D7-00A9C7F45A34";
name = Bold;
paths = (
{
closed = 1;
nodes = (
"360 0 LINE",
"454 293 LINE",
"541 0 LINE",
"732 0 LINE",
"881 644 LINE",
"671 644 LINE",
"605 349 LINE",
"520 644 LINE",
"345 644 LINE",
"345 541 LINE",
"291 350 LINE",
"230 644 LINE",
"20 644 LINE",
"170 0 LINE"
);
},
{
closed = 1;
nodes = (
"414 716 LINE",
"414 847 LINE",
"270 847 LINE",
"270 716 LINE"
);
},
{
closed = 1;
nodes = (
"639 716 LINE",
"639 847 LINE",
"496 847 LINE",
"496 716 LINE"
);
}
);
width = 901;
}
);
leftKerningGroup = W;
note = Wdieresis;
rightKerningGroup = W;
unicode = 1E84;
},
{
glyphname = Wgrave;
lastChange = "2015-11-26 04:54:46 +0000";
layers = (
{
layerId = "9422835F-145C-491A-96D7-00A9C7F45A34";
name = Bold;
paths = (
{
closed = 1;
nodes = (
"360 0 LINE",
"454 293 LINE",
"541 0 LINE",
"732 0 LINE",
"881 644 LINE",
"671 644 LINE",
"605 349 LINE",
"520 644 LINE",
"345 644 LINE",
"345 541 LINE",
"291 350 LINE",
"230 644 LINE",
"20 644 LINE",
"170 0 LINE"
);
},
{
closed = 1;
nodes = (
"516 688 LINE",
"424 904 LINE",
"257 904 LINE",
"358 688 LINE"
);
}
);
width = 901;
}
);
leftKerningGroup = W;
note = Wgrave;
rightKerningGroup = W;
unicode = 1E80;
},
{
glyphname = X;
lastChange = "2015-11-26 04:54:43 +0000";
layers = (
{
layerId = "9422835F-145C-491A-96D7-00A9C7F45A34";
name = Bold;
paths = (
{
closed = 1;
nodes = (
"252 0 LINE",
"376 175 LINE",
"501 0 LINE",
"728 0 LINE",
"490 326 LINE",
"719 644 LINE",
"495 644 LINE",
"376 475 LINE",
"258 644 LINE",
"34 644 LINE",
"263 326 LINE",
"25 0 LINE"
);
}
);
width = 781;
}
);
note = X;
unicode = 0058;
},
{
glyphname = Y;
lastChange = "2015-11-26 04:54:43 +0000";
layers = (
{
layerId = "9422835F-145C-491A-96D7-00A9C7F45A34";
name = Bold;
paths = (
{
closed = 1;
nodes = (
"467 0 LINE",
"467 235 LINE",
"700 644 LINE",
"476 644 LINE",
"360 420 LINE",
"244 644 LINE",
"20 644 LINE",
"252 235 LINE",
"252 0 LINE"
);
}
);
width = 720;
}
);
leftKerningGroup = Y;
note = Y;
rightKerningGroup = Y;
unicode = 0059;
},
{
glyphname = Yacute;
lastChange = "2015-11-26 04:54:45 +0000";
layers = (
{
layerId = "9422835F-145C-491A-96D7-00A9C7F45A34";
name = Bold;
paths = (
{
closed = 1;
nodes = (
"467 0 LINE",
"467 235 LINE",
"700 644 LINE",
"476 644 LINE",
"360 420 LINE",
"244 644 LINE",
"20 644 LINE",
"252 235 LINE",
"252 0 LINE"
);
},
{
closed = 1;
nodes = (
"436 688 LINE",
"537 904 LINE",
"371 904 LINE",
"279 688 LINE"
);
}
);
width = 720;
}
);
leftKerningGroup = Y;
note = Yacute;
rightKerningGroup = Y;
unicode = 00DD;
},
{
glyphname = Ycircumflex;
lastChange = "2015-11-26 04:54:45 +0000";
layers = (
{
layerId = "9422835F-145C-491A-96D7-00A9C7F45A34";
name = Bold;
paths = (
{
closed = 1;
nodes = (
"467 0 LINE",
"467 235 LINE",
"700 644 LINE",
"476 644 LINE",
"360 420 LINE",
"244 644 LINE",
"20 644 LINE",
"252 235 LINE",
"252 0 LINE"
);
},
{
closed = 1;
nodes = (
"288 688 LINE",
"361 796 LINE",
"437 688 LINE",
"589 688 LINE",
"424 896 LINE",
"297 896 LINE",
"132 688 LINE"
);
}
);
width = 720;
}
);
leftKerningGroup = Y;
note = Ycircumflex;
rightKerningGroup = Y;
unicode = 0176;
},
{
glyphname = Ydieresis;
lastChange = "2015-11-26 04:54:46 +0000";
layers = (
{
layerId = "9422835F-145C-491A-96D7-00A9C7F45A34";
name = Bold;
paths = (
{
closed = 1;
nodes = (
"467 0 LINE",
"467 235 LINE",
"700 644 LINE",
"476 644 LINE",
"360 420 LINE",
"244 644 LINE",
"20 644 LINE",
"252 235 LINE",
"252 0 LINE"
);
},
{
closed = 1;
nodes = (
"320 716 LINE",
"320 847 LINE",
"176 847 LINE",
"176 716 LINE"
);
},
{
closed = 1;
nodes = (
"545 716 LINE",
"545 847 LINE",
"402 847 LINE",
"402 716 LINE"
);
}
);
width = 720;
}
);
leftKerningGroup = Y;
note = Ydieresis;
rightKerningGroup = Y;
unicode = 0178;
},
{
glyphname = Ydotaccent;
lastChange = "2015-11-26 04:54:46 +0000";
layers = (
{
layerId = "9422835F-145C-491A-96D7-00A9C7F45A34";
name = Bold;
paths = (
{
closed = 1;
nodes = (
"467 0 LINE",
"467 235 LINE",
"700 644 LINE",
"476 644 LINE",
"360 420 LINE",
"244 644 LINE",
"20 644 LINE",
"252 235 LINE",
"252 0 LINE"
);
},
{
closed = 1;
nodes = (
"431 716 LINE",
"431 847 LINE",
"288 847 LINE",
"288 716 LINE"
);
}
);
width = 720;
}
);
leftKerningGroup = Y;
note = Ydotaccent;
rightKerningGroup = Y;
unicode = 1E8E;
},
{
glyphname = Ydotbelow;
lastChange = "2015-11-26 04:54:46 +0000";
layers = (
{
layerId = "9422835F-145C-491A-96D7-00A9C7F45A34";
name = Bold;
paths = (
{
closed = 1;
nodes = (
"467 0 LINE",
"467 235 LINE",
"700 644 LINE",
"476 644 LINE",
"360 420 LINE",
"244 644 LINE",
"20 644 LINE",
"252 235 LINE",
"252 0 LINE"
);
},
{
closed = 1;
nodes = (
"432 -175 LINE",
"432 -45 LINE",
"289 -45 LINE",
"289 -175 LINE"
);
}
);
width = 720;
}
);
leftKerningGroup = Y;
note = Ydotbelow;
rightKerningGroup = Y;
unicode = 1EF4;
},
{
glyphname = Ygrave;
lastChange = "2015-11-26 04:54:45 +0000";
layers = (
{
layerId = "9422835F-145C-491A-96D7-00A9C7F45A34";
name = Bold;
paths = (
{
closed = 1;
nodes = (
"467 0 LINE",
"467 235 LINE",
"700 644 LINE",
"476 644 LINE",
"360 420 LINE",
"244 644 LINE",
"20 644 LINE",
"252 235 LINE",
"252 0 LINE"
);
},
{
closed = 1;
nodes = (
"437 688 LINE",
"345 904 LINE",
"178 904 LINE",
"279 688 LINE"
);
}
);
width = 720;
}
);
leftKerningGroup = Y;
note = Ygrave;
rightKerningGroup = Y;
unicode = 1EF2;
},
{
glyphname = Yhookabove;
lastChange = "2015-11-26 04:54:46 +0000";
layers = (
{
layerId = "9422835F-145C-491A-96D7-00A9C7F45A34";
name = Bold;
paths = (
{
closed = 1;
nodes = (
"467 0 LINE",
"467 235 LINE",
"700 644 LINE",
"476 644 LINE",
"360 420 LINE",
"244 644 LINE",
"20 644 LINE",
"252 235 LINE",
"252 0 LINE"
);
},
{
closed = 1;
nodes = (
"438 688 LINE",
"438 726 LINE",
"494 743 OFFCURVE",
"521 769 OFFCURVE",
"521 828 CURVE SMOOTH",
"521 888 OFFCURVE",
"469 932 OFFCURVE",
"375 932 CURVE SMOOTH",
"322 932 OFFCURVE",
"282 927 OFFCURVE",
"252 918 CURVE",
"252 832 LINE",
"268 837 OFFCURVE",
"290 841 OFFCURVE",
"310 841 CURVE SMOOTH",
"346 841 OFFCURVE",
"365 832 OFFCURVE",
"365 810 CURVE SMOOTH",
"365 788 OFFCURVE",
"345 773 OFFCURVE",
"278 769 CURVE",
"278 688 LINE"
);
}
);
width = 720;
}
);
leftKerningGroup = Y;
note = Yhookabove;
rightKerningGroup = Y;
unicode = 1EF6;
},
{
glyphname = Ytilde;
lastChange = "2015-11-26 04:54:45 +0000";
layers = (
{
layerId = "9422835F-145C-491A-96D7-00A9C7F45A34";
name = Bold;
paths = (
{
closed = 1;
nodes = (
"467 0 LINE",
"467 235 LINE",
"700 644 LINE",
"476 644 LINE",
"360 420 LINE",
"244 644 LINE",
"20 644 LINE",
"252 235 LINE",
"252 0 LINE"
);
},
{
closed = 1;
nodes = (
"501 694 OFFCURVE",
"538 710 OFFCURVE",
"551 728 CURVE",
"551 858 LINE",
"535 835 OFFCURVE",
"501 817 OFFCURVE",
"457 817 CURVE SMOOTH",
"391 817 OFFCURVE",
"336 860 OFFCURVE",
"266 860 CURVE SMOOTH",
"226 860 OFFCURVE",
"187 844 OFFCURVE",
"168 826 CURVE",
"168 697 LINE",
"192 721 OFFCURVE",
"225 737 OFFCURVE",
"269 737 CURVE SMOOTH",
"327 737 OFFCURVE",
"391 694 OFFCURVE",
"460 694 CURVE SMOOTH"
);
}
);
width = 720;
}
);
leftKerningGroup = Y;
note = Ytilde;
rightKerningGroup = Y;
unicode = 1EF8;
},
{
glyphname = Z;
lastChange = "2015-11-26 04:54:43 +0000";
layers = (
{
layerId = "9422835F-145C-491A-96D7-00A9C7F45A34";
name = Bold;
paths = (
{
closed = 1;
nodes = (
"567 0 LINE",
"567 164 LINE",
"306 164 LINE",
"561 526 LINE",
"561 644 LINE",
"34 644 LINE",
"34 473 LINE",
"278 473 LINE",
"20 106 LINE",
"20 0 LINE"
);
}
);
width = 582;
}
);
note = Z;
unicode = 005A;
},
{
glyphname = Zacute;
lastChange = "2015-11-26 04:54:45 +0000";
layers = (
{
layerId = "9422835F-145C-491A-96D7-00A9C7F45A34";
name = Bold;
paths = (
{
closed = 1;
nodes = (
"567 0 LINE",
"567 164 LINE",
"306 164 LINE",
"561 526 LINE",
"561 644 LINE",
"34 644 LINE",
"34 473 LINE",
"278 473 LINE",
"20 106 LINE",
"20 0 LINE"
);
},
{
closed = 1;
nodes = (
"357 688 LINE",
"458 904 LINE",
"292 904 LINE",
"200 688 LINE"
);
}
);
width = 582;
}
);
note = Zacute;
unicode = 0179;
},
{
glyphname = Zcaron;
lastChange = "2015-11-26 04:54:45 +0000";
layers = (
{
layerId = "9422835F-145C-491A-96D7-00A9C7F45A34";
name = Bold;
paths = (
{
closed = 1;
nodes = (
"567 0 LINE",
"567 164 LINE",
"306 164 LINE",
"561 526 LINE",
"561 644 LINE",
"34 644 LINE",
"34 473 LINE",
"278 473 LINE",
"20 106 LINE",
"20 0 LINE"
);
},
{
closed = 1;
nodes = (
"371 688 LINE",
"536 896 LINE",
"384 896 LINE",
"308 788 LINE",
"235 896 LINE",
"79 896 LINE",
"244 688 LINE"
);
}
);
width = 584;
}
);
note = Zcaron;
unicode = 017D;
},
{
glyphname = Zdotaccent;
lastChange = "2015-11-26 04:54:45 +0000";
layers = (
{
layerId = "9422835F-145C-491A-96D7-00A9C7F45A34";
name = Bold;
paths = (
{
closed = 1;
nodes = (
"567 0 LINE",
"567 164 LINE",
"306 164 LINE",
"561 526 LINE",
"561 644 LINE",
"34 644 LINE",
"34 473 LINE",
"278 473 LINE",
"20 106 LINE",
"20 0 LINE"
);
},
{
closed = 1;
nodes = (
"370 716 LINE",
"370 847 LINE",
"227 847 LINE",
"227 716 LINE"
);
}
);
width = 584;
}
);
note = Zdotaccent;
unicode = 017B;
},
{
glyphname = Zdotbelow;
lastChange = "2015-11-26 04:54:47 +0000";
layers = (
{
layerId = "9422835F-145C-491A-96D7-00A9C7F45A34";
name = Bold;
paths = (
{
closed = 1;
nodes = (
"567 0 LINE",
"567 164 LINE",
"306 164 LINE",
"561 526 LINE",
"561 644 LINE",
"34 644 LINE",
"34 473 LINE",
"278 473 LINE",
"20 106 LINE",
"20 0 LINE"
);
},
{
closed = 1;
nodes = (
"371 -176 LINE",
"371 -46 LINE",
"228 -46 LINE",
"228 -176 LINE"
);
}
);
width = 582;
}
);
note = Zdotbelow;
unicode = 1E92;
},
{
glyphname = a;
lastChange = "2015-11-26 05:20:12 +0000";
layers = (
{
layerId = "9422835F-145C-491A-96D7-00A9C7F45A34";
name = Bold;
paths = (
{
closed = 1;
nodes = (
"262 -10 OFFCURVE",
"312 8 OFFCURVE",
"345 36 CURVE",
"354 0 LINE",
"542 0 LINE",
"542 287 LINE SMOOTH",
"542 423 OFFCURVE",
"440 484 OFFCURVE",
"286 484 CURVE SMOOTH",
"212 484 OFFCURVE",
"129 470 OFFCURVE",
"79 449 CURVE",
"79 328 LINE",
"131 344 OFFCURVE",
"192 353 OFFCURVE",
"243 353 CURVE SMOOTH",
"310 353 OFFCURVE",
"338 338 OFFCURVE",
"338 312 CURVE SMOOTH",
"338 305 LINE",
"223 305 LINE SMOOTH",
"86 305 OFFCURVE",
"20 248 OFFCURVE",
"20 145 CURVE SMOOTH",
"20 36 OFFCURVE",
"96 -10 OFFCURVE",
"187 -10 CURVE SMOOTH"
);
},
{
closed = 1;
nodes = (
"232 111 OFFCURVE",
"217 126 OFFCURVE",
"217 151 CURVE SMOOTH",
"217 180 OFFCURVE",
"234 192 OFFCURVE",
"270 192 CURVE SMOOTH",
"338 192 LINE",
"338 141 LINE",
"321 123 OFFCURVE",
"298 111 OFFCURVE",
"265 111 CURVE SMOOTH"
);
}
);
width = 579;
}
);
leftKerningGroup = a;
note = a;
unicode = 0061;
},
{
glyphname = aacute;
lastChange = "2015-11-26 04:54:45 +0000";
layers = (
{
layerId = "9422835F-145C-491A-96D7-00A9C7F45A34";
name = Bold;
paths = (
{
closed = 1;
nodes = (
"262 -10 OFFCURVE",
"312 8 OFFCURVE",
"345 36 CURVE",
"354 0 LINE",
"542 0 LINE",
"542 287 LINE SMOOTH",
"542 423 OFFCURVE",
"440 484 OFFCURVE",
"286 484 CURVE SMOOTH",
"212 484 OFFCURVE",
"129 470 OFFCURVE",
"79 449 CURVE",
"79 328 LINE",
"131 344 OFFCURVE",
"192 353 OFFCURVE",
"243 353 CURVE SMOOTH",
"310 353 OFFCURVE",
"338 338 OFFCURVE",
"338 312 CURVE SMOOTH",
"338 305 LINE",
"223 305 LINE SMOOTH",
"86 305 OFFCURVE",
"20 248 OFFCURVE",
"20 145 CURVE SMOOTH",
"20 36 OFFCURVE",
"96 -10 OFFCURVE",
"187 -10 CURVE SMOOTH"
);
},
{
closed = 1;
nodes = (
"232 111 OFFCURVE",
"217 126 OFFCURVE",
"217 151 CURVE SMOOTH",
"217 180 OFFCURVE",
"234 192 OFFCURVE",
"270 192 CURVE SMOOTH",
"338 192 LINE",
"338 141 LINE",
"321 123 OFFCURVE",
"298 111 OFFCURVE",
"265 111 CURVE SMOOTH"
);
},
{
closed = 1;
nodes = (
"368 522 LINE",
"469 738 LINE",
"303 738 LINE",
"211 522 LINE"
);
}
);
width = 579;
}
);
leftKerningGroup = a;
note = aacute;
unicode = 00E1;
},
{
glyphname = abreve;
lastChange = "2015-11-26 05:20:12 +0000";
layers = (
{
layerId = "9422835F-145C-491A-96D7-00A9C7F45A34";
name = Bold;
paths = (
{
closed = 1;
nodes = (
"262 -10 OFFCURVE",
"312 8 OFFCURVE",
"345 36 CURVE",
"354 0 LINE",
"542 0 LINE",
"542 287 LINE SMOOTH",
"542 423 OFFCURVE",
"440 484 OFFCURVE",
"286 484 CURVE SMOOTH",
"212 484 OFFCURVE",
"129 470 OFFCURVE",
"79 449 CURVE",
"79 328 LINE",
"131 344 OFFCURVE",
"192 353 OFFCURVE",
"243 353 CURVE SMOOTH",
"310 353 OFFCURVE",
"338 338 OFFCURVE",
"338 312 CURVE SMOOTH",
"338 305 LINE",
"223 305 LINE SMOOTH",
"86 305 OFFCURVE",
"20 248 OFFCURVE",
"20 145 CURVE SMOOTH",
"20 36 OFFCURVE",
"96 -10 OFFCURVE",
"187 -10 CURVE SMOOTH"
);
},
{
closed = 1;
nodes = (
"232 111 OFFCURVE",
"217 126 OFFCURVE",
"217 151 CURVE SMOOTH",
"217 180 OFFCURVE",
"234 192 OFFCURVE",
"270 192 CURVE SMOOTH",
"338 192 LINE",
"338 141 LINE",
"321 123 OFFCURVE",
"298 111 OFFCURVE",
"265 111 CURVE SMOOTH"
);
},
{
closed = 1;
nodes = (
"422 522 OFFCURVE",
"504 594 OFFCURVE",
"504 726 CURVE",
"365 726 LINE",
"365 679 OFFCURVE",
"349 640 OFFCURVE",
"298 640 CURVE SMOOTH",
"248 640 OFFCURVE",
"232 679 OFFCURVE",
"232 726 CURVE",
"94 726 LINE",
"94 594 OFFCURVE",
"175 522 OFFCURVE",
"298 522 CURVE SMOOTH"
);
}
);
width = 579;
}
);
leftKerningGroup = a;
note = abreve;
unicode = 0103;
},
{
glyphname = abreveacute;
lastChange = "2015-11-26 05:20:12 +0000";
layers = (
{
layerId = "9422835F-145C-491A-96D7-00A9C7F45A34";
name = Bold;
paths = (
{
closed = 1;
nodes = (
"262 -10 OFFCURVE",
"312 8 OFFCURVE",
"345 36 CURVE",
"354 0 LINE",
"542 0 LINE",
"542 287 LINE SMOOTH",
"542 423 OFFCURVE",
"440 484 OFFCURVE",
"286 484 CURVE SMOOTH",
"212 484 OFFCURVE",
"129 470 OFFCURVE",
"79 449 CURVE",
"79 328 LINE",
"131 344 OFFCURVE",
"192 353 OFFCURVE",
"243 353 CURVE SMOOTH",
"310 353 OFFCURVE",
"338 338 OFFCURVE",
"338 312 CURVE SMOOTH",
"338 305 LINE",
"223 305 LINE SMOOTH",
"86 305 OFFCURVE",
"20 248 OFFCURVE",
"20 145 CURVE SMOOTH",
"20 36 OFFCURVE",
"96 -10 OFFCURVE",
"187 -10 CURVE SMOOTH"
);
},
{
closed = 1;
nodes = (
"232 111 OFFCURVE",
"217 126 OFFCURVE",
"217 151 CURVE SMOOTH",
"217 180 OFFCURVE",
"234 192 OFFCURVE",
"270 192 CURVE SMOOTH",
"338 192 LINE",
"338 141 LINE",
"321 123 OFFCURVE",
"298 111 OFFCURVE",
"265 111 CURVE SMOOTH"
);
},
{
closed = 1;
nodes = (
"411 522 OFFCURVE",
"487 577 OFFCURVE",
"487 702 CURVE",
"368 702 LINE",
"368 658 OFFCURVE",
"346 626 OFFCURVE",
"297 626 CURVE SMOOTH",
"249 626 OFFCURVE",
"227 658 OFFCURVE",
"227 702 CURVE",
"107 702 LINE",
"107 577 OFFCURVE",
"184 522 OFFCURVE",
"297 522 CURVE SMOOTH"
);
},
{
closed = 1;
nodes = (
"360 726 LINE",
"440 874 LINE",
"299 874 LINE",
"232 726 LINE"
);
}
);
width = 579;
}
);
leftKerningGroup = a;
note = abreveacute;
unicode = 1EAF;
},
{
glyphname = abrevedotbelow;
lastChange = "2015-11-26 05:20:26 +0000";
layers = (
{
layerId = "9422835F-145C-491A-96D7-00A9C7F45A34";
name = Bold;
paths = (
{
closed = 1;
nodes = (
"262 -10 OFFCURVE",
"312 8 OFFCURVE",
"345 36 CURVE",
"354 0 LINE",
"542 0 LINE",
"542 287 LINE SMOOTH",
"542 423 OFFCURVE",
"440 484 OFFCURVE",
"286 484 CURVE SMOOTH",
"212 484 OFFCURVE",
"129 470 OFFCURVE",
"79 449 CURVE",
"79 328 LINE",
"131 344 OFFCURVE",
"192 353 OFFCURVE",
"243 353 CURVE SMOOTH",
"310 353 OFFCURVE",
"338 338 OFFCURVE",
"338 312 CURVE SMOOTH",
"338 305 LINE",
"223 305 LINE SMOOTH",
"86 305 OFFCURVE",
"20 248 OFFCURVE",
"20 145 CURVE SMOOTH",
"20 36 OFFCURVE",
"96 -10 OFFCURVE",
"187 -10 CURVE SMOOTH"
);
},
{
closed = 1;
nodes = (
"232 111 OFFCURVE",
"217 126 OFFCURVE",
"217 151 CURVE SMOOTH",
"217 180 OFFCURVE",
"234 192 OFFCURVE",
"270 192 CURVE SMOOTH",
"338 192 LINE",
"338 141 LINE",
"321 123 OFFCURVE",
"298 111 OFFCURVE",
"265 111 CURVE SMOOTH"
);
},
{
closed = 1;
nodes = (
"385 -176 LINE",
"385 -46 LINE",
"242 -46 LINE",
"242 -176 LINE"
);
},
{
closed = 1;
nodes = (
"434 522 OFFCURVE",
"516 594 OFFCURVE",
"516 726 CURVE",
"377 726 LINE",
"377 679 OFFCURVE",
"361 640 OFFCURVE",
"310 640 CURVE SMOOTH",
"260 640 OFFCURVE",
"244 679 OFFCURVE",
"244 726 CURVE",
"106 726 LINE",
"106 594 OFFCURVE",
"187 522 OFFCURVE",
"310 522 CURVE SMOOTH"
);
}
);
width = 579;
}
);
leftKerningGroup = a;
note = abrevedotbelow;
unicode = 1EB7;
},
{
glyphname = abrevegrave;
lastChange = "2015-11-26 05:20:12 +0000";
layers = (
{
layerId = "9422835F-145C-491A-96D7-00A9C7F45A34";
name = Bold;
paths = (
{
closed = 1;
nodes = (
"262 -10 OFFCURVE",
"312 8 OFFCURVE",
"345 36 CURVE",
"354 0 LINE",
"542 0 LINE",
"542 287 LINE SMOOTH",
"542 423 OFFCURVE",
"440 484 OFFCURVE",
"286 484 CURVE SMOOTH",
"212 484 OFFCURVE",
"129 470 OFFCURVE",
"79 449 CURVE",
"79 328 LINE",
"131 344 OFFCURVE",
"192 353 OFFCURVE",
"243 353 CURVE SMOOTH",
"310 353 OFFCURVE",
"338 338 OFFCURVE",
"338 312 CURVE SMOOTH",
"338 305 LINE",
"223 305 LINE SMOOTH",
"86 305 OFFCURVE",
"20 248 OFFCURVE",
"20 145 CURVE SMOOTH",
"20 36 OFFCURVE",
"96 -10 OFFCURVE",
"187 -10 CURVE SMOOTH"
);
},
{
closed = 1;
nodes = (
"232 111 OFFCURVE",
"217 126 OFFCURVE",
"217 151 CURVE SMOOTH",
"217 180 OFFCURVE",
"234 192 OFFCURVE",
"270 192 CURVE SMOOTH",
"338 192 LINE",
"338 141 LINE",
"321 123 OFFCURVE",
"298 111 OFFCURVE",
"265 111 CURVE SMOOTH"
);
},
{
closed = 1;
nodes = (
"413 522 OFFCURVE",
"490 577 OFFCURVE",
"490 702 CURVE",
"370 702 LINE",
"370 658 OFFCURVE",
"348 626 OFFCURVE",
"300 626 CURVE SMOOTH",
"251 626 OFFCURVE",
"229 658 OFFCURVE",
"229 702 CURVE",
"110 702 LINE",
"110 577 OFFCURVE",
"186 522 OFFCURVE",
"300 522 CURVE SMOOTH"
);
},
{
closed = 1;
nodes = (
"365 726 LINE",
"298 874 LINE",
"157 874 LINE",
"237 726 LINE"
);
}
);
width = 579;
}
);
leftKerningGroup = a;
note = abrevegrave;
unicode = 1EB1;
},
{
glyphname = abrevehookabove;
lastChange = "2015-11-26 05:20:12 +0000";
layers = (
{
layerId = "9422835F-145C-491A-96D7-00A9C7F45A34";
name = Bold;
paths = (
{
closed = 1;
nodes = (
"262 -10 OFFCURVE",
"312 8 OFFCURVE",
"345 36 CURVE",
"354 0 LINE",
"542 0 LINE",
"542 287 LINE SMOOTH",
"542 423 OFFCURVE",
"440 484 OFFCURVE",
"286 484 CURVE SMOOTH",
"212 484 OFFCURVE",
"129 470 OFFCURVE",
"79 449 CURVE",
"79 328 LINE",
"131 344 OFFCURVE",
"192 353 OFFCURVE",
"243 353 CURVE SMOOTH",
"310 353 OFFCURVE",
"338 338 OFFCURVE",
"338 312 CURVE SMOOTH",
"338 305 LINE",
"223 305 LINE SMOOTH",
"86 305 OFFCURVE",
"20 248 OFFCURVE",
"20 145 CURVE SMOOTH",
"20 36 OFFCURVE",
"96 -10 OFFCURVE",
"187 -10 CURVE SMOOTH"
);
},
{
closed = 1;
nodes = (
"232 111 OFFCURVE",
"217 126 OFFCURVE",
"217 151 CURVE SMOOTH",
"217 180 OFFCURVE",
"234 192 OFFCURVE",
"270 192 CURVE SMOOTH",
"338 192 LINE",
"338 141 LINE",
"321 123 OFFCURVE",
"298 111 OFFCURVE",
"265 111 CURVE SMOOTH"
);
},
{
closed = 1;
nodes = (
"415 522 OFFCURVE",
"492 577 OFFCURVE",
"492 702 CURVE",
"372 702 LINE",
"372 658 OFFCURVE",
"350 626 OFFCURVE",
"302 626 CURVE SMOOTH",
"253 626 OFFCURVE",
"231 658 OFFCURVE",
"231 702 CURVE",
"112 702 LINE",
"112 577 OFFCURVE",
"188 522 OFFCURVE",
"302 522 CURVE SMOOTH"
);
},
{
closed = 1;
nodes = (
"368 716 LINE",
"368 744 LINE",
"418 757 OFFCURVE",
"438 780 OFFCURVE",
"438 824 CURVE SMOOTH",
"438 872 OFFCURVE",
"396 910 OFFCURVE",
"320 910 CURVE SMOOTH",
"281 910 OFFCURVE",
"240 904 OFFCURVE",
"216 897 CURVE",
"216 825 LINE",
"228 830 OFFCURVE",
"246 835 OFFCURVE",
"263 835 CURVE SMOOTH",
"292 835 OFFCURVE",
"307 830 OFFCURVE",
"307 810 CURVE SMOOTH",
"307 791 OFFCURVE",
"287 779 OFFCURVE",
"235 777 CURVE",
"235 716 LINE"
);
}
);
width = 579;
}
);
leftKerningGroup = a;
note = abrevehookabove;
unicode = 1EB3;
},
{
glyphname = abrevetilde;
lastChange = "2015-11-26 05:20:34 +0000";
layers = (
{
layerId = "9422835F-145C-491A-96D7-00A9C7F45A34";
name = Bold;
paths = (
{
closed = 1;
nodes = (
"262 -10 OFFCURVE",
"312 8 OFFCURVE",
"345 36 CURVE",
"354 0 LINE",
"542 0 LINE",
"542 287 LINE SMOOTH",
"542 423 OFFCURVE",
"440 484 OFFCURVE",
"286 484 CURVE SMOOTH",
"212 484 OFFCURVE",
"129 470 OFFCURVE",
"79 449 CURVE",
"79 328 LINE",
"131 344 OFFCURVE",
"192 353 OFFCURVE",
"243 353 CURVE SMOOTH",
"310 353 OFFCURVE",
"338 338 OFFCURVE",
"338 312 CURVE SMOOTH",
"338 305 LINE",
"223 305 LINE SMOOTH",
"86 305 OFFCURVE",
"20 248 OFFCURVE",
"20 145 CURVE SMOOTH",
"20 36 OFFCURVE",
"96 -10 OFFCURVE",
"187 -10 CURVE SMOOTH"
);
},
{
closed = 1;
nodes = (
"232 111 OFFCURVE",
"217 126 OFFCURVE",
"217 151 CURVE SMOOTH",
"217 180 OFFCURVE",
"234 192 OFFCURVE",
"270 192 CURVE SMOOTH",
"338 192 LINE",
"338 141 LINE",
"321 123 OFFCURVE",
"298 111 OFFCURVE",
"265 111 CURVE SMOOTH"
);
},
{
closed = 1;
nodes = (
"411 522 OFFCURVE",
"488 577 OFFCURVE",
"488 702 CURVE",
"368 702 LINE",
"368 658 OFFCURVE",
"346 626 OFFCURVE",
"298 626 CURVE SMOOTH",
"249 626 OFFCURVE",
"227 658 OFFCURVE",
"227 702 CURVE",
"108 702 LINE",
"108 577 OFFCURVE",
"184 522 OFFCURVE",
"298 522 CURVE SMOOTH"
);
},
{
closed = 1;
nodes = (
"431 723 OFFCURVE",
"465 738 OFFCURVE",
"478 755 CURVE",
"478 861 LINE",
"462 838 OFFCURVE",
"430 822 OFFCURVE",
"389 822 CURVE SMOOTH",
"329 822 OFFCURVE",
"278 863 OFFCURVE",
"213 863 CURVE SMOOTH",
"175 863 OFFCURVE",
"139 849 OFFCURVE",
"121 831 CURVE",
"121 726 LINE",
"144 750 OFFCURVE",
"175 764 OFFCURVE",
"216 764 CURVE SMOOTH",
"270 764 OFFCURVE",
"329 723 OFFCURVE",
"392 723 CURVE SMOOTH"
);
}
);
width = 579;
}
);
leftKerningGroup = a;
note = abrevetilde;
unicode = 1EB5;
},
{
glyphname = acaron;
lastChange = "2015-11-26 05:20:12 +0000";
layers = (
{
layerId = "9422835F-145C-491A-96D7-00A9C7F45A34";
name = Bold;
paths = (
{
closed = 1;
nodes = (
"262 -10 OFFCURVE",
"312 8 OFFCURVE",
"345 36 CURVE",
"354 0 LINE",
"542 0 LINE",
"542 287 LINE SMOOTH",
"542 423 OFFCURVE",
"440 484 OFFCURVE",
"286 484 CURVE SMOOTH",
"212 484 OFFCURVE",
"129 470 OFFCURVE",
"79 449 CURVE",
"79 328 LINE",
"131 344 OFFCURVE",
"192 353 OFFCURVE",
"243 353 CURVE SMOOTH",
"310 353 OFFCURVE",
"338 338 OFFCURVE",
"338 312 CURVE SMOOTH",
"338 305 LINE",
"223 305 LINE SMOOTH",
"86 305 OFFCURVE",
"20 248 OFFCURVE",
"20 145 CURVE SMOOTH",
"20 36 OFFCURVE",
"96 -10 OFFCURVE",
"187 -10 CURVE SMOOTH"
);
},
{
closed = 1;
nodes = (
"232 111 OFFCURVE",
"217 126 OFFCURVE",
"217 151 CURVE SMOOTH",
"217 180 OFFCURVE",
"234 192 OFFCURVE",
"270 192 CURVE SMOOTH",
"338 192 LINE",
"338 141 LINE",
"321 123 OFFCURVE",
"298 111 OFFCURVE",
"265 111 CURVE SMOOTH"
);
},
{
closed = 1;
nodes = (
"358 521 LINE",
"523 729 LINE",
"371 729 LINE",
"295 621 LINE",
"222 729 LINE",
"66 729 LINE",
"231 521 LINE"
);
}
);
width = 579;
}
);
leftKerningGroup = a;
note = acaron;
unicode = 01CE;
},
{
glyphname = acircumflex;
lastChange = "2015-11-26 05:20:42 +0000";
layers = (
{
layerId = "9422835F-145C-491A-96D7-00A9C7F45A34";
name = Bold;
paths = (
{
closed = 1;
nodes = (
"262 -10 OFFCURVE",
"312 8 OFFCURVE",
"345 36 CURVE",
"354 0 LINE",
"542 0 LINE",
"542 287 LINE SMOOTH",
"542 423 OFFCURVE",
"440 484 OFFCURVE",
"286 484 CURVE SMOOTH",
"212 484 OFFCURVE",
"129 470 OFFCURVE",
"79 449 CURVE",
"79 328 LINE",
"131 344 OFFCURVE",
"192 353 OFFCURVE",
"243 353 CURVE SMOOTH",
"310 353 OFFCURVE",
"338 338 OFFCURVE",
"338 312 CURVE SMOOTH",
"338 305 LINE",
"223 305 LINE SMOOTH",
"86 305 OFFCURVE",
"20 248 OFFCURVE",
"20 145 CURVE SMOOTH",
"20 36 OFFCURVE",
"96 -10 OFFCURVE",
"187 -10 CURVE SMOOTH"
);
},
{
closed = 1;
nodes = (
"232 111 OFFCURVE",
"217 126 OFFCURVE",
"217 151 CURVE SMOOTH",
"217 180 OFFCURVE",
"234 192 OFFCURVE",
"270 192 CURVE SMOOTH",
"338 192 LINE",
"338 141 LINE",
"321 123 OFFCURVE",
"298 111 OFFCURVE",
"265 111 CURVE SMOOTH"
);
},
{
closed = 1;
nodes = (
"225 522 LINE",
"298 630 LINE",
"374 522 LINE",
"526 522 LINE",
"361 730 LINE",
"234 730 LINE",
"69 522 LINE"
);
}
);
width = 579;
}
);
leftKerningGroup = a;
note = acircumflex;
unicode = 00E2;
},
{
glyphname = acircumflexacute;
lastChange = "2015-11-26 05:20:12 +0000";
layers = (
{
layerId = "9422835F-145C-491A-96D7-00A9C7F45A34";
name = Bold;
paths = (
{
closed = 1;
nodes = (
"262 -10 OFFCURVE",
"312 8 OFFCURVE",
"345 36 CURVE",
"354 0 LINE",
"542 0 LINE",
"542 287 LINE SMOOTH",
"542 423 OFFCURVE",
"440 484 OFFCURVE",
"286 484 CURVE SMOOTH",
"212 484 OFFCURVE",
"129 470 OFFCURVE",
"79 449 CURVE",
"79 328 LINE",
"131 344 OFFCURVE",
"192 353 OFFCURVE",
"243 353 CURVE SMOOTH",
"310 353 OFFCURVE",
"338 338 OFFCURVE",
"338 312 CURVE SMOOTH",
"338 305 LINE",
"223 305 LINE SMOOTH",
"86 305 OFFCURVE",
"20 248 OFFCURVE",
"20 145 CURVE SMOOTH",
"20 36 OFFCURVE",
"96 -10 OFFCURVE",
"187 -10 CURVE SMOOTH"
);
},
{
closed = 1;
nodes = (
"232 111 OFFCURVE",
"217 126 OFFCURVE",
"217 151 CURVE SMOOTH",
"217 180 OFFCURVE",
"234 192 OFFCURVE",
"270 192 CURVE SMOOTH",
"338 192 LINE",
"338 141 LINE",
"321 123 OFFCURVE",
"298 111 OFFCURVE",
"265 111 CURVE SMOOTH"
);
},
{
closed = 1;
nodes = (
"241 522 LINE",
"298 599 LINE",
"357 522 LINE",
"526 522 LINE",
"376 682 LINE",
"220 682 LINE",
"70 522 LINE"
);
},
{
closed = 1;
nodes = (
"581 650 LINE",
"661 814 LINE",
"504 814 LINE",
"431 650 LINE"
);
}
);
width = 579;
}
);
leftKerningGroup = a;
note = acircumflexacute;
unicode = 1EA5;
},
{
glyphname = acircumflexdotbelow;
lastChange = "2015-11-26 05:20:52 +0000";
layers = (
{
layerId = "9422835F-145C-491A-96D7-00A9C7F45A34";
name = Bold;
paths = (
{
closed = 1;
nodes = (
"262 -10 OFFCURVE",
"312 8 OFFCURVE",
"345 36 CURVE",
"354 0 LINE",
"542 0 LINE",
"542 287 LINE SMOOTH",
"542 423 OFFCURVE",
"440 484 OFFCURVE",
"286 484 CURVE SMOOTH",
"212 484 OFFCURVE",
"129 470 OFFCURVE",
"79 449 CURVE",
"79 328 LINE",
"131 344 OFFCURVE",
"192 353 OFFCURVE",
"243 353 CURVE SMOOTH",
"310 353 OFFCURVE",
"338 338 OFFCURVE",
"338 312 CURVE SMOOTH",
"338 305 LINE",
"223 305 LINE SMOOTH",
"86 305 OFFCURVE",
"20 248 OFFCURVE",
"20 145 CURVE SMOOTH",
"20 36 OFFCURVE",
"96 -10 OFFCURVE",
"187 -10 CURVE SMOOTH"
);
},
{
closed = 1;
nodes = (
"232 111 OFFCURVE",
"217 126 OFFCURVE",
"217 151 CURVE SMOOTH",
"217 180 OFFCURVE",
"234 192 OFFCURVE",
"270 192 CURVE SMOOTH",
"338 192 LINE",
"338 141 LINE",
"321 123 OFFCURVE",
"298 111 OFFCURVE",
"265 111 CURVE SMOOTH"
);
},
{
closed = 1;
nodes = (
"373 -176 LINE",
"373 -46 LINE",
"230 -46 LINE",
"230 -176 LINE"
);
},
{
closed = 1;
nodes = (
"228 522 LINE",
"301 630 LINE",
"377 522 LINE",
"529 522 LINE",
"364 730 LINE",
"237 730 LINE",
"72 522 LINE"
);
}
);
width = 579;
}
);
leftKerningGroup = a;
note = acircumflexdotbelow;
unicode = 1EAD;
},
{
glyphname = acircumflexgrave;
lastChange = "2015-11-26 05:21:01 +0000";
layers = (
{
layerId = "9422835F-145C-491A-96D7-00A9C7F45A34";
name = Bold;
paths = (
{
closed = 1;
nodes = (
"262 -10 OFFCURVE",
"312 8 OFFCURVE",
"345 36 CURVE",
"354 0 LINE",
"542 0 LINE",
"542 287 LINE SMOOTH",
"542 423 OFFCURVE",
"440 484 OFFCURVE",
"286 484 CURVE SMOOTH",
"212 484 OFFCURVE",
"129 470 OFFCURVE",
"79 449 CURVE",
"79 328 LINE",
"131 344 OFFCURVE",
"192 353 OFFCURVE",
"243 353 CURVE SMOOTH",
"310 353 OFFCURVE",
"338 338 OFFCURVE",
"338 312 CURVE SMOOTH",
"338 305 LINE",
"223 305 LINE SMOOTH",
"86 305 OFFCURVE",
"20 248 OFFCURVE",
"20 145 CURVE SMOOTH",
"20 36 OFFCURVE",
"96 -10 OFFCURVE",
"187 -10 CURVE SMOOTH"
);
},
{
closed = 1;
nodes = (
"232 111 OFFCURVE",
"217 126 OFFCURVE",
"217 151 CURVE SMOOTH",
"217 180 OFFCURVE",
"234 192 OFFCURVE",
"270 192 CURVE SMOOTH",
"338 192 LINE",
"338 141 LINE",
"321 123 OFFCURVE",
"298 111 OFFCURVE",
"265 111 CURVE SMOOTH"
);
},
{
closed = 1;
nodes = (
"161 650 LINE",
"88 814 LINE",
"-70 814 LINE",
"11 650 LINE"
);
},
{
closed = 1;
nodes = (
"234 522 LINE",
"293 599 LINE",
"351 522 LINE",
"522 522 LINE",
"372 682 LINE",
"215 682 LINE",
"65 522 LINE"
);
}
);
width = 579;
}
);
leftKerningGroup = a;
note = acircumflexgrave;
unicode = 1EA7;
},
{
glyphname = acircumflexhookabove;
lastChange = "2015-11-26 05:20:12 +0000";
layers = (
{
layerId = "9422835F-145C-491A-96D7-00A9C7F45A34";
name = Bold;
paths = (
{
closed = 1;
nodes = (
"262 -10 OFFCURVE",
"312 8 OFFCURVE",
"345 36 CURVE",
"354 0 LINE",
"542 0 LINE",
"542 287 LINE SMOOTH",
"542 423 OFFCURVE",
"440 484 OFFCURVE",
"286 484 CURVE SMOOTH",
"212 484 OFFCURVE",
"129 470 OFFCURVE",
"79 449 CURVE",
"79 328 LINE",
"131 344 OFFCURVE",
"192 353 OFFCURVE",
"243 353 CURVE SMOOTH",
"310 353 OFFCURVE",
"338 338 OFFCURVE",
"338 312 CURVE SMOOTH",
"338 305 LINE",
"223 305 LINE SMOOTH",
"86 305 OFFCURVE",
"20 248 OFFCURVE",
"20 145 CURVE SMOOTH",
"20 36 OFFCURVE",
"96 -10 OFFCURVE",
"187 -10 CURVE SMOOTH"
);
},
{
closed = 1;
nodes = (
"232 111 OFFCURVE",
"217 126 OFFCURVE",
"217 151 CURVE SMOOTH",
"217 180 OFFCURVE",
"234 192 OFFCURVE",
"270 192 CURVE SMOOTH",
"338 192 LINE",
"338 141 LINE",
"321 123 OFFCURVE",
"298 111 OFFCURVE",
"265 111 CURVE SMOOTH"
);
},
{
closed = 1;
nodes = (
"237 522 LINE",
"295 599 LINE",
"354 522 LINE",
"523 522 LINE",
"373 682 LINE",
"216 682 LINE",
"66 522 LINE"
);
},
{
closed = 1;
nodes = (
"579 627 LINE",
"579 659 LINE",
"628 668 OFFCURVE",
"650 700 OFFCURVE",
"650 746 CURVE SMOOTH",
"650 798 OFFCURVE",
"608 835 OFFCURVE",
"526 835 CURVE SMOOTH",
"481 835 OFFCURVE",
"444 830 OFFCURVE",
"418 823 CURVE",
"418 741 LINE",
"432 745 OFFCURVE",
"450 749 OFFCURVE",
"468 749 CURVE SMOOTH",
"492 749 OFFCURVE",
"506 745 OFFCURVE",
"506 731 CURVE SMOOTH",
"506 716 OFFCURVE",
"493 705 OFFCURVE",
"438 704 CURVE",
"438 627 LINE"
);
}
);
width = 579;
}
);
leftKerningGroup = a;
note = acircumflexhookabove;
unicode = 1EA9;
},
{
glyphname = acircumflextilde;
lastChange = "2015-11-26 05:20:12 +0000";
layers = (
{
layerId = "9422835F-145C-491A-96D7-00A9C7F45A34";
name = Bold;
paths = (
{
closed = 1;
nodes = (
"262 -10 OFFCURVE",
"312 8 OFFCURVE",
"345 36 CURVE",
"354 0 LINE",
"542 0 LINE",
"542 287 LINE SMOOTH",
"542 423 OFFCURVE",
"440 484 OFFCURVE",
"286 484 CURVE SMOOTH",
"212 484 OFFCURVE",
"129 470 OFFCURVE",
"79 449 CURVE",
"79 328 LINE",
"131 344 OFFCURVE",
"192 353 OFFCURVE",
"243 353 CURVE SMOOTH",
"310 353 OFFCURVE",
"338 338 OFFCURVE",
"338 312 CURVE SMOOTH",
"338 305 LINE",
"223 305 LINE SMOOTH",
"86 305 OFFCURVE",
"20 248 OFFCURVE",
"20 145 CURVE SMOOTH",
"20 36 OFFCURVE",
"96 -10 OFFCURVE",
"187 -10 CURVE SMOOTH"
);
},
{
closed = 1;
nodes = (
"232 111 OFFCURVE",
"217 126 OFFCURVE",
"217 151 CURVE SMOOTH",
"217 180 OFFCURVE",
"234 192 OFFCURVE",
"270 192 CURVE SMOOTH",
"338 192 LINE",
"338 141 LINE",
"321 123 OFFCURVE",
"298 111 OFFCURVE",
"265 111 CURVE SMOOTH"
);
},
{
closed = 1;
nodes = (
"237 521 LINE",
"295 598 LINE",
"354 521 LINE",
"523 521 LINE",
"373 681 LINE",
"216 681 LINE",
"66 521 LINE"
);
},
{
closed = 1;
nodes = (
"426 691 OFFCURVE",
"460 706 OFFCURVE",
"473 723 CURVE",
"473 829 LINE",
"457 806 OFFCURVE",
"425 790 OFFCURVE",
"384 790 CURVE SMOOTH",
"324 790 OFFCURVE",
"273 831 OFFCURVE",
"208 831 CURVE SMOOTH",
"170 831 OFFCURVE",
"134 817 OFFCURVE",
"116 799 CURVE",
"116 694 LINE",
"139 718 OFFCURVE",
"170 732 OFFCURVE",
"211 732 CURVE SMOOTH",
"265 732 OFFCURVE",
"324 691 OFFCURVE",
"387 691 CURVE SMOOTH"
);
}
);
width = 579;
}
);
leftKerningGroup = a;
note = acircumflextilde;
unicode = 1EAB;
},
{
glyphname = adieresis;
lastChange = "2015-11-26 05:20:12 +0000";
layers = (
{
layerId = "9422835F-145C-491A-96D7-00A9C7F45A34";
name = Bold;
paths = (
{
closed = 1;
nodes = (
"262 -10 OFFCURVE",
"312 8 OFFCURVE",
"345 36 CURVE",
"354 0 LINE",
"542 0 LINE",
"542 287 LINE SMOOTH",
"542 423 OFFCURVE",
"440 484 OFFCURVE",
"286 484 CURVE SMOOTH",
"212 484 OFFCURVE",
"129 470 OFFCURVE",
"79 449 CURVE",
"79 328 LINE",
"131 344 OFFCURVE",
"192 353 OFFCURVE",
"243 353 CURVE SMOOTH",
"310 353 OFFCURVE",
"338 338 OFFCURVE",
"338 312 CURVE SMOOTH",
"338 305 LINE",
"223 305 LINE SMOOTH",
"86 305 OFFCURVE",
"20 248 OFFCURVE",
"20 145 CURVE SMOOTH",
"20 36 OFFCURVE",
"96 -10 OFFCURVE",
"187 -10 CURVE SMOOTH"
);
},
{
closed = 1;
nodes = (
"232 111 OFFCURVE",
"217 126 OFFCURVE",
"217 151 CURVE SMOOTH",
"217 180 OFFCURVE",
"234 192 OFFCURVE",
"270 192 CURVE SMOOTH",
"338 192 LINE",
"338 141 LINE",
"321 123 OFFCURVE",
"298 111 OFFCURVE",
"265 111 CURVE SMOOTH"
);
},
{
closed = 1;
nodes = (
"268 550 LINE",
"268 681 LINE",
"124 681 LINE",
"124 550 LINE"
);
},
{
closed = 1;
nodes = (
"493 550 LINE",
"493 681 LINE",
"350 681 LINE",
"350 550 LINE"
);
}
);
width = 579;
}
);
leftKerningGroup = a;
note = adieresis;
unicode = 00E4;
},
{
glyphname = adotbelow;
lastChange = "2015-11-26 05:21:15 +0000";
layers = (
{
layerId = "9422835F-145C-491A-96D7-00A9C7F45A34";
name = Bold;
paths = (
{
closed = 1;
nodes = (
"262 -10 OFFCURVE",
"312 8 OFFCURVE",
"345 36 CURVE",
"354 0 LINE",
"542 0 LINE",
"542 287 LINE SMOOTH",
"542 423 OFFCURVE",
"440 484 OFFCURVE",
"286 484 CURVE SMOOTH",
"212 484 OFFCURVE",
"129 470 OFFCURVE",
"79 449 CURVE",
"79 328 LINE",
"131 344 OFFCURVE",
"192 353 OFFCURVE",
"243 353 CURVE SMOOTH",
"310 353 OFFCURVE",
"338 338 OFFCURVE",
"338 312 CURVE SMOOTH",
"338 305 LINE",
"223 305 LINE SMOOTH",
"86 305 OFFCURVE",
"20 248 OFFCURVE",
"20 145 CURVE SMOOTH",
"20 36 OFFCURVE",
"96 -10 OFFCURVE",
"187 -10 CURVE SMOOTH"
);
},
{
closed = 1;
nodes = (
"232 111 OFFCURVE",
"217 126 OFFCURVE",
"217 151 CURVE SMOOTH",
"217 180 OFFCURVE",
"234 192 OFFCURVE",
"270 192 CURVE SMOOTH",
"338 192 LINE",
"338 141 LINE",
"321 123 OFFCURVE",
"298 111 OFFCURVE",
"265 111 CURVE SMOOTH"
);
},
{
closed = 1;
nodes = (
"372 -176 LINE",
"372 -46 LINE",
"229 -46 LINE",
"229 -176 LINE"
);
}
);
width = 579;
}
);
leftKerningGroup = a;
note = adotbelow;
unicode = 1EA1;
},
{
glyphname = agrave;
lastChange = "2015-11-26 05:20:12 +0000";
layers = (
{
layerId = "9422835F-145C-491A-96D7-00A9C7F45A34";
name = Bold;
paths = (
{
closed = 1;
nodes = (
"262 -10 OFFCURVE",
"312 8 OFFCURVE",
"345 36 CURVE",
"354 0 LINE",
"542 0 LINE",
"542 287 LINE SMOOTH",
"542 423 OFFCURVE",
"440 484 OFFCURVE",
"286 484 CURVE SMOOTH",
"212 484 OFFCURVE",
"129 470 OFFCURVE",
"79 449 CURVE",
"79 328 LINE",
"131 344 OFFCURVE",
"192 353 OFFCURVE",
"243 353 CURVE SMOOTH",
"310 353 OFFCURVE",
"338 338 OFFCURVE",
"338 312 CURVE SMOOTH",
"338 305 LINE",
"223 305 LINE SMOOTH",
"86 305 OFFCURVE",
"20 248 OFFCURVE",
"20 145 CURVE SMOOTH",
"20 36 OFFCURVE",
"96 -10 OFFCURVE",
"187 -10 CURVE SMOOTH"
);
},
{
closed = 1;
nodes = (
"232 111 OFFCURVE",
"217 126 OFFCURVE",
"217 151 CURVE SMOOTH",
"217 180 OFFCURVE",
"234 192 OFFCURVE",
"270 192 CURVE SMOOTH",
"338 192 LINE",
"338 141 LINE",
"321 123 OFFCURVE",
"298 111 OFFCURVE",
"265 111 CURVE SMOOTH"
);
},
{
closed = 1;
nodes = (
"379 522 LINE",
"287 738 LINE",
"120 738 LINE",
"221 522 LINE"
);
}
);
width = 579;
}
);
leftKerningGroup = a;
note = agrave;
unicode = 00E0;
},
{
glyphname = ahookabove;
lastChange = "2015-11-26 05:20:12 +0000";
layers = (
{
layerId = "9422835F-145C-491A-96D7-00A9C7F45A34";
name = Bold;
paths = (
{
closed = 1;
nodes = (
"262 -10 OFFCURVE",
"312 8 OFFCURVE",
"345 36 CURVE",
"354 0 LINE",
"542 0 LINE",
"542 287 LINE SMOOTH",
"542 423 OFFCURVE",
"440 484 OFFCURVE",
"286 484 CURVE SMOOTH",
"212 484 OFFCURVE",
"129 470 OFFCURVE",
"79 449 CURVE",
"79 328 LINE",
"131 344 OFFCURVE",
"192 353 OFFCURVE",
"243 353 CURVE SMOOTH",
"310 353 OFFCURVE",
"338 338 OFFCURVE",
"338 312 CURVE SMOOTH",
"338 305 LINE",
"223 305 LINE SMOOTH",
"86 305 OFFCURVE",
"20 248 OFFCURVE",
"20 145 CURVE SMOOTH",
"20 36 OFFCURVE",
"96 -10 OFFCURVE",
"187 -10 CURVE SMOOTH"
);
},
{
closed = 1;
nodes = (
"232 111 OFFCURVE",
"217 126 OFFCURVE",
"217 151 CURVE SMOOTH",
"217 180 OFFCURVE",
"234 192 OFFCURVE",
"270 192 CURVE SMOOTH",
"338 192 LINE",
"338 141 LINE",
"321 123 OFFCURVE",
"298 111 OFFCURVE",
"265 111 CURVE SMOOTH"
);
},
{
closed = 1;
nodes = (
"371 522 LINE",
"371 560 LINE",
"427 577 OFFCURVE",
"454 603 OFFCURVE",
"454 662 CURVE SMOOTH",
"454 722 OFFCURVE",
"402 766 OFFCURVE",
"308 766 CURVE SMOOTH",
"255 766 OFFCURVE",
"215 761 OFFCURVE",
"185 752 CURVE",
"185 666 LINE",
"201 671 OFFCURVE",
"223 675 OFFCURVE",
"243 675 CURVE SMOOTH",
"279 675 OFFCURVE",
"298 666 OFFCURVE",
"298 644 CURVE SMOOTH",
"298 622 OFFCURVE",
"278 607 OFFCURVE",
"211 603 CURVE",
"211 522 LINE"
);
}
);
width = 579;
}
);
leftKerningGroup = a;
note = ahookabove;
unicode = 1EA3;
},
{
glyphname = "alpha-latin";
lastChange = "2015-11-26 05:21:23 +0000";
layers = (
{
layerId = "9422835F-145C-491A-96D7-00A9C7F45A34";
name = Bold;
paths = (
{
closed = 1;
nodes = (
"301 -10 OFFCURVE",
"344 6 OFFCURVE",
"381 34 CURVE",
"391 0 LINE",
"577 0 LINE",
"577 474 LINE",
"362 474 LINE",
"362 449 LINE",
"339 468 OFFCURVE",
"302 484 OFFCURVE",
"249 484 CURVE SMOOTH",
"122 484 OFFCURVE",
"20 386 OFFCURVE",
"20 218 CURVE SMOOTH",
"20 66 OFFCURVE",
"106 -10 OFFCURVE",
"236 -10 CURVE SMOOTH"
);
},
{
closed = 1;
nodes = (
"263 144 OFFCURVE",
"239 160 OFFCURVE",
"239 218 CURVE SMOOTH",
"239 290 OFFCURVE",
"264 329 OFFCURVE",
"310 329 CURVE SMOOTH",
"334 329 OFFCURVE",
"349 322 OFFCURVE",
"362 309 CURVE",
"362 166 LINE",
"352 153 OFFCURVE",
"332 144 OFFCURVE",
"304 144 CURVE SMOOTH"
);
}
);
width = 614;
}
);
leftKerningGroup = d;
note = ascript;
unicode = 0251;
},
{
glyphname = amacron;
lastChange = "2015-11-26 05:20:12 +0000";
layers = (
{
layerId = "9422835F-145C-491A-96D7-00A9C7F45A34";
name = Bold;
paths = (
{
closed = 1;
nodes = (
"262 -10 OFFCURVE",
"312 8 OFFCURVE",
"345 36 CURVE",
"354 0 LINE",
"542 0 LINE",
"542 287 LINE SMOOTH",
"542 423 OFFCURVE",
"440 484 OFFCURVE",
"286 484 CURVE SMOOTH",
"212 484 OFFCURVE",
"129 470 OFFCURVE",
"79 449 CURVE",
"79 328 LINE",
"131 344 OFFCURVE",
"192 353 OFFCURVE",
"243 353 CURVE SMOOTH",
"310 353 OFFCURVE",
"338 338 OFFCURVE",
"338 312 CURVE SMOOTH",
"338 305 LINE",
"223 305 LINE SMOOTH",
"86 305 OFFCURVE",
"20 248 OFFCURVE",
"20 145 CURVE SMOOTH",
"20 36 OFFCURVE",
"96 -10 OFFCURVE",
"187 -10 CURVE SMOOTH"
);
},
{
closed = 1;
nodes = (
"232 111 OFFCURVE",
"217 126 OFFCURVE",
"217 151 CURVE SMOOTH",
"217 180 OFFCURVE",
"234 192 OFFCURVE",
"270 192 CURVE SMOOTH",
"338 192 LINE",
"338 141 LINE",
"321 123 OFFCURVE",
"298 111 OFFCURVE",
"265 111 CURVE SMOOTH"
);
},
{
closed = 1;
nodes = (
"466 533 LINE",
"466 659 LINE",
"127 659 LINE",
"127 533 LINE"
);
}
);
width = 579;
}
);
leftKerningGroup = a;
note = amacron;
unicode = 0101;
},
{
glyphname = aogonek;
lastChange = "2015-11-26 05:21:33 +0000";
layers = (
{
layerId = "9422835F-145C-491A-96D7-00A9C7F45A34";
name = Bold;
paths = (
{
closed = 1;
nodes = (
"262 -10 OFFCURVE",
"312 8 OFFCURVE",
"345 36 CURVE",
"354 0 LINE",
"542 0 LINE",
"542 287 LINE SMOOTH",
"542 423 OFFCURVE",
"440 484 OFFCURVE",
"286 484 CURVE SMOOTH",
"212 484 OFFCURVE",
"129 470 OFFCURVE",
"79 449 CURVE",
"79 328 LINE",
"131 344 OFFCURVE",
"192 353 OFFCURVE",
"243 353 CURVE SMOOTH",
"310 353 OFFCURVE",
"338 338 OFFCURVE",
"338 312 CURVE SMOOTH",
"338 305 LINE",
"223 305 LINE SMOOTH",
"86 305 OFFCURVE",
"20 248 OFFCURVE",
"20 145 CURVE SMOOTH",
"20 36 OFFCURVE",
"96 -10 OFFCURVE",
"187 -10 CURVE SMOOTH"
);
},
{
closed = 1;
nodes = (
"232 111 OFFCURVE",
"217 126 OFFCURVE",
"217 151 CURVE SMOOTH",
"217 180 OFFCURVE",
"234 192 OFFCURVE",
"270 192 CURVE SMOOTH",
"338 192 LINE",
"338 141 LINE",
"321 123 OFFCURVE",
"298 111 OFFCURVE",
"265 111 CURVE SMOOTH"
);
},
{
closed = 1;
nodes = (
"474 -220 OFFCURVE",
"518 -211 OFFCURVE",
"539 -203 CURVE",
"539 -107 LINE",
"527 -114 OFFCURVE",
"506 -118 OFFCURVE",
"489 -118 CURVE SMOOTH",
"460 -118 OFFCURVE",
"444 -108 OFFCURVE",
"444 -83 CURVE SMOOTH",
"444 -51 OFFCURVE",
"466 -24 OFFCURVE",
"497 0 CURVE",
"363 0 LINE",
"320 -26 OFFCURVE",
"288 -68 OFFCURVE",
"288 -120 CURVE SMOOTH",
"288 -189 OFFCURVE",
"345 -220 OFFCURVE",
"428 -220 CURVE SMOOTH"
);
}
);
width = 579;
}
);
leftKerningGroup = a;
note = aogonek;
unicode = 0105;
},
{
glyphname = aring;
lastChange = "2015-11-26 05:20:12 +0000";
layers = (
{
layerId = "9422835F-145C-491A-96D7-00A9C7F45A34";
name = Bold;
paths = (
{
closed = 1;
nodes = (
"262 -10 OFFCURVE",
"312 8 OFFCURVE",
"345 36 CURVE",
"354 0 LINE",
"542 0 LINE",
"542 287 LINE SMOOTH",
"542 423 OFFCURVE",
"440 484 OFFCURVE",
"286 484 CURVE SMOOTH",
"212 484 OFFCURVE",
"129 470 OFFCURVE",
"79 449 CURVE",
"79 328 LINE",
"131 344 OFFCURVE",
"192 353 OFFCURVE",
"243 353 CURVE SMOOTH",
"310 353 OFFCURVE",
"338 338 OFFCURVE",
"338 312 CURVE SMOOTH",
"338 305 LINE",
"223 305 LINE SMOOTH",
"86 305 OFFCURVE",
"20 248 OFFCURVE",
"20 145 CURVE SMOOTH",
"20 36 OFFCURVE",
"96 -10 OFFCURVE",
"187 -10 CURVE SMOOTH"
);
},
{
closed = 1;
nodes = (
"232 111 OFFCURVE",
"217 126 OFFCURVE",
"217 151 CURVE SMOOTH",
"217 180 OFFCURVE",
"234 192 OFFCURVE",
"270 192 CURVE SMOOTH",
"338 192 LINE",
"338 141 LINE",
"321 123 OFFCURVE",
"298 111 OFFCURVE",
"265 111 CURVE SMOOTH"
);
},
{
closed = 1;
nodes = (
"404 522 OFFCURVE",
"456 582 OFFCURVE",
"456 659 CURVE SMOOTH",
"456 737 OFFCURVE",
"404 797 OFFCURVE",
"309 797 CURVE SMOOTH",
"215 797 OFFCURVE",
"163 737 OFFCURVE",
"163 659 CURVE SMOOTH",
"163 582 OFFCURVE",
"215 522 OFFCURVE",
"309 522 CURVE SMOOTH"
);
},
{
closed = 1;
nodes = (
"273 607 OFFCURVE",
"254 631 OFFCURVE",
"254 659 CURVE SMOOTH",
"254 687 OFFCURVE",
"273 712 OFFCURVE",
"309 712 CURVE SMOOTH",
"346 712 OFFCURVE",
"364 687 OFFCURVE",
"364 659 CURVE SMOOTH",
"364 631 OFFCURVE",
"346 607 OFFCURVE",
"309 607 CURVE SMOOTH"
);
}
);
width = 579;
}
);
leftKerningGroup = a;
note = aring;
unicode = 00E5;
},
{
glyphname = aringacute;
lastChange = "2015-11-26 05:21:51 +0000";
layers = (
{
layerId = "9422835F-145C-491A-96D7-00A9C7F45A34";
name = Bold;
paths = (
{
closed = 1;
nodes = (
"262 -10 OFFCURVE",
"312 8 OFFCURVE",
"345 36 CURVE",
"354 0 LINE",
"542 0 LINE",
"542 287 LINE SMOOTH",
"542 423 OFFCURVE",
"440 484 OFFCURVE",
"286 484 CURVE SMOOTH",
"212 484 OFFCURVE",
"129 470 OFFCURVE",
"79 449 CURVE",
"79 328 LINE",
"131 344 OFFCURVE",
"192 353 OFFCURVE",
"243 353 CURVE SMOOTH",
"310 353 OFFCURVE",
"338 338 OFFCURVE",
"338 312 CURVE SMOOTH",
"338 305 LINE",
"223 305 LINE SMOOTH",
"86 305 OFFCURVE",
"20 248 OFFCURVE",
"20 145 CURVE SMOOTH",
"20 36 OFFCURVE",
"96 -10 OFFCURVE",
"187 -10 CURVE SMOOTH"
);
},
{
closed = 1;
nodes = (
"232 111 OFFCURVE",
"217 126 OFFCURVE",
"217 151 CURVE SMOOTH",
"217 180 OFFCURVE",
"234 192 OFFCURVE",
"270 192 CURVE SMOOTH",
"338 192 LINE",
"338 141 LINE",
"321 123 OFFCURVE",
"298 111 OFFCURVE",
"265 111 CURVE SMOOTH"
);
},
{
closed = 1;
nodes = (
"404 522 OFFCURVE",
"456 582 OFFCURVE",
"456 659 CURVE SMOOTH",
"456 737 OFFCURVE",
"404 797 OFFCURVE",
"309 797 CURVE SMOOTH",
"215 797 OFFCURVE",
"163 737 OFFCURVE",
"163 659 CURVE SMOOTH",
"163 582 OFFCURVE",
"215 522 OFFCURVE",
"309 522 CURVE SMOOTH"
);
},
{
closed = 1;
nodes = (
"273 607 OFFCURVE",
"254 631 OFFCURVE",
"254 659 CURVE SMOOTH",
"254 687 OFFCURVE",
"273 712 OFFCURVE",
"309 712 CURVE SMOOTH",
"346 712 OFFCURVE",
"364 687 OFFCURVE",
"364 659 CURVE SMOOTH",
"364 631 OFFCURVE",
"346 607 OFFCURVE",
"309 607 CURVE SMOOTH"
);
},
{
closed = 1;
nodes = (
"369 813 LINE",
"470 985 LINE",
"304 985 LINE",
"212 813 LINE"
);
}
);
width = 579;
}
);
leftKerningGroup = a;
note = aringacute;
unicode = 01FB;
},
{
glyphname = atilde;
lastChange = "2015-11-26 05:20:12 +0000";
layers = (
{
layerId = "9422835F-145C-491A-96D7-00A9C7F45A34";
name = Bold;
paths = (
{
closed = 1;
nodes = (
"262 -10 OFFCURVE",
"312 8 OFFCURVE",
"345 36 CURVE",
"354 0 LINE",
"542 0 LINE",
"542 287 LINE SMOOTH",
"542 423 OFFCURVE",
"440 484 OFFCURVE",
"286 484 CURVE SMOOTH",
"212 484 OFFCURVE",
"129 470 OFFCURVE",
"79 449 CURVE",
"79 328 LINE",
"131 344 OFFCURVE",
"192 353 OFFCURVE",
"243 353 CURVE SMOOTH",
"310 353 OFFCURVE",
"338 338 OFFCURVE",
"338 312 CURVE SMOOTH",
"338 305 LINE",
"223 305 LINE SMOOTH",
"86 305 OFFCURVE",
"20 248 OFFCURVE",
"20 145 CURVE SMOOTH",
"20 36 OFFCURVE",
"96 -10 OFFCURVE",
"187 -10 CURVE SMOOTH"
);
},
{
closed = 1;
nodes = (
"232 111 OFFCURVE",
"217 126 OFFCURVE",
"217 151 CURVE SMOOTH",
"217 180 OFFCURVE",
"234 192 OFFCURVE",
"270 192 CURVE SMOOTH",
"338 192 LINE",
"338 141 LINE",
"321 123 OFFCURVE",
"298 111 OFFCURVE",
"265 111 CURVE SMOOTH"
);
},
{
closed = 1;
nodes = (
"451 528 OFFCURVE",
"488 544 OFFCURVE",
"501 562 CURVE",
"501 692 LINE",
"485 669 OFFCURVE",
"451 651 OFFCURVE",
"407 651 CURVE SMOOTH",
"341 651 OFFCURVE",
"286 694 OFFCURVE",
"216 694 CURVE SMOOTH",
"176 694 OFFCURVE",
"137 678 OFFCURVE",
"118 660 CURVE",
"118 531 LINE",
"142 555 OFFCURVE",
"175 571 OFFCURVE",
"219 571 CURVE SMOOTH",
"277 571 OFFCURVE",
"341 528 OFFCURVE",
"410 528 CURVE SMOOTH"
);
}
);
width = 579;
}
);
leftKerningGroup = a;
note = atilde;
unicode = 00E3;
},
{
glyphname = ae;
lastChange = "2015-11-26 04:54:45 +0000";
layers = (
{
layerId = "9422835F-145C-491A-96D7-00A9C7F45A34";
name = Bold;
paths = (
{
closed = 1;
nodes = (
"331 -10 OFFCURVE",
"396 22 OFFCURVE",
"446 61 CURVE",
"487 16 OFFCURVE",
"563 -10 OFFCURVE",
"637 -10 CURVE SMOOTH",
"726 -10 OFFCURVE",
"792 1 OFFCURVE",
"840 24 CURVE",
"840 146 LINE",
"807 133 OFFCURVE",
"747 121 OFFCURVE",
"689 121 CURVE SMOOTH",
"609 121 OFFCURVE",
"561 138 OFFCURVE",
"543 176 CURVE",
"865 176 LINE",
"865 258 LINE SMOOTH",
"865 400 OFFCURVE",
"766 484 OFFCURVE",
"608 484 CURVE SMOOTH",
"545 484 OFFCURVE",
"485 467 OFFCURVE",
"446 440 CURVE",
"406 469 OFFCURVE",
"351 484 OFFCURVE",
"286 484 CURVE SMOOTH",
"212 484 OFFCURVE",
"129 470 OFFCURVE",
"79 449 CURVE",
"79 328 LINE",
"131 344 OFFCURVE",
"192 353 OFFCURVE",
"243 353 CURVE SMOOTH",
"310 353 OFFCURVE",
"338 338 OFFCURVE",
"338 312 CURVE SMOOTH",
"338 305 LINE",
"223 305 LINE SMOOTH",
"86 305 OFFCURVE",
"20 248 OFFCURVE",
"20 145 CURVE SMOOTH",
"20 36 OFFCURVE",
"106 -10 OFFCURVE",
"214 -10 CURVE SMOOTH"
);
},
{
closed = 1;
nodes = (
"232 111 OFFCURVE",
"217 126 OFFCURVE",
"217 151 CURVE SMOOTH",
"217 185 OFFCURVE",
"238 192 OFFCURVE",
"282 192 CURVE SMOOTH",
"338 192 LINE",
"338 139 LINE",
"322 122 OFFCURVE",
"298 111 OFFCURVE",
"265 111 CURVE SMOOTH"
);
},
{
closed = 1;
nodes = (
"543 327 OFFCURVE",
"562 352 OFFCURVE",
"615 352 CURVE SMOOTH",
"664 352 OFFCURVE",
"681 329 OFFCURVE",
"681 301 CURVE SMOOTH",
"681 288 LINE",
"543 288 LINE"
);
}
);
width = 885;
}
);
leftKerningGroup = a;
note = ae;
unicode = 00E6;
},
{
glyphname = aeacute;
lastChange = "2015-11-26 04:54:46 +0000";
layers = (
{
layerId = "9422835F-145C-491A-96D7-00A9C7F45A34";
name = Bold;
paths = (
{
closed = 1;
nodes = (
"331 -10 OFFCURVE",
"396 22 OFFCURVE",
"446 61 CURVE",
"487 16 OFFCURVE",
"563 -10 OFFCURVE",
"637 -10 CURVE SMOOTH",
"726 -10 OFFCURVE",
"792 1 OFFCURVE",
"840 24 CURVE",
"840 146 LINE",
"807 133 OFFCURVE",
"747 121 OFFCURVE",
"689 121 CURVE SMOOTH",
"609 121 OFFCURVE",
"561 138 OFFCURVE",
"543 176 CURVE",
"865 176 LINE",
"865 258 LINE SMOOTH",
"865 400 OFFCURVE",
"766 484 OFFCURVE",
"608 484 CURVE SMOOTH",
"545 484 OFFCURVE",
"485 467 OFFCURVE",
"446 440 CURVE",
"406 469 OFFCURVE",
"351 484 OFFCURVE",
"286 484 CURVE SMOOTH",
"212 484 OFFCURVE",
"129 470 OFFCURVE",
"79 449 CURVE",
"79 328 LINE",
"131 344 OFFCURVE",
"192 353 OFFCURVE",
"243 353 CURVE SMOOTH",
"310 353 OFFCURVE",
"338 338 OFFCURVE",
"338 312 CURVE SMOOTH",
"338 305 LINE",
"223 305 LINE SMOOTH",
"86 305 OFFCURVE",
"20 248 OFFCURVE",
"20 145 CURVE SMOOTH",
"20 36 OFFCURVE",
"106 -10 OFFCURVE",
"214 -10 CURVE SMOOTH"
);
},
{
closed = 1;
nodes = (
"232 111 OFFCURVE",
"217 126 OFFCURVE",
"217 151 CURVE SMOOTH",
"217 185 OFFCURVE",
"238 192 OFFCURVE",
"282 192 CURVE SMOOTH",
"338 192 LINE",
"338 139 LINE",
"322 122 OFFCURVE",
"298 111 OFFCURVE",
"265 111 CURVE SMOOTH"
);
},
{
closed = 1;
nodes = (
"543 327 OFFCURVE",
"562 352 OFFCURVE",
"615 352 CURVE SMOOTH",
"664 352 OFFCURVE",
"681 329 OFFCURVE",
"681 301 CURVE SMOOTH",
"681 288 LINE",
"543 288 LINE"
);
},
{
closed = 1;
nodes = (
"504 522 LINE",
"605 738 LINE",
"439 738 LINE",
"347 522 LINE"
);
}
);
width = 885;
}
);
leftKerningGroup = a;
note = aeacute;
unicode = 01FD;
},
{
glyphname = b;
lastChange = "2015-11-26 04:54:46 +0000";
layers = (
{
layerId = "9422835F-145C-491A-96D7-00A9C7F45A34";
name = Bold;
paths = (
{
closed = 1;
nodes = (
"509 -10 OFFCURVE",
"597 71 OFFCURVE",
"597 241 CURVE SMOOTH",
"597 416 OFFCURVE",
"511 484 OFFCURVE",
"367 484 CURVE SMOOTH",
"328 484 OFFCURVE",
"283 475 OFFCURVE",
"255 461 CURVE",
"255 674 LINE",
"40 674 LINE",
"40 0 LINE",
"226 0 LINE",
"236 34 LINE",
"273 6 OFFCURVE",
"315 -10 OFFCURVE",
"375 -10 CURVE SMOOTH"
);
},
{
closed = 1;
nodes = (
"289 144 OFFCURVE",
"271 152 OFFCURVE",
"255 166 CURVE",
"255 309 LINE",
"271 323 OFFCURVE",
"289 329 OFFCURVE",
"313 329 CURVE SMOOTH",
"355 329 OFFCURVE",
"378 307 OFFCURVE",
"378 238 CURVE SMOOTH",
"378 169 OFFCURVE",
"356 144 OFFCURVE",
"313 144 CURVE SMOOTH"
);
}
);
width = 617;
}
);
note = b;
rightKerningGroup = b;
unicode = 0062;
},
{
glyphname = c;
lastChange = "2015-11-26 04:54:43 +0000";
layers = (
{
layerId = "9422835F-145C-491A-96D7-00A9C7F45A34";
name = Bold;
paths = (
{
closed = 1;
nodes = (
"380 -10 OFFCURVE",
"439 -1 OFFCURVE",
"493 23 CURVE",
"493 180 LINE",
"451 158 OFFCURVE",
"404 145 OFFCURVE",
"356 145 CURVE SMOOTH",
"277 145 OFFCURVE",
"239 171 OFFCURVE",
"239 237 CURVE SMOOTH",
"239 305 OFFCURVE",
"278 329 OFFCURVE",
"355 329 CURVE SMOOTH",
"404 329 OFFCURVE",
"451 319 OFFCURVE",
"491 300 CURVE",
"491 450 LINE",
"437 475 OFFCURVE",
"380 484 OFFCURVE",
"307 484 CURVE SMOOTH",
"136 484 OFFCURVE",
"20 405 OFFCURVE",
"20 237 CURVE SMOOTH",
"20 69 OFFCURVE",
"134 -10 OFFCURVE",
"308 -10 CURVE SMOOTH"
);
}
);
width = 513;
}
);
leftKerningGroup = c;
note = c;
rightKerningGroup = c;
unicode = 0063;
},
